<?xml version="1.0" standalone="no"?>
<!DOCTYPE svg PUBLIC "-//W3C//DTD SVG 20010904//EN"
 "http://www.w3.org/TR/2001/REC-SVG-20010904/DTD/svg10.dtd">
<svg version="1.0" xmlns="http://www.w3.org/2000/svg"
 width="1538.000000pt" height="597.000000pt" viewBox="0 0 1538.000000 597.000000"
 preserveAspectRatio="xMidYMid meet">

<g transform="translate(0.000000,597.000000) scale(0.100000,-0.100000)"
fill="#000000" stroke="none">
<path d="M4640 3006 l0 -656 150 0 150 0 0 180 0 180 188 0 c217 0 292 13 398
65 51 25 89 53 132 99 79 85 104 147 110 280 6 121 -14 203 -69 285 -45 67
-92 107 -177 150 -116 58 -153 63 -534 68 l-348 5 0 -656z m700 378 c97 -44
146 -149 121 -256 -31 -136 -123 -178 -388 -178 l-133 0 0 231 0 231 178 -4
c152 -3 183 -6 222 -24z"/>
<path d="M7730 3005 l0 -655 150 0 150 0 2 393 3 392 321 -390 320 -390 127
-3 127 -3 0 656 0 656 -147 -3 -148 -3 -5 -393 -5 -392 -323 395 -323 395
-125 0 -124 0 0 -655z"/>
<path d="M10230 3455 l0 -125 -80 0 -80 0 0 -110 0 -110 79 0 80 0 3 -267 c3
-252 4 -271 25 -316 30 -64 55 -95 110 -134 96 -68 301 -83 419 -29 30 14 54
29 54 33 0 4 -17 51 -38 105 l-37 96 -27 -14 c-46 -24 -111 -28 -149 -10 -62
29 -64 36 -67 299 l-3 237 125 0 126 0 0 110 0 110 -125 0 -125 0 0 125 0 125
-145 0 -145 0 0 -125z"/>
<path d="M6384 3355 c-78 -17 -139 -47 -186 -93 l-38 -36 0 62 0 62 -140 0
-140 0 0 -500 0 -500 144 0 145 0 3 288 c3 272 4 289 25 327 49 91 126 135
239 135 l64 0 0 135 0 135 -27 -1 c-16 0 -56 -7 -89 -14z"/>
<path d="M6943 3360 c-169 -31 -322 -139 -388 -274 -152 -315 21 -669 364
-742 269 -57 532 58 636 278 140 296 -10 629 -325 722 -67 20 -217 28 -287 16z
m219 -254 c85 -40 138 -124 146 -227 9 -128 -34 -222 -125 -276 -42 -24 -58
-28 -128 -28 -92 0 -141 21 -192 78 -50 57 -66 113 -61 215 3 74 9 96 31 135
51 86 136 130 238 123 31 -2 72 -11 91 -20z"/>
<path d="M9418 3360 c-101 -16 -181 -41 -250 -77 l-68 -35 45 -87 c25 -47 49
-92 54 -99 7 -11 19 -8 61 13 83 42 148 58 235 58 82 0 139 -16 179 -51 23
-21 55 -89 56 -118 0 -21 -5 -21 -182 -27 -102 -3 -207 -12 -238 -20 -157 -39
-240 -133 -241 -271 -2 -199 131 -310 371 -311 132 0 194 20 262 83 l48 45 0
-57 0 -56 135 0 135 0 0 328 c0 348 -5 393 -51 483 -43 85 -136 154 -252 185
-66 18 -225 26 -299 14z m312 -648 c0 -49 -5 -66 -29 -99 -41 -56 -100 -83
-185 -83 -105 0 -166 45 -166 121 0 85 71 117 263 118 l117 1 0 -58z"/>
<path d="M12614 3355 c-78 -17 -139 -47 -186 -93 l-38 -36 0 62 0 62 -140 0
-140 0 0 -500 0 -500 145 0 145 0 0 263 c0 315 6 347 79 417 53 52 102 70 190
70 l61 0 0 135 0 135 -27 -1 c-16 0 -56 -7 -89 -14z"/>
<path d="M13163 3359 c-187 -31 -344 -161 -404 -335 -64 -187 -18 -396 115
-530 114 -114 236 -158 431 -158 181 0 295 36 378 123 l36 36 -75 82 -74 81
-51 -34 c-64 -43 -116 -57 -204 -58 -122 0 -222 50 -265 135 -38 74 -63 69
360 69 l380 0 0 78 c-1 343 -278 569 -627 511z m183 -224 c81 -24 141 -85 165
-167 l8 -28 -250 0 c-137 0 -249 2 -249 4 0 23 38 98 63 124 71 74 162 97 263
67z"/>
<path d="M10912 2998 c4 -314 6 -359 23 -403 24 -66 54 -112 100 -156 139
-136 425 -145 569 -18 l46 41 0 -56 0 -56 140 0 140 0 0 500 0 500 -145 0
-145 0 0 -268 c0 -209 -3 -281 -15 -327 -31 -116 -100 -169 -220 -169 -109 0
-160 37 -190 137 -12 40 -15 112 -15 339 l0 288 -146 0 -145 0 3 -352z"/>
</g>
</svg>
