<?xml version="1.0" encoding="UTF-8"?>
<svg version="1.1" xmlns="http://www.w3.org/2000/svg" width="1216" height="572">
<path d="M0 0 C25.59989164 -0.6908387 55.18959944 -0.38850041 77.39892578 14.078125 C78.34767578 14.655625 79.29642578 15.233125 80.27392578 15.828125 C84.62102798 20.43093909 87.06991794 25.77507012 87.96142578 32.015625 C86.64231631 49.30290173 72.81100765 63.6280515 60.57080078 74.6171875 C57.89091891 76.83475057 55.16247561 78.96595582 52.39892578 81.078125 C51.38185547 81.88765625 50.36478516 82.6971875 49.31689453 83.53125 C26.90434409 101.29717099 -0.36080669 119.54835565 -30.08154297 116.6796875 C-39.92636286 114.99699908 -48.77995035 111.27045947 -56.60107422 105.078125 C-57.36033203 104.49289062 -58.11958984 103.90765625 -58.90185547 103.3046875 C-70.20099988 93.99950975 -76.82814898 80.52097942 -78.60107422 66.078125 C-80.00597692 51.17764177 -75.72141142 36.15358262 -66.49560547 24.39453125 C-51.34540661 6.8453336 -32.11648682 2.34039367 -9.78857422 0.328125 C-6.52606288 0.17295205 -3.26450321 0.09805153 0 0 Z " fill="#000000" transform="translate(262.60107421875,156.921875)"/>
<path d="M0 0 C11.98017376 8.03932713 16.71866009 26.0579011 19.49609375 39.41015625 C22.38297166 54.24736598 23.27615455 68.9188469 23.3125 84 C23.31617584 84.72799805 23.31985168 85.45599609 23.32363892 86.20605469 C23.3796891 107.43198827 21.66136352 130.9826964 6 147 C-6.36419499 158.26718694 -21.2014309 164.87891433 -38.16015625 164.28125 C-53.95834375 162.71664271 -65.86050564 157.27948801 -77 146 C-77.56332031 145.45859375 -78.12664062 144.9171875 -78.70703125 144.359375 C-89.04119115 133.56167759 -92.41570755 119.36686973 -92.36694336 104.92675781 C-91.5857642 75.11328487 -69.28815863 45.19909666 -51 23 C-50.27296875 22.10539062 -49.5459375 21.21078125 -48.796875 20.2890625 C-37.45974914 6.97843695 -18.34743802 -9.97459924 0 0 Z " fill="#000000" transform="translate(386,252)"/>
<path d="M0 0 C9.9 0 19.8 0 30 0 C30.33 32.01 30.66 64.02 31 97 C33.64 94.36 36.28 91.72 39 89 C54.53463685 78.14703453 72.39692617 73.75337945 91.21923828 76.30029297 C107.29503753 79.19533826 120.55670156 87.11607679 130.39453125 100.1796875 C136.49227264 109.61478272 141.13328258 120.37774234 141.12025452 131.77729797 C141.12231651 133.17594337 141.12231651 133.17594337 141.12442017 134.60284424 C141.12082489 135.6134491 141.11722961 136.62405396 141.11352539 137.6652832 C141.11367142 138.7389061 141.11381744 139.81252899 141.1139679 140.91868591 C141.11327196 144.46273834 141.10549444 148.00673802 141.09765625 151.55078125 C141.09579094 154.00986197 141.09436757 156.46894307 141.09336853 158.92802429 C141.08955227 165.39707466 141.07972956 171.86610255 141.06866455 178.33514404 C141.0584313 184.93761898 141.0538668 191.54009755 141.04882812 198.14257812 C141.03810652 211.09506355 141.02051689 224.04752638 141 237 C131.1 237 121.2 237 111 237 C110.98018066 234.17977295 110.96036133 231.3595459 110.93994141 228.45385742 C110.87285012 219.10600945 110.79521381 209.75827009 110.71247292 200.41054821 C110.66265806 194.74646105 110.61632727 189.08239122 110.578125 183.41821289 C110.54108443 177.94569539 110.4946748 172.47332826 110.44193649 167.00094032 C110.42349186 164.91953498 110.40834781 162.83809753 110.39665604 160.7566433 C110.43108571 136.32545541 110.43108571 136.32545541 98.65234375 115.52734375 C89.39232784 106.96784913 78.30887773 105.2425073 66.1328125 105.65234375 C55.42506338 106.3341014 47.09874964 111.52436903 39.8125 119.125 C31.90184657 128.87282704 30.87608211 140.51191017 30.79467773 152.53710938 C30.77982834 153.91411514 30.77982834 153.91411514 30.76467896 155.31893921 C30.73330933 158.32718402 30.70840444 161.33544457 30.68359375 164.34375 C30.66300299 166.43982331 30.64200598 168.53589266 30.62062073 170.63195801 C30.56561916 176.12932112 30.51611386 181.62672033 30.46777344 187.12414551 C30.41739769 192.74165024 30.3617958 198.35910302 30.30664062 203.9765625 C30.19932736 214.98433212 30.09830699 225.99214626 30 237 C20.1 237 10.2 237 0 237 C0 158.79 0 80.58 0 0 Z " fill="#000000" transform="translate(472,168)"/>
<path d="M0 0 C14.48020906 12.57955916 24.61839791 29.76709302 27 49 C27.59128431 58.92760059 27.9548064 69.22596801 26 79 C-14.59 79 -55.18 79 -97 79 C-92.19299062 92.99069131 -92.19299062 92.99069131 -84 104 C-82.98099609 105.05960938 -82.98099609 105.05960938 -81.94140625 106.140625 C-70.73868209 116.92399585 -57.52588145 119.4020153 -42.52905273 119.29321289 C-28.78078175 119.02811568 -15.67510451 114.98969561 -5.6875 105.0625 C-4.77466825 104.0568379 -3.8710342 103.04207364 -3 102 C0.36335594 103.45745424 2.54534005 105.31117854 5.109375 107.9140625 C5.86347656 108.67460937 6.61757813 109.43515625 7.39453125 110.21875 C8.17183594 111.0128125 8.94914063 111.806875 9.75 112.625 C10.54277344 113.42679688 11.33554687 114.22859375 12.15234375 115.0546875 C14.10614493 117.03202846 16.05512103 119.01388909 18 121 C12.21633914 133.26546019 -3.08240633 140.35182931 -15.25 144.875 C-25.07452735 148.30160344 -34.38145525 149.36484723 -44.75 149.3125 C-45.89944092 149.30758545 -47.04888184 149.3026709 -48.2331543 149.29760742 C-56.54326962 149.18294865 -64.04309105 148.55279873 -72 146 C-73.08925781 145.6596875 -74.17851563 145.319375 -75.30078125 144.96875 C-94.57112972 138.2660201 -111.01616616 123.4017797 -120.3125 105.3125 C-129.74350386 85.71319266 -131.76021164 61.54942842 -125.390625 40.6015625 C-121.13548133 29.58121851 -116.03081954 19.77676523 -108 11 C-107.40960937 10.31808594 -106.81921875 9.63617188 -106.2109375 8.93359375 C-79.60804444 -19.98997721 -30.94967535 -23.46684969 0 0 Z M-87 30 C-92.44379109 37.58735015 -94.46545178 43.70665653 -97 53 C-65.98 53 -34.96 53 -3 53 C-4.71357356 39.29141148 -9.54733907 30.00194154 -20.23046875 21.15234375 C-40.25009677 6.73112498 -71.04498817 11.77882526 -87 30 Z " fill="#000000" transform="translate(908,259)"/>
<path d="M0 0 C10.23 0 20.46 0 31 0 C31.0093457 2.96121826 31.01869141 5.92243652 31.02832031 8.97338867 C31.06220345 18.79624536 31.11781518 28.61889447 31.18390274 38.44158459 C31.22328294 44.39262627 31.25551778 50.34352207 31.27099609 56.29467773 C31.28622496 62.04611047 31.32078083 67.79714187 31.36830902 73.54839516 C31.38305873 75.73420012 31.3910373 77.92006241 31.39188385 80.10591698 C31.30177679 102.6732554 31.30177679 102.6732554 42 122 C49.61897849 128.19042002 59.99981743 131.75834208 69.875 131.28515625 C80.72209199 129.82957222 89.75049352 126.68416034 96.6875 117.9375 C105.53065619 104.88331706 104.33031713 88.99617554 104.4140625 73.92578125 C104.43279739 71.78915173 104.45237249 69.65252942 104.4727478 67.51591492 C104.52382992 61.92489906 104.56358296 56.33385928 104.60089111 50.74273682 C104.64108159 45.02439573 104.69210493 39.30615211 104.7421875 33.58789062 C104.83866324 22.39198912 104.92215518 11.19604656 105 0 C114.9 0 124.8 0 135 0 C135.09072916 13.4139579 135.16396209 26.82770866 135.20724869 40.24190521 C135.22803451 46.47209669 135.25618625 52.70206552 135.30175781 58.93212891 C135.34553836 64.95572569 135.36920465 70.97910966 135.37950897 77.00285339 C135.3868429 79.28951868 135.40116257 81.57617365 135.42292023 83.86274719 C135.62434366 105.92853987 133.17282734 125.07398577 117.32543945 141.81762695 C104.73302737 154.52511608 89.32994972 161.11130109 71.48706055 161.38037109 C50.98520433 161.34426183 34.45064363 157.36909857 19 143 C4.88203242 128.3193598 -0.19238378 109.79105032 -0.11352539 89.91210938 C-0.11367142 88.93558411 -0.11381744 87.95905884 -0.1139679 86.95294189 C-0.1132755 83.74985473 -0.10551479 80.54682691 -0.09765625 77.34375 C-0.09578968 75.1131595 -0.0943669 72.88256859 -0.09336853 70.65197754 C-0.0895622 64.79946752 -0.07974807 58.94698258 -0.06866455 53.09448242 C-0.05840984 47.11507506 -0.05386223 41.13566363 -0.04882812 35.15625 C-0.03812404 23.43748725 -0.02054258 11.71874964 0 0 Z " fill="#000000" transform="translate(632,247)"/>
<path d="M0 0 C4.80536123 3.82493854 9.05645981 7.82350414 12.72265625 12.75390625 C11.27023889 16.08625199 9.43764765 18.29616231 6.87890625 20.86328125 C6.12738281 21.61738281 5.37585937 22.37148438 4.6015625 23.1484375 C3.81652344 23.92574219 3.03148437 24.70304687 2.22265625 25.50390625 C1.43761719 26.29667969 0.65257812 27.08945312 -0.15625 27.90625 C-0.90777344 28.65519531 -1.65929688 29.40414062 -2.43359375 30.17578125 C-3.12259766 30.8625293 -3.81160156 31.54927734 -4.52148438 32.25683594 C-6.27734375 33.75390625 -6.27734375 33.75390625 -8.27734375 33.75390625 C-9.06109375 32.74328125 -9.84484375 31.73265625 -10.65234375 30.69140625 C-17.52120111 22.47211819 -27.85541656 18.19275441 -38.27734375 16.75390625 C-49.01348795 15.90694376 -59.73643194 16.49413121 -68.27734375 23.75390625 C-70.60398968 27.66690169 -70.670696 31.2696906 -70.27734375 35.75390625 C-68.63143814 41.51457588 -65.16064841 43.37748938 -60.25537109 46.2355957 C-55.05529246 48.88679172 -49.58539476 50.57703021 -44.02734375 52.31640625 C-41.62347904 53.0956793 -39.21983061 53.87561986 -36.81640625 54.65625 C-34.63673292 55.35551293 -32.45704702 56.05473668 -30.27734375 56.75390625 C-14.79796931 61.77194522 0.20450842 67.77433536 8.69140625 82.51171875 C14.46211811 95.0586453 14.457045 109.89066135 9.72265625 122.75390625 C4.15639326 134.68408986 -5.25167486 143.46132541 -17.62890625 147.9765625 C-36.07266262 153.78447224 -56.92606854 154.24086865 -75.27734375 147.75390625 C-76.3240625 147.40328125 -77.37078125 147.05265625 -78.44921875 146.69140625 C-91.19761034 141.9355296 -101.15041515 133.62252657 -110.27734375 123.75390625 C-104.45105471 116.595894 -97.83904525 110.22798859 -91.27734375 103.75390625 C-88.0176654 105.180921 -85.91984573 106.94839359 -83.40234375 109.44140625 C-70.21640556 121.38708292 -54.71452335 123.74306883 -37.59423828 122.95361328 C-31.34305688 122.41478648 -25.74510105 120.46436622 -21.15234375 116.12890625 C-17.37980417 111.35035612 -17.69078369 106.66978343 -18.27734375 100.75390625 C-20.88036592 95.13137837 -25.56563861 91.41974984 -31.18112183 88.8994751 C-33.19735089 88.16878418 -35.22292798 87.5146791 -37.2734375 86.88671875 C-38.02464371 86.64404266 -38.77584991 86.40136658 -39.54981995 86.15133667 C-41.93459385 85.3821125 -44.32400835 84.62905783 -46.71484375 83.87890625 C-55.99720132 80.94905107 -65.18283103 77.97541883 -74.1171875 74.08984375 C-74.76570175 73.8090799 -75.414216 73.52831604 -76.0823822 73.23904419 C-81.49335144 70.81510663 -85.9945257 67.83496414 -90.27734375 63.75390625 C-90.84839844 63.21121094 -91.41945313 62.66851562 -92.0078125 62.109375 C-99.77231024 53.92310207 -101.60326522 43.28444588 -101.421875 32.3515625 C-100.78947532 20.98546018 -96.39094533 9.98270084 -88.51171875 1.6328125 C-64.79275466 -18.31268003 -24.97232975 -17.11452873 0 0 Z " fill="#000000" transform="translate(1046.27734375,256.24609375)"/>
<path d="M0 0 C3.66965254 3.0314521 5.59416357 5.48652515 7 10 C9.48154982 38.79751996 -5.16831534 68.96438182 -23 91 C-23.70769531 91.88300781 -24.41539062 92.76601563 -25.14453125 93.67578125 C-33.09633813 103.07590322 -43.51740628 109.75174063 -56 111 C-69.18770849 111.97247491 -81.11239383 108.37983414 -91.125 99.8125 C-100.37467858 91.10191312 -105.89653311 81.0096997 -106.47314453 68.11230469 C-106.66274478 53.64063496 -102.09913294 42.63549936 -92.23046875 32.11328125 C-73.71527234 14.8082284 -25.63126284 -14.62147039 0 0 Z " fill="#000000" transform="translate(262,299)"/>
<path d="M0 0 C5.14814203 1.02962841 5.94839667 1.47032187 9.3125 5.0625 C10.00988281 5.79597656 10.70726562 6.52945313 11.42578125 7.28515625 C11.94527344 7.85105469 12.46476562 8.41695312 13 9 C14.1055189 8.06409496 15.20935453 7.12620142 16.3125 6.1875 C16.92738281 5.66542969 17.54226563 5.14335937 18.17578125 4.60546875 C20.01591085 3.05721294 20.01591085 3.05721294 21.48046875 1.30078125 C23 0 23 0 27 0 C27 8.25 27 16.5 27 25 C24.36 25 21.72 25 19 25 C18.67 22.03 18.34 19.06 18 16 C17.01 16.99 16.02 17.98 15 19 C12.375 18.8125 12.375 18.8125 10 18 C9.67 17.34 9.34 16.68 9 16 C8.67 18.97 8.34 21.94 8 25 C5.36 25 2.72 25 0 25 C0 16.75 0 8.5 0 0 Z " fill="#000000" transform="translate(1032,194)"/>
<path d="M0 0 C7.26 0 14.52 0 22 0 C22 1.98 22 3.96 22 6 C19.69 6 17.38 6 15 6 C15 11.94 15 17.88 15 24 C12.36 24 9.72 24 7 24 C7 18.06 7 12.12 7 6 C4.69 6 2.38 6 0 6 C0 4.02 0 2.04 0 0 Z " fill="#000000" transform="translate(1009,195)"/>
</svg>
