<?xml version="1.0" standalone="no"?>
<!DOCTYPE svg PUBLIC "-//W3C//DTD SVG 20010904//EN"
 "http://www.w3.org/TR/2001/REC-SVG-20010904/DTD/svg10.dtd">
<svg version="1.0" xmlns="http://www.w3.org/2000/svg"
 width="1219.000000pt" height="500.000000pt" viewBox="0 0 1219.000000 500.000000"
 preserveAspectRatio="xMidYMid meet">

<g transform="translate(0.000000,500.000000) scale(0.100000,-0.100000)"
fill="#000000" stroke="none">
<path d="M1582 3432 c-9 -7 -12 -76 -10 -313 l3 -304 149 270 c82 149 160 289
174 313 l24 42 -164 0 c-89 0 -169 -4 -176 -8z"/>
<path d="M2130 3423 c0 -10 -7 -92 -15 -183 -15 -158 -15 -166 3 -190 l19 -25
277 -5 c260 -5 279 -6 292 -24 8 -11 14 -30 14 -42 0 -22 -497 -931 -528 -967
-22 -25 -70 -18 -93 13 -17 24 -17 34 5 285 25 281 24 303 -24 316 -14 4 -134
7 -267 8 l-243 1 0 -519 c0 -464 2 -520 16 -525 20 -8 1508 -8 1528 0 9 3 16
14 16 23 0 9 -110 174 -245 366 -135 192 -244 356 -243 364 2 8 81 81 177 161
191 160 236 215 271 327 37 119 22 265 -38 377 -36 68 -135 167 -201 200 -93
47 -160 56 -453 56 -249 0 -268 -1 -268 -17z"/>
<path d="M3750 2555 l0 -605 130 0 130 0 2 248 c3 206 5 247 17 247 8 0 95
-111 194 -247 l179 -248 159 0 160 0 -94 123 c-52 67 -137 178 -190 247 -53
69 -97 128 -97 131 0 4 13 9 29 12 102 21 214 115 249 210 64 170 -10 357
-171 437 -83 41 -163 49 -454 50 l-243 0 0 -605z m548 372 c97 -52 97 -213 0
-263 -25 -13 -61 -17 -158 -18 l-125 -1 -3 140 c-1 76 0 145 3 153 8 22 238
13 283 -11z"/>
<path d="M6377 3154 c-4 -4 -7 -277 -7 -606 l0 -598 135 0 135 0 0 261 c0 246
1 264 20 295 26 42 93 69 145 60 20 -4 53 -22 73 -41 l37 -33 3 -271 3 -271
130 0 130 0 -3 318 -3 317 -30 53 c-57 105 -151 156 -285 156 -84 0 -102 -5
-212 -62 -4 -2 -9 92 -10 210 l-3 213 -126 3 c-69 1 -128 -1 -132 -4z"/>
<path d="M5005 2786 c-199 -48 -335 -219 -335 -421 0 -186 114 -346 288 -406
163 -56 364 -25 478 75 l39 35 -71 71 -71 72 -42 -30 c-125 -91 -315 -50 -355
76 l-7 22 298 2 298 3 5 40 c5 39 6 38 13 -22 11 -84 64 -188 126 -246 170
-159 450 -170 616 -24 l40 36 -81 81 -81 82 -43 -28 c-32 -21 -57 -29 -104
-32 -144 -9 -230 100 -202 253 22 116 195 175 304 103 l39 -26 82 82 82 83
-36 31 c-48 43 -102 69 -177 87 -257 60 -511 -90 -561 -333 l-11 -57 -8 59
c-31 238 -274 393 -523 332z m191 -205 c41 -19 75 -57 88 -98 l7 -23 -180 0
c-100 0 -181 2 -181 5 0 4 6 18 14 33 45 87 160 125 252 83z"/>
<path d="M7553 2790 c-115 -24 -222 -109 -273 -215 -59 -123 -61 -291 -5 -412
28 -63 103 -145 163 -180 48 -28 137 -53 192 -53 53 0 145 26 190 55 l40 25 0
-30 0 -30 130 0 130 0 0 415 0 415 -130 0 -130 0 0 -30 c0 -32 -11 -38 -29
-16 -36 43 -190 75 -278 56z m204 -245 c50 -21 72 -42 94 -90 52 -112 -10
-261 -117 -281 -95 -18 -179 22 -215 100 -33 72 -20 175 29 230 45 50 141 69
209 41z"/>
<path d="M8630 2790 c-24 -6 -66 -23 -92 -39 l-48 -30 0 29 0 30 -130 0 -130
0 0 -415 0 -415 129 0 129 0 4 258 c4 286 8 306 71 339 40 21 119 21 152 -1
24 -16 24 -16 101 79 67 84 75 97 63 112 -37 44 -162 71 -249 53z"/>
<path d="M9130 2790 c-115 -24 -217 -106 -272 -219 -58 -115 -50 -291 17 -406
99 -168 325 -237 497 -152 l50 25 -4 -62 c-7 -107 -64 -156 -190 -164 -83 -5
-150 16 -207 65 l-43 36 -80 -80 -81 -81 44 -43 c53 -53 125 -93 204 -114 73
-19 232 -19 300 -1 123 33 235 120 280 219 39 85 45 159 45 575 l0 392 -130 0
-130 0 0 -24 0 -25 -62 29 c-71 33 -166 45 -238 30z m197 -235 c50 -21 72 -42
94 -90 57 -124 -25 -254 -159 -255 -60 0 -95 15 -133 57 -85 92 -50 247 66
288 52 19 87 18 132 0z"/>
<path d="M10070 2782 c-87 -23 -146 -59 -213 -131 -71 -77 -98 -146 -105 -262
-12 -224 126 -402 346 -448 149 -31 327 11 421 99 l34 32 -70 70 -70 70 -42
-30 c-86 -63 -220 -65 -297 -7 -32 25 -64 72 -64 95 0 7 95 10 294 10 259 0
295 2 300 16 12 31 6 161 -10 215 -63 217 -288 333 -524 271z m225 -212 c18
-11 43 -40 54 -63 l21 -42 -176 -3 c-97 -1 -179 -1 -181 2 -7 7 24 60 50 84
58 54 164 64 232 22z"/>
</g>
</svg>
