<svg version="1.1" id="Layer_1" xmlns="http://www.w3.org/2000/svg" xmlns:xlink="http://www.w3.org/1999/xlink" x="0px" y="0px"
	 width="100%" viewBox="0 0 3000 896" enable-background="new 0 0 3000 896" xml:space="preserve">
<path fill="#FFFFFF" opacity="1.000000" stroke="none" 
	d="
M1950.000000,897.000000 
	C1300.000000,897.000000 650.500000,897.000000 1.000000,897.000000 
	C1.000000,598.333313 1.000000,299.666656 1.000000,1.000000 
	C1001.000000,1.000000 2001.000000,1.000000 3001.000000,1.000000 
	C3001.000000,299.666656 3001.000000,598.333313 3001.000000,897.000000 
	C2650.833252,897.000000 2300.666748,897.000000 1950.000000,897.000000 
M8.000388,353.500000 
	C8.000388,508.746155 8.000388,663.992310 8.000388,819.254639 
	C63.953964,819.254639 119.234741,819.254639 175.117035,819.254639 
	C175.117035,737.173950 175.117035,655.302795 175.117035,573.165283 
	C189.195267,573.165283 202.675201,573.017273 216.150848,573.194763 
	C248.416885,573.619690 273.607300,586.929626 288.985504,615.711609 
	C297.649292,631.926941 305.908173,648.644775 311.796844,666.002258 
	C328.504364,715.249329 343.953979,764.924316 359.702118,814.493286 
	C360.928619,818.353821 362.446289,819.580322 366.520660,819.568848 
	C421.014465,819.415955 475.508881,819.468933 530.003113,819.454834 
	C531.710083,819.454407 533.417053,819.282349 535.473206,819.171448 
	C535.015503,817.551819 534.810608,816.588013 534.474670,815.672180 
	C512.334534,755.309875 490.306244,694.906067 467.975616,634.614258 
	C458.632721,609.388794 449.276093,584.134399 438.768738,559.384277 
	C428.965973,536.294006 412.578400,519.459351 387.411285,512.799011 
	C386.853180,512.651367 386.399414,512.109436 385.882690,511.741241 
	C386.227692,511.287811 386.373169,510.879578 386.616547,510.808960 
	C391.081116,509.513794 395.587677,508.356781 400.026428,506.980408 
	C437.605469,495.327820 467.914856,474.344543 486.676849,438.828217 
	C498.394348,416.647095 503.415039,392.651764 504.816284,367.820190 
	C506.111603,344.865784 504.330872,322.251007 496.381653,300.425232 
	C482.258606,261.648224 454.564941,235.917801 417.821991,219.048691 
	C382.517548,202.840027 344.990753,197.160309 306.546967,197.073578 
	C208.891129,196.853271 111.234467,197.000351 13.578140,197.000351 
	C11.810742,197.000351 10.043344,197.000351 8.000388,197.000351 
	C8.000388,249.229538 8.000388,300.864777 8.000388,353.500000 
M2628.968262,9.477179 
	C2618.106934,11.061478 2607.102295,11.990940 2596.406494,14.331566 
	C2491.245850,37.344452 2413.804932,96.736450 2364.126465,192.224213 
	C2362.281006,195.771576 2360.389404,197.113464 2356.306152,197.102982 
	C2297.308838,196.951385 2238.310547,196.999161 2179.312744,196.999161 
	C2177.377197,196.999161 2175.441650,196.999176 2173.356689,196.999176 
	C2173.356689,404.710724 2173.356689,611.804810 2173.356689,819.167847 
	C2380.756348,819.167847 2587.956055,819.167847 2795.540039,819.167847 
	C2795.540039,816.824585 2795.540039,814.850769 2795.540039,812.877014 
	C2795.540039,758.712280 2795.598389,704.547302 2795.429199,650.383118 
	C2795.415527,646.059387 2796.729980,644.015259 2800.632324,642.233154 
	C2843.499512,622.658264 2880.784668,595.309448 2911.438965,559.560181 
	C2978.341309,481.539124 3004.805664,391.223480 2989.989014,289.566132 
	C2978.967773,213.949860 2944.729004,149.628922 2888.763916,97.766502 
	C2815.803223,30.154289 2728.928467,1.480204 2628.968262,9.477179 
M1679.500000,563.164001 
	C1741.113281,563.164001 1802.726562,563.164001 1864.533936,563.164001 
	C1864.533936,523.089478 1864.533936,483.526001 1864.533936,443.447998 
	C1779.148560,443.447998 1694.069092,443.447998 1608.745850,443.447998 
	C1608.745850,401.024384 1608.745850,359.115997 1608.745850,316.727478 
	C1699.939331,316.727478 1790.854736,316.727478 1881.952515,316.727478 
	C1881.952515,276.658997 1881.952515,237.070892 1881.952515,197.350922 
	C1735.886475,197.350922 1590.032349,197.350922 1444.228882,197.350922 
	C1444.228882,404.800720 1444.228882,611.899841 1444.228882,819.231873 
	C1593.515625,819.231873 1742.573364,819.231873 1891.764893,819.231873 
	C1891.764893,780.140686 1891.764893,741.285400 1891.764893,702.106079 
	C1797.250122,702.106079 1703.133911,702.106079 1608.785645,702.106079 
	C1608.785645,655.707336 1608.785645,609.634766 1608.785645,563.164001 
	C1632.235107,563.164001 1655.367554,563.164001 1679.500000,563.164001 
M1345.118042,676.583923 
	C1350.624023,651.633301 1351.533325,626.411072 1349.045044,601.076477 
	C1344.434814,554.135132 1323.902466,516.102539 1285.151978,488.492340 
	C1260.070557,470.621613 1231.960205,459.110291 1202.796753,450.058624 
	C1173.913818,441.094055 1144.764160,432.986786 1115.904419,423.951233 
	C1099.841187,418.922150 1084.305542,412.389465 1071.493408,400.924377 
	C1051.871948,383.365631 1051.195679,352.675842 1070.020874,334.165894 
	C1081.268066,323.107147 1095.527954,318.130371 1110.506592,315.059509 
	C1135.630859,309.908630 1161.058594,309.523010 1186.580811,310.817505 
	C1223.434448,312.686768 1259.141113,319.807983 1293.437256,333.604858 
	C1297.399170,335.198639 1301.349731,336.820618 1305.817017,338.637573 
	C1309.399048,295.486023 1312.929443,252.956299 1316.465454,210.357559 
	C1313.769409,209.449341 1311.593628,208.657364 1309.382812,207.980392 
	C1263.675415,193.984375 1216.677856,188.516174 1169.114380,187.225220 
	C1138.270264,186.388077 1107.531982,188.184464 1077.022583,193.037949 
	C1040.481323,198.850998 1005.213989,208.689987 972.732910,226.936371 
	C936.343262,247.378357 909.031677,275.909332 895.070190,315.902435 
	C884.831238,345.232208 883.265869,375.435303 886.902771,406.076782 
	C892.263550,451.241852 912.448120,487.815369 949.612976,514.595581 
	C974.046082,532.201538 1001.452759,543.662476 1029.813599,552.987427 
	C1056.957642,561.912354 1084.366821,570.035583 1111.467285,579.086792 
	C1128.858643,584.895386 1145.627563,592.289246 1159.711426,604.524231 
	C1183.421021,625.121155 1186.046753,662.289246 1165.209473,683.489136 
	C1154.144775,694.746582 1139.919678,699.831482 1124.914551,702.940674 
	C1099.574585,708.191223 1073.955200,707.943604 1048.309204,706.110962 
	C1003.232788,702.889832 960.029175,692.299805 919.094543,672.922729 
	C914.811035,670.895081 910.567810,668.782410 905.715820,666.422058 
	C900.925110,712.550720 896.204773,758.001465 891.480835,803.487061 
	C893.084961,804.087463 894.141052,804.550049 895.236633,804.882996 
	C936.335327,817.373779 978.473572,824.272461 1021.176331,827.910217 
	C1057.076538,830.968506 1093.011230,831.273987 1128.937134,828.067139 
	C1162.553467,825.066406 1195.539795,819.013123 1227.158325,806.897827 
	C1288.122437,783.538330 1330.280151,742.926697 1345.118042,676.583923 
M617.835632,712.500000 
	C617.835632,748.082397 617.835632,783.664856 617.835632,819.157471 
	C673.839355,819.157471 729.095398,819.157471 784.530151,819.157471 
	C784.530151,611.672668 784.530151,404.497498 784.530151,197.332230 
	C728.825928,197.332230 673.434082,197.332230 617.835571,197.332230 
	C617.835571,368.942902 617.835571,540.221436 617.835632,712.500000 
z"/>
<path fill="#1C3F94" opacity="1.000000" stroke="none" 
	d="
M8.000388,353.000000 
	C8.000388,300.864777 8.000388,249.229538 8.000388,197.000351 
	C10.043344,197.000351 11.810742,197.000351 13.578140,197.000351 
	C111.234467,197.000351 208.891129,196.853271 306.546967,197.073578 
	C344.990753,197.160309 382.517548,202.840027 417.821991,219.048691 
	C454.564941,235.917801 482.258606,261.648224 496.381653,300.425232 
	C504.330872,322.251007 506.111603,344.865784 504.816284,367.820190 
	C503.415039,392.651764 498.394348,416.647095 486.676849,438.828217 
	C467.914856,474.344543 437.605469,495.327820 400.026428,506.980408 
	C395.587677,508.356781 391.081116,509.513794 386.616547,510.808960 
	C386.373169,510.879578 386.227692,511.287811 385.882690,511.741241 
	C386.399414,512.109436 386.853180,512.651367 387.411285,512.799011 
	C412.578400,519.459351 428.965973,536.294006 438.768738,559.384277 
	C449.276093,584.134399 458.632721,609.388794 467.975616,634.614258 
	C490.306244,694.906067 512.334534,755.309875 534.474670,815.672180 
	C534.810608,816.588013 535.015503,817.551819 535.473206,819.171448 
	C533.417053,819.282349 531.710083,819.454407 530.003113,819.454834 
	C475.508881,819.468933 421.014465,819.415955 366.520660,819.568848 
	C362.446289,819.580322 360.928619,818.353821 359.702118,814.493286 
	C343.953979,764.924316 328.504364,715.249329 311.796844,666.002258 
	C305.908173,648.644775 297.649292,631.926941 288.985504,615.711609 
	C273.607300,586.929626 248.416885,573.619690 216.150848,573.194763 
	C202.675201,573.017273 189.195267,573.165283 175.117035,573.165283 
	C175.117035,655.302795 175.117035,737.173950 175.117035,819.254639 
	C119.234741,819.254639 63.953964,819.254639 8.000388,819.254639 
	C8.000388,663.992310 8.000388,508.746155 8.000388,353.000000 
M231.482697,314.999817 
	C212.746750,314.999817 194.010788,314.999817 175.391479,314.999817 
	C175.391479,362.008179 175.391479,408.514465 175.391479,455.056458 
	C196.761185,455.056458 217.764664,455.688324 238.708908,454.846649 
	C254.092651,454.228363 269.533997,452.446960 284.701202,449.773987 
	C299.637207,447.141815 313.399261,440.854218 323.694397,429.163177 
	C339.697418,410.990356 341.941162,389.311401 337.251923,366.766083 
	C332.613342,344.464233 316.541748,332.376709 296.265533,325.003448 
	C275.674347,317.515656 254.118835,315.910492 231.482697,314.999817 
z"/>
<path fill="#1D4094" opacity="1.000000" stroke="none" 
	d="
M2629.423828,9.414131 
	C2728.928467,1.480204 2815.803223,30.154289 2888.763916,97.766502 
	C2944.729004,149.628922 2978.967773,213.949860 2989.989014,289.566132 
	C3004.805664,391.223480 2978.341309,481.539124 2911.438965,559.560181 
	C2880.784668,595.309448 2843.499512,622.658264 2800.632324,642.233154 
	C2796.729980,644.015259 2795.415527,646.059387 2795.429199,650.383118 
	C2795.598389,704.547302 2795.540039,758.712280 2795.540039,812.877014 
	C2795.540039,814.850769 2795.540039,816.824585 2795.540039,819.167847 
	C2587.956055,819.167847 2380.756348,819.167847 2173.356689,819.167847 
	C2173.356689,611.804810 2173.356689,404.710724 2173.356689,196.999176 
	C2175.441650,196.999176 2177.377197,196.999161 2179.312744,196.999161 
	C2238.310547,196.999161 2297.308838,196.951385 2356.306152,197.102982 
	C2360.389404,197.113464 2362.281006,195.771576 2364.126465,192.224213 
	C2413.804932,96.736450 2491.245850,37.344452 2596.406494,14.331566 
	C2607.102295,11.990940 2618.106934,11.061478 2629.423828,9.414131 
M2795.537842,340.499817 
	C2795.537842,431.555389 2795.537842,522.610962 2795.537842,613.978699 
	C2902.487549,564.023254 2990.539551,435.031616 2960.926758,281.231293 
	C2934.388184,143.398743 2812.450439,34.319275 2659.265137,35.327915 
	C2585.133301,35.816025 2519.498047,60.793911 2462.960205,108.902382 
	C2433.988281,133.554779 2410.643066,162.802658 2392.279785,197.223984 
	C2527.358154,197.223984 2661.259033,197.223984 2795.537598,197.223984 
	C2795.537598,244.901703 2795.537598,292.200745 2795.537842,340.499817 
M2579.500000,311.459412 
	C2454.950195,311.459412 2330.400391,311.459412 2205.772461,311.459412 
	C2205.772461,345.937103 2205.772461,379.682465 2205.772461,413.585876 
	C2364.281006,413.585876 2522.476807,413.585876 2680.785156,413.585876 
	C2680.785156,379.482330 2680.785156,345.635773 2680.785156,311.459656 
	C2647.102539,311.459656 2613.801270,311.459656 2579.500000,311.459412 
M2440.500000,662.841614 
	C2520.584473,662.841614 2600.668701,662.841614 2680.958008,662.841614 
	C2680.958008,628.507690 2680.958008,594.748169 2680.958008,560.860840 
	C2522.425781,560.860840 2364.102783,560.860840 2205.800781,560.860840 
	C2205.800781,595.013184 2205.800781,628.762756 2205.800781,662.841553 
	C2283.927490,662.841553 2361.713867,662.841553 2440.500000,662.841614 
M2230.500000,538.162964 
	C2380.595947,538.162964 2530.691650,538.162964 2680.897461,538.162964 
	C2680.897461,503.852325 2680.897461,470.118439 2680.897461,436.257904 
	C2522.385254,436.257904 2364.137939,436.257904 2205.820557,436.257904 
	C2205.820557,470.251648 2205.820557,503.987976 2205.820557,538.162964 
	C2213.904053,538.162964 2221.702148,538.162964 2230.500000,538.162964 
M2550.500000,787.162964 
	C2593.933838,787.162964 2637.367676,787.162964 2680.891113,787.162964 
	C2680.891113,752.840698 2680.891113,719.107117 2680.891113,685.262329 
	C2522.371826,685.262329 2364.124268,685.262329 2205.827393,685.262329 
	C2205.827393,719.261047 2205.827393,752.997803 2205.827393,787.162964 
	C2320.583252,787.162964 2435.041504,787.162964 2550.500000,787.162964 
z"/>
<path fill="#1C3F94" opacity="1.000000" stroke="none" 
	d="
M1679.000000,563.164001 
	C1655.367554,563.164001 1632.235107,563.164001 1608.785645,563.164001 
	C1608.785645,609.634766 1608.785645,655.707336 1608.785645,702.106079 
	C1703.133911,702.106079 1797.250122,702.106079 1891.764893,702.106079 
	C1891.764893,741.285400 1891.764893,780.140686 1891.764893,819.231873 
	C1742.573364,819.231873 1593.515625,819.231873 1444.228882,819.231873 
	C1444.228882,611.899841 1444.228882,404.800720 1444.228882,197.350922 
	C1590.032349,197.350922 1735.886475,197.350922 1881.952515,197.350922 
	C1881.952515,237.070892 1881.952515,276.658997 1881.952515,316.727478 
	C1790.854736,316.727478 1699.939331,316.727478 1608.745850,316.727478 
	C1608.745850,359.115997 1608.745850,401.024384 1608.745850,443.447998 
	C1694.069092,443.447998 1779.148560,443.447998 1864.533936,443.447998 
	C1864.533936,483.526001 1864.533936,523.089478 1864.533936,563.164001 
	C1802.726562,563.164001 1741.113281,563.164001 1679.000000,563.164001 
z"/>
<path fill="#1C3F94" opacity="1.000000" stroke="none" 
	d="
M1345.061401,677.000183 
	C1330.280151,742.926697 1288.122437,783.538330 1227.158325,806.897827 
	C1195.539795,819.013123 1162.553467,825.066406 1128.937134,828.067139 
	C1093.011230,831.273987 1057.076538,830.968506 1021.176331,827.910217 
	C978.473572,824.272461 936.335327,817.373779 895.236633,804.882996 
	C894.141052,804.550049 893.084961,804.087463 891.480835,803.487061 
	C896.204773,758.001465 900.925110,712.550720 905.715820,666.422058 
	C910.567810,668.782410 914.811035,670.895081 919.094543,672.922729 
	C960.029175,692.299805 1003.232788,702.889832 1048.309204,706.110962 
	C1073.955200,707.943604 1099.574585,708.191223 1124.914551,702.940674 
	C1139.919678,699.831482 1154.144775,694.746582 1165.209473,683.489136 
	C1186.046753,662.289246 1183.421021,625.121155 1159.711426,604.524231 
	C1145.627563,592.289246 1128.858643,584.895386 1111.467285,579.086792 
	C1084.366821,570.035583 1056.957642,561.912354 1029.813599,552.987427 
	C1001.452759,543.662476 974.046082,532.201538 949.612976,514.595581 
	C912.448120,487.815369 892.263550,451.241852 886.902771,406.076782 
	C883.265869,375.435303 884.831238,345.232208 895.070190,315.902435 
	C909.031677,275.909332 936.343262,247.378357 972.732910,226.936371 
	C1005.213989,208.689987 1040.481323,198.850998 1077.022583,193.037949 
	C1107.531982,188.184464 1138.270264,186.388077 1169.114380,187.225220 
	C1216.677856,188.516174 1263.675415,193.984375 1309.382812,207.980392 
	C1311.593628,208.657364 1313.769409,209.449341 1316.465454,210.357559 
	C1312.929443,252.956299 1309.399048,295.486023 1305.817017,338.637573 
	C1301.349731,336.820618 1297.399170,335.198639 1293.437256,333.604858 
	C1259.141113,319.807983 1223.434448,312.686768 1186.580811,310.817505 
	C1161.058594,309.523010 1135.630859,309.908630 1110.506592,315.059509 
	C1095.527954,318.130371 1081.268066,323.107147 1070.020874,334.165894 
	C1051.195679,352.675842 1051.871948,383.365631 1071.493408,400.924377 
	C1084.305542,412.389465 1099.841187,418.922150 1115.904419,423.951233 
	C1144.764160,432.986786 1173.913818,441.094055 1202.796753,450.058624 
	C1231.960205,459.110291 1260.070557,470.621613 1285.151978,488.492340 
	C1323.902466,516.102539 1344.434814,554.135132 1349.045044,601.076477 
	C1351.533325,626.411072 1350.624023,651.633301 1345.061401,677.000183 
z"/>
<path fill="#1C3F94" opacity="1.000000" stroke="none" 
	d="
M617.835571,712.000000 
	C617.835571,540.221436 617.835571,368.942902 617.835571,197.332230 
	C673.434082,197.332230 728.825928,197.332230 784.530151,197.332230 
	C784.530151,404.497498 784.530151,611.672668 784.530151,819.157471 
	C729.095398,819.157471 673.839355,819.157471 617.835632,819.157471 
	C617.835632,783.664856 617.835632,748.082397 617.835571,712.000000 
z"/>
<path fill="#FFFFFF" opacity="1.000000" stroke="none" 
	d="
M231.978378,315.000427 
	C254.118835,315.910492 275.674347,317.515656 296.265533,325.003448 
	C316.541748,332.376709 332.613342,344.464233 337.251923,366.766083 
	C341.941162,389.311401 339.697418,410.990356 323.694397,429.163177 
	C313.399261,440.854218 299.637207,447.141815 284.701202,449.773987 
	C269.533997,452.446960 254.092651,454.228363 238.708908,454.846649 
	C217.764664,455.688324 196.761185,455.056458 175.391479,455.056458 
	C175.391479,408.514465 175.391479,362.008179 175.391479,314.999817 
	C194.010788,314.999817 212.746750,314.999817 231.978378,315.000427 
z"/>
<path fill="#FFF203" opacity="1.000000" stroke="none" 
	d="
M2795.537598,339.999817 
	C2795.537598,292.200745 2795.537598,244.901703 2795.537598,197.223984 
	C2661.259033,197.223984 2527.358154,197.223984 2392.279785,197.223984 
	C2410.643066,162.802658 2433.988281,133.554779 2462.960205,108.902382 
	C2519.498047,60.793911 2585.133301,35.816025 2659.265137,35.327915 
	C2812.450439,34.319275 2934.388184,143.398743 2960.926758,281.231293 
	C2990.539551,435.031616 2902.487549,564.023254 2795.537842,613.978699 
	C2795.537842,522.610962 2795.537842,431.555389 2795.537598,339.999817 
z"/>
<path fill="#FDF104" opacity="1.000000" stroke="none" 
	d="
M2580.000000,311.459534 
	C2613.801270,311.459656 2647.102539,311.459656 2680.785156,311.459656 
	C2680.785156,345.635773 2680.785156,379.482330 2680.785156,413.585876 
	C2522.476807,413.585876 2364.281006,413.585876 2205.772461,413.585876 
	C2205.772461,379.682465 2205.772461,345.937103 2205.772461,311.459412 
	C2330.400391,311.459412 2454.950195,311.459412 2580.000000,311.459534 
z"/>
<path fill="#FDF104" opacity="1.000000" stroke="none" 
	d="
M2440.000000,662.841553 
	C2361.713867,662.841553 2283.927490,662.841553 2205.800781,662.841553 
	C2205.800781,628.762756 2205.800781,595.013184 2205.800781,560.860840 
	C2364.102783,560.860840 2522.425781,560.860840 2680.958008,560.860840 
	C2680.958008,594.748169 2680.958008,628.507690 2680.958008,662.841614 
	C2600.668701,662.841614 2520.584473,662.841614 2440.000000,662.841553 
z"/>
<path fill="#FFF203" opacity="1.000000" stroke="none" 
	d="
M2230.000000,538.162964 
	C2221.702148,538.162964 2213.904053,538.162964 2205.820557,538.162964 
	C2205.820557,503.987976 2205.820557,470.251648 2205.820557,436.257904 
	C2364.137939,436.257904 2522.385254,436.257904 2680.897461,436.257904 
	C2680.897461,470.118439 2680.897461,503.852325 2680.897461,538.162964 
	C2530.691650,538.162964 2380.595947,538.162964 2230.000000,538.162964 
z"/>
<path fill="#FFF203" opacity="1.000000" stroke="none" 
	d="
M2550.000000,787.162964 
	C2435.041504,787.162964 2320.583252,787.162964 2205.827393,787.162964 
	C2205.827393,752.997803 2205.827393,719.261047 2205.827393,685.262329 
	C2364.124268,685.262329 2522.371826,685.262329 2680.891113,685.262329 
	C2680.891113,719.107117 2680.891113,752.840698 2680.891113,787.162964 
	C2637.367676,787.162964 2593.933838,787.162964 2550.000000,787.162964 
z"/>
</svg>