<svg version="1.1" id="Layer_1" xmlns="http://www.w3.org/2000/svg" xmlns:xlink="http://www.w3.org/1999/xlink" x="0px" y="0px"
	 width="100%" viewBox="0 0 1085 755" enable-background="new 0 0 1085 755" xml:space="preserve">
<path fill="#FFFFFF" opacity="1.000000" stroke="none" 
	d="
M775.000000,756.000000 
	C516.666687,756.000000 258.833374,756.000000 1.000035,756.000000 
	C1.000023,504.333374 1.000023,252.666733 1.000012,1.000068 
	C362.666626,1.000046 724.333252,1.000046 1086.000000,1.000023 
	C1086.000000,252.666611 1086.000000,504.333221 1086.000000,755.999878 
	C982.500000,756.000000 879.000000,756.000000 775.000000,756.000000 
M680.282776,659.284363 
	C678.150208,659.295593 676.016479,659.264771 673.885315,659.325439 
	C665.429626,659.565857 660.356873,663.851624 657.888123,673.004333 
	C656.940674,673.208740 655.993347,673.590637 655.045715,673.591736 
	C627.063110,673.623596 599.080566,673.621094 571.097961,673.601807 
	C570.217346,673.601196 569.336853,673.366272 568.971558,673.314087 
	C573.951721,669.592773 579.009949,665.813171 584.005920,662.006714 
	C584.005920,662.006714 583.998779,662.074097 584.651917,661.949585 
	C584.948975,661.621582 585.245972,661.293518 586.073730,660.637512 
	C587.059753,659.304260 588.044678,657.970215 589.032043,656.637939 
	C601.590332,639.692444 601.667786,617.552551 589.226196,601.053467 
	C576.818848,584.599792 555.156433,578.278564 535.736084,586.191833 
	C530.639099,588.268677 526.448730,592.570679 521.160339,595.922852 
	C520.381653,596.497070 519.500671,596.972839 518.839050,597.659851 
	C497.996063,619.301575 504.203033,655.796326 531.112549,669.920105 
	C532.784119,670.797302 534.464417,671.657776 537.276428,673.114441 
	C534.893799,673.379578 533.822266,673.603271 532.750671,673.603149 
	C449.801636,673.594788 366.852631,673.568909 283.741058,672.910828 
	C280.935791,663.270447 276.498199,659.927002 266.466400,659.862061 
	C264.639801,659.850281 262.813751,659.755615 260.997650,658.852539 
	C261.341339,654.214478 261.685028,649.576355 262.496857,644.408386 
	C263.340424,642.866699 264.705536,641.402527 264.947876,639.771484 
	C267.734131,621.020996 270.334229,602.243042 273.014923,583.476807 
	C276.541412,558.789734 280.095642,534.106567 284.044189,508.759430 
	C284.703949,507.108887 285.363708,505.458344 286.819885,503.943176 
	C293.646484,506.010254 294.294098,505.716766 297.766052,499.108582 
	C299.205627,496.368561 300.685211,493.649536 302.657654,491.353546 
	C304.032562,492.981995 305.195068,494.874512 306.825226,496.185577 
	C310.584686,499.209045 315.760925,498.659912 319.422119,495.158295 
	C323.246246,491.500793 323.884125,486.778961 321.050629,482.658813 
	C318.347687,478.728424 315.591125,474.834869 313.054962,470.240356 
	C317.307617,461.960114 321.568237,453.683899 325.810120,445.398132 
	C328.547333,440.051422 328.007660,438.298126 322.711121,435.444214 
	C313.799103,430.642151 304.872528,425.867096 295.914215,420.335907 
	C289.679688,407.226044 286.233459,392.914978 277.217834,380.960571 
	C269.595490,370.853638 260.413696,364.877258 247.745880,363.949066 
	C234.798447,363.000427 223.898087,368.860901 215.395554,376.830292 
	C206.207321,385.442352 199.269638,396.605194 192.080139,407.152893 
	C186.289764,415.647888 189.397614,425.808105 198.233612,431.123535 
	C201.638351,433.171722 205.002930,435.356628 208.068848,437.866394 
	C209.445786,438.993530 210.775879,441.026245 210.880875,442.725006 
	C211.750885,456.801636 212.329071,470.896332 212.420059,485.566406 
	C207.695557,537.512329 202.988785,589.459839 198.214584,641.401184 
	C197.810272,645.800049 199.635696,647.980469 203.905197,649.231567 
	C203.906448,652.707947 203.907700,656.184326 203.065659,659.842590 
	C202.422913,660.719116 201.282135,661.564636 201.225250,662.477661 
	C201.000870,666.079834 201.116745,669.703186 200.181931,673.572998 
	C174.017151,673.572998 147.852371,673.572998 121.687592,673.572998 
	C121.692131,674.318665 121.696663,675.064270 121.701202,675.809937 
	C148.141403,675.809937 174.581619,675.809937 201.947906,675.942566 
	C214.625214,675.898804 227.302505,675.854980 240.808594,675.986023 
	C242.212479,675.927734 243.616348,675.869446 245.946472,675.942749 
	C258.555481,675.897583 271.164520,675.852417 284.599121,675.982117 
	C509.973816,675.989685 735.348511,675.997192 960.723206,676.004272 
	C961.556030,676.004333 962.425781,676.146790 963.211182,675.952148 
	C963.971680,675.763733 964.645386,675.225342 965.357239,674.840698 
	C965.286316,674.449341 965.215332,674.058044 965.144409,673.666748 
	C963.377991,673.666748 961.611633,673.666748 959.845215,673.666748 
	C934.859070,673.666687 909.872925,673.699341 884.886841,673.654419 
	C869.902222,673.627441 854.917908,673.479309 840.037354,672.617798 
	C841.529968,671.742676 842.946167,670.685486 844.527344,670.021240 
	C857.205688,664.695496 870.297668,660.198120 882.525940,653.994202 
	C901.183350,644.528564 915.731445,630.586731 924.095093,610.857971 
	C932.090393,591.998108 930.883118,573.657471 919.828735,556.683044 
	C914.169617,547.993286 906.376709,540.693054 900.305176,533.643738 
	C917.439697,536.920349 927.828491,524.413696 928.833252,514.028076 
	C930.515747,496.636475 920.594727,486.013489 904.044373,485.962677 
	C896.735229,485.940247 891.343872,489.370453 886.881104,494.657410 
	C878.562561,504.512421 880.218262,514.924927 886.443726,525.685669 
	C884.903442,525.537292 884.372314,525.623779 883.981689,525.428833 
	C860.656738,513.786804 835.188293,511.274139 809.897888,507.992371 
	C799.743347,506.674652 789.595825,505.303436 779.142822,503.161316 
	C775.661072,485.937988 772.179260,468.714691 768.603516,451.026337 
	C768.902039,450.753723 769.781311,450.013580 770.589844,449.202942 
	C778.677673,441.093750 786.787842,433.006378 794.821716,424.844025 
	C800.486877,419.088409 801.533081,409.201569 795.876221,403.514557 
	C784.300720,391.877319 772.023193,380.938293 760.040161,369.004822 
	C758.448792,367.230865 757.178833,364.869019 755.207031,363.791077 
	C748.812073,360.295258 741.636719,360.050385 734.806946,361.497894 
	C731.195801,362.263184 725.495972,361.687469 724.363708,368.167358 
	C721.744446,370.433746 719.124146,372.699005 716.506042,374.966766 
	C710.078247,380.534515 703.651428,386.103394 696.973022,391.889435 
	C692.338257,384.283020 688.484924,377.520691 684.136536,371.093292 
	C682.854492,369.198334 680.172852,368.250305 677.947510,366.182129 
	C675.248352,360.756989 672.169617,355.479889 669.976501,349.857330 
	C668.372986,345.746521 666.144165,342.722717 662.449524,340.368500 
	C665.351318,334.767090 668.558289,329.300262 671.098816,323.539490 
	C679.367493,304.789734 683.077637,285.368317 680.195862,264.758270 
	C678.054749,249.445831 673.291809,235.076019 667.008362,220.252045 
	C667.314819,218.963791 667.776917,217.690796 667.904785,216.385056 
	C670.374329,191.171478 662.167175,169.647446 643.837341,152.599411 
	C625.809570,135.832367 603.317871,129.307465 579.140137,128.038391 
	C574.116638,127.774712 569.067444,128.000107 562.998840,128.000107 
	C580.986572,118.368027 581.645874,100.994728 573.542847,90.194267 
	C565.683594,79.718697 549.143677,77.751968 539.260620,86.320015 
	C534.771057,90.212219 531.658325,94.947083 530.954407,101.156334 
	C529.418701,114.702911 535.656860,123.554451 547.570557,128.324570 
	C529.626892,133.380722 511.836761,137.416306 494.734650,143.413971 
	C457.935913,156.319153 421.400635,170.074554 382.960785,177.353821 
	C363.504700,181.038147 343.763489,183.232559 324.132446,185.966064 
	C318.895782,186.695236 313.582977,186.859848 308.317474,187.402954 
	C293.743805,188.906219 279.411163,188.428070 266.103851,181.448715 
	C262.594208,179.608002 259.631989,176.723495 255.938644,173.959183 
	C258.062775,172.227936 259.134460,171.234787 260.321045,170.406219 
	C270.232513,163.485260 274.179291,150.787018 269.190002,140.561234 
	C264.104553,130.138336 252.892532,123.833656 240.112778,127.458397 
	C229.430710,130.488144 221.435944,142.277664 223.079132,153.131119 
	C224.897675,165.142914 234.577667,174.457764 246.483368,174.073502 
	C248.655121,174.003403 251.654343,174.048691 252.917709,175.352539 
	C264.107117,186.900497 278.123901,191.023651 293.554626,190.890121 
	C304.304169,190.797089 315.096313,190.124664 325.777344,188.904633 
	C342.180481,187.031006 358.522858,184.587097 374.853424,182.134903 
	C381.981049,181.064621 389.015686,179.374893 396.475311,177.890305 
	C387.230408,193.350372 388.010895,206.963425 398.245514,214.563232 
	C408.906250,222.479446 422.193726,221.666489 430.874237,212.646851 
	C435.360199,207.985596 437.964844,202.221085 437.814575,196.040558 
	C437.541809,184.822006 431.226410,177.061996 420.873413,172.107346 
	C427.728790,169.514175 434.237610,167.778900 440.603088,165.620865 
	C465.120270,157.308990 489.431366,148.350967 514.124084,140.605453 
	C540.079590,132.463791 566.567932,128.102844 593.962708,132.882385 
	C617.497681,136.988525 637.511292,146.858749 651.840088,166.467728 
	C657.860535,174.706787 662.143250,183.867096 663.480286,194.262131 
	C657.045654,185.367081 648.401550,181.985931 637.199829,182.819458 
	C597.372925,149.412216 552.674561,140.129562 503.409210,157.125626 
	C474.504730,167.097382 452.087189,185.891953 435.288025,212.209244 
	C419.239655,237.772125 413.283295,265.777130 415.907196,295.585876 
	C417.261230,310.968048 430.124695,323.152313 445.388733,324.868591 
	C461.200012,326.646393 475.917633,317.308380 481.746674,301.597382 
	C482.241425,297.161560 482.802460,292.731903 483.214050,288.288391 
	C483.718964,282.837158 483.744019,277.317657 484.605011,271.928070 
	C486.544891,259.785248 492.575684,249.544281 500.828674,239.851318 
	C501.898041,238.809555 502.932739,237.729263 504.041779,236.731613 
	C540.206177,204.199036 598.670166,222.201324 608.045532,269.007568 
	C602.316040,270.676758 596.605286,272.413544 590.853943,274.003723 
	C562.323303,281.892120 534.216492,291.095032 507.691528,304.308075 
	C488.550354,313.843079 469.680328,324.047668 451.357819,335.065247 
	C433.153412,346.011780 415.641357,358.170868 402.270691,375.206451 
	C400.824493,377.049011 399.236481,378.780304 397.866364,380.385071 
	C395.623077,375.643646 394.368469,370.683380 391.359528,367.269226 
	C388.230042,363.718262 383.723083,360.630493 379.231110,359.246796 
	C374.922455,357.919617 369.488251,357.894073 365.198547,359.291412 
	C351.422699,363.778839 346.512482,375.402679 349.792908,388.537170 
	C351.336456,394.717377 354.908661,399.717133 360.666931,402.794434 
	C369.230194,407.370850 377.808685,407.078796 386.897003,401.380157 
	C386.294922,404.333710 385.731293,406.049652 385.626068,407.793274 
	C385.128845,416.033966 383.359436,424.503296 384.621674,432.483276 
	C387.550079,450.996552 398.584320,464.749084 413.687103,475.383820 
	C434.362549,489.942627 458.147919,493.765991 482.581696,494.912781 
	C493.389740,495.420074 504.241638,494.994019 515.319702,495.850220 
	C515.451294,498.174713 515.510437,500.505951 515.726074,502.822632 
	C517.295166,519.680908 529.409119,532.352356 546.225281,534.767212 
	C561.744324,536.995728 577.251282,527.401123 583.658142,511.395020 
	C584.398682,505.924255 585.139221,500.453491 586.838013,494.994232 
	C604.535095,495.659363 622.234436,496.269867 639.928589,497.006378 
	C654.803040,497.625549 669.671448,498.391479 684.448975,499.922546 
	C678.629395,525.359802 674.102600,551.004456 672.512573,577.088013 
	C671.296875,597.031250 671.328552,616.960205 674.972107,636.691833 
	C675.340149,638.684814 677.588928,640.330505 679.149170,642.921082 
	C679.832092,648.314087 680.515015,653.707153 680.282776,659.284363 
M273.119598,320.862457 
	C275.595947,310.871979 267.287964,296.446808 254.524445,296.019379 
	C241.984436,295.599396 227.787140,303.647095 222.307098,314.924469 
	C217.226532,325.379761 219.011353,337.982788 226.691528,345.936829 
	C228.220245,347.520081 229.690735,349.399933 232.068741,347.292267 
	C241.112762,356.415100 253.585800,357.878479 264.175964,350.810913 
	C272.513702,345.246552 277.832245,332.464264 273.119598,320.862457 
M753.670471,353.574158 
	C774.627686,349.414948 783.415894,332.953552 776.884827,310.860229 
	C778.796631,308.469421 780.977844,306.530304 782.123657,304.102539 
	C783.457642,301.276245 785.246460,301.074982 787.748169,301.660492 
	C795.363281,303.442841 798.258850,309.284241 799.842102,316.036102 
	C801.130676,321.530975 801.671204,327.214233 803.151978,332.648102 
	C805.549500,341.446167 812.848083,347.009613 821.726562,347.461060 
	C831.943115,347.980530 841.836487,339.747559 841.395874,330.949921 
	C835.119812,333.907715 828.979614,333.131622 824.341553,328.382843 
	C820.858521,324.816711 818.202759,320.153503 816.153870,315.545135 
	C813.264954,309.047607 811.898438,301.844604 808.777954,295.484406 
	C801.688049,281.033417 787.154297,279.181824 778.398315,292.151062 
	C771.916382,289.154297 767.018799,291.616241 763.453796,297.300812 
	C758.099548,295.221832 753.207214,293.183868 748.220276,291.412170 
	C733.919128,286.331360 718.034119,294.492676 714.539185,309.215546 
	C713.221741,314.765503 713.614563,320.721405 713.292480,325.526581 
	C716.193604,326.944885 718.176880,327.914459 719.993042,329.698792 
	C722.907776,347.942780 733.702209,355.834198 753.670471,353.574158 
z"/>
<path fill="#6C63FF" opacity="1.000000" stroke="none" 
	d="
M585.879822,494.982727 
	C585.139221,500.453491 584.398682,505.924255 583.212952,511.400848 
	C582.035522,511.655365 581.202576,511.755737 580.586060,512.174683 
	C568.995789,520.050293 556.745483,521.259277 544.347168,514.756531 
	C532.185669,508.378021 525.889709,497.987732 525.733704,484.063171 
	C525.510193,464.121887 525.177124,444.181671 525.000488,424.240051 
	C524.963867,420.104004 525.062256,415.909424 525.704102,411.837280 
	C526.859253,404.508087 528.472595,397.251129 530.006226,389.684570 
	C533.642456,384.519073 536.919434,379.429504 540.737305,374.784485 
	C552.851379,360.045776 567.272217,347.840485 582.909607,336.991821 
	C593.652222,329.539001 602.085205,320.179016 606.612610,307.280640 
	C618.480225,293.220459 622.519897,277.219513 620.114258,259.590942 
	C616.392334,232.316635 597.771301,212.014160 570.951233,205.556305 
	C545.966919,199.540497 519.145386,210.007858 504.042236,231.862625 
	C502.339386,234.326736 501.520844,237.401993 500.292267,240.193848 
	C492.575684,249.544281 486.544891,259.785248 484.605011,271.928070 
	C483.744019,277.317657 483.718964,282.837158 483.214050,288.288391 
	C482.802460,292.731903 482.241425,297.161560 481.273682,301.648926 
	C479.665405,302.284302 478.490662,302.802948 477.400848,303.462006 
	C466.242645,310.209930 454.722687,310.985626 443.235382,304.741180 
	C431.974213,298.619659 426.139984,288.919159 425.677948,275.950378 
	C424.934418,255.080643 427.205017,234.743439 435.498779,215.348831 
	C435.928925,214.342957 435.788849,213.093231 435.914307,211.957047 
	C452.087189,185.891953 474.504730,167.097382 503.409210,157.125626 
	C552.674561,140.129562 597.372925,149.412216 637.667480,183.250427 
	C649.948608,194.458313 659.182800,207.220444 666.946289,221.114517 
	C673.291809,235.076019 678.054749,249.445831 680.195862,264.758270 
	C683.077637,285.368317 679.367493,304.789734 671.098816,323.539490 
	C668.558289,329.300262 665.351318,334.767090 661.874512,340.689514 
	C651.458801,341.189941 647.796448,346.820740 650.723633,357.026428 
	C644.076660,363.546204 637.769226,369.933167 631.334595,376.189240 
	C623.108887,384.186798 614.355042,391.686066 606.587830,400.100739 
	C591.937561,415.972382 583.122437,434.305298 585.172913,456.672516 
	C585.551514,460.802063 585.198120,464.994629 585.282166,469.156128 
	C585.436157,476.785431 585.664246,484.413239 585.794312,492.406677 
	C585.778076,493.508698 585.828918,494.245697 585.879822,494.982727 
z"/>
<path fill="#302F42" opacity="1.000000" stroke="none" 
	d="
M760.034790,369.711731 
	C772.023193,380.938293 784.300720,391.877319 795.876221,403.514557 
	C801.533081,409.201569 800.486877,419.088409 794.821716,424.844025 
	C786.787842,433.006378 778.677673,441.093750 770.589844,449.202942 
	C769.781311,450.013580 768.902039,450.753723 768.603516,451.026337 
	C772.179260,468.714691 775.661072,485.937988 779.261108,503.902893 
	C779.638306,505.767975 779.897278,506.891510 780.119080,508.417206 
	C785.370483,552.084534 790.707336,595.343872 795.895752,638.621033 
	C796.676636,645.134521 795.994080,645.626465 788.724854,647.176880 
	C783.890930,648.131836 779.455994,649.076111 774.622314,650.000488 
	C770.100769,650.512573 768.827820,647.947021 767.883545,644.554932 
	C762.320801,624.571472 756.627258,604.624512 751.002808,584.658142 
	C744.928589,563.094727 738.918152,541.513184 732.769592,519.971069 
	C732.112854,517.670166 732.124878,514.207642 727.629761,515.010315 
	C726.487915,516.182007 725.311707,517.269043 725.017822,518.557373 
	C723.620728,524.681152 722.463867,530.859802 721.096069,537.396118 
	C719.311707,545.554565 717.629333,553.330811 715.998352,561.117920 
	C710.595764,586.913330 705.208008,612.711914 699.825195,638.511414 
	C699.172791,641.638672 698.121216,644.327515 693.783386,644.185303 
	C688.553528,643.450073 683.759216,642.793762 678.964905,642.137451 
	C677.588928,640.330505 675.340149,638.684814 674.972107,636.691833 
	C671.328552,616.960205 671.296875,597.031250 672.512573,577.088013 
	C674.102600,551.004456 678.629395,525.359802 684.654541,499.230804 
	C684.937866,497.696106 685.015564,496.853180 685.332092,495.713257 
	C690.233887,479.149719 694.487549,462.750519 699.701904,446.662659 
	C703.252197,435.709015 706.212952,424.789124 706.501343,413.243866 
	C696.089478,417.584839 688.400146,416.274597 683.197937,409.505890 
	C677.126648,401.606506 670.951599,393.785492 664.733948,386.000458 
	C659.606445,379.580261 659.578491,379.193604 665.867920,374.035156 
	C670.175537,371.630524 674.154053,369.249420 678.132629,366.868286 
	C680.172852,368.250305 682.854492,369.198334 684.136536,371.093292 
	C688.484924,377.520691 692.338257,384.283020 696.973022,391.889435 
	C703.651428,386.103394 710.078247,380.534515 716.506042,374.966766 
	C719.124146,372.699005 721.744446,370.433746 724.887207,368.367706 
	C728.225830,377.080322 730.896484,385.645264 733.966248,394.064667 
	C734.657471,395.960724 736.607605,398.466278 738.220947,398.658997 
	C739.854004,398.854034 742.358704,396.916656 743.493896,395.243317 
	C749.185547,386.853516 754.553223,378.244019 760.034790,369.711731 
M759.546570,447.904114 
	C757.194336,444.044556 754.842163,440.184998 752.278198,435.977936 
	C745.888550,441.004486 740.184082,445.016571 735.079895,449.684906 
	C732.000488,452.501343 731.132080,456.446838 733.229736,460.662720 
	C735.505615,465.236908 739.219482,466.557831 743.952332,466.109711 
	C748.107178,465.716309 751.772644,463.088837 751.619141,459.543396 
	C751.354065,453.422150 755.185181,451.182922 759.546570,447.904114 
M767.245605,418.798187 
	C769.668640,417.181732 772.091675,415.565247 774.823608,413.742706 
	C773.213257,411.884247 771.925903,410.398529 770.041382,408.223633 
	C768.681335,412.385223 767.602905,415.685181 767.245605,418.798187 
z"/>
<path fill="#313042" opacity="1.000000" stroke="none" 
	d="
M203.902100,648.367798 
	C199.635696,647.980469 197.810272,645.800049 198.214584,641.401184 
	C202.988785,589.459839 207.695557,537.512329 213.049347,485.397888 
	C234.251984,492.791382 254.808289,500.400543 275.420166,507.856018 
	C278.009460,508.792603 280.891541,508.919647 283.637970,509.421753 
	C280.095642,534.106567 276.541412,558.789734 273.014923,583.476807 
	C270.334229,602.243042 267.734131,621.020996 264.947876,639.771484 
	C264.705536,641.402527 263.340424,642.866699 261.796448,644.675049 
	C256.719940,645.277954 252.343887,645.614319 247.586182,645.849854 
	C242.609253,645.191589 242.725220,641.809387 242.817352,638.437378 
	C243.527313,612.449585 244.250397,586.462097 244.913361,560.473145 
	C244.958740,558.693909 244.550735,556.903076 244.353592,555.117676 
	C243.843704,555.060974 243.333801,555.004333 242.823914,554.947632 
	C242.231506,556.528870 241.484070,558.070679 241.070297,559.697327 
	C235.946960,579.838196 230.956299,600.013184 225.747620,620.131714 
	C223.339111,629.434570 220.529572,638.633667 217.522293,647.978027 
	C212.729187,648.173462 208.315643,648.270630 203.902100,648.367798 
z"/>
<path fill="#CCCCCC" opacity="1.000000" stroke="none" 
	d="
M283.841064,509.090576 
	C280.891541,508.919647 278.009460,508.792603 275.420166,507.856018 
	C254.808289,500.400543 234.251984,492.791382 213.337082,485.107422 
	C212.329071,470.896332 211.750885,456.801636 210.880875,442.725006 
	C210.775879,441.026245 209.445786,438.993530 208.068848,437.866394 
	C205.002930,435.356628 201.638351,433.171722 198.233612,431.123535 
	C189.397614,425.808105 186.289764,415.647888 192.080139,407.152893 
	C199.269638,396.605194 206.207321,385.442352 215.395554,376.830292 
	C223.898087,368.860901 234.798447,363.000427 247.745880,363.949066 
	C260.413696,364.877258 269.595490,370.853638 277.217834,380.960571 
	C286.233459,392.914978 289.679688,407.226044 295.575470,420.666260 
	C290.813049,418.709045 286.407318,416.385895 281.961029,414.143158 
	C276.727417,411.503265 274.808502,412.126984 272.000824,417.388794 
	C267.624146,425.591095 263.295227,433.818878 258.547668,441.974121 
	C256.203094,441.614868 254.097565,440.697083 252.343597,441.147675 
	C248.578949,442.114777 245.309982,442.202423 242.048813,439.683075 
	C241.401794,439.183258 239.000031,439.782043 238.404617,440.600067 
	C236.305496,443.484009 234.640015,446.683594 232.950699,449.526794 
	C238.595810,453.503479 243.815125,457.180206 248.965149,461.211273 
	C247.068649,465.087738 245.223190,468.600555 243.418365,472.134125 
	C240.546158,477.757446 241.086731,479.488892 246.564941,482.356140 
	C258.431061,488.566803 270.310089,494.753113 282.151550,501.010437 
	C283.545624,501.747162 284.737732,502.866089 286.023499,503.807800 
	C285.363708,505.458344 284.703949,507.108887 283.841064,509.090576 
z"/>
<path fill="#F2F2F2" opacity="1.000000" stroke="none" 
	d="
M666.977295,220.683289 
	C659.182800,207.220444 649.948608,194.458313 637.967712,183.388138 
	C648.401550,181.985931 657.045654,185.367081 663.480286,194.262131 
	C662.143250,183.867096 657.860535,174.706787 651.840088,166.467728 
	C637.511292,146.858749 617.497681,136.988525 593.962708,132.882385 
	C566.567932,128.102844 540.079590,132.463791 514.124084,140.605453 
	C489.431366,148.350967 465.120270,157.308990 440.603088,165.620865 
	C434.237610,167.778900 427.728790,169.514175 420.873413,172.107346 
	C431.226410,177.061996 437.541809,184.822006 437.814575,196.040558 
	C437.964844,202.221085 435.360199,207.985596 430.874237,212.646851 
	C422.193726,221.666489 408.906250,222.479446 398.245514,214.563232 
	C388.010895,206.963425 387.230408,193.350372 396.475311,177.890305 
	C389.015686,179.374893 381.981049,181.064621 374.853424,182.134903 
	C358.522858,184.587097 342.180481,187.031006 325.777344,188.904633 
	C315.096313,190.124664 304.304169,190.797089 293.554626,190.890121 
	C278.123901,191.023651 264.107117,186.900497 252.917709,175.352539 
	C251.654343,174.048691 248.655121,174.003403 246.483368,174.073502 
	C234.577667,174.457764 224.897675,165.142914 223.079132,153.131119 
	C221.435944,142.277664 229.430710,130.488144 240.112778,127.458397 
	C252.892532,123.833656 264.104553,130.138336 269.190002,140.561234 
	C274.179291,150.787018 270.232513,163.485260 260.321045,170.406219 
	C259.134460,171.234787 258.062775,172.227936 255.938644,173.959183 
	C259.631989,176.723495 262.594208,179.608002 266.103851,181.448715 
	C279.411163,188.428070 293.743805,188.906219 308.317474,187.402954 
	C313.582977,186.859848 318.895782,186.695236 324.132446,185.966064 
	C343.763489,183.232559 363.504700,181.038147 382.960785,177.353821 
	C421.400635,170.074554 457.935913,156.319153 494.734650,143.413971 
	C511.836761,137.416306 529.626892,133.380722 547.570557,128.324570 
	C535.656860,123.554451 529.418701,114.702911 530.954407,101.156334 
	C531.658325,94.947083 534.771057,90.212219 539.260620,86.320015 
	C549.143677,77.751968 565.683594,79.718697 573.542847,90.194267 
	C581.645874,100.994728 580.986572,118.368027 562.998840,128.000107 
	C569.067444,128.000107 574.116638,127.774712 579.140137,128.038391 
	C603.317871,129.307465 625.809570,135.832367 643.837341,152.599411 
	C662.167175,169.647446 670.374329,191.171478 667.904785,216.385056 
	C667.776917,217.690796 667.314819,218.963791 666.977295,220.683289 
z"/>
<path fill="#6C63FF" opacity="1.000000" stroke="none" 
	d="
M521.841980,595.850830 
	C526.448730,592.570679 530.639099,588.268677 535.736084,586.191833 
	C555.156433,578.278564 576.818848,584.599792 589.226196,601.053467 
	C601.667786,617.552551 601.590332,639.692444 589.032043,656.637939 
	C588.044678,657.970215 587.059753,659.304260 585.453125,660.859558 
	C584.554565,661.412415 584.276672,661.743286 583.998779,662.074097 
	C583.998779,662.074097 584.005920,662.006714 583.657104,661.917053 
	C582.068420,662.295654 580.807007,662.714233 579.591736,663.239502 
	C548.337219,676.748901 514.739868,654.483459 514.873474,620.490723 
	C514.908691,611.533752 518.429138,603.753052 521.841980,595.850830 
z"/>
<path fill="#F2F2F2" opacity="1.000000" stroke="none" 
	d="
M515.073608,494.991638 
	C504.241638,494.994019 493.389740,495.420074 482.581696,494.912781 
	C458.147919,493.765991 434.362549,489.942627 413.687103,475.383820 
	C398.584320,464.749084 387.550079,450.996552 384.621674,432.483276 
	C383.359436,424.503296 385.128845,416.033966 385.626068,407.793274 
	C385.731293,406.049652 386.294922,404.333710 386.897003,401.380157 
	C377.808685,407.078796 369.230194,407.370850 360.666931,402.794434 
	C354.908661,399.717133 351.336456,394.717377 349.792908,388.537170 
	C346.512482,375.402679 351.422699,363.778839 365.198547,359.291412 
	C369.488251,357.894073 374.922455,357.919617 379.231110,359.246796 
	C383.723083,360.630493 388.230042,363.718262 391.359528,367.269226 
	C394.368469,370.683380 395.623077,375.643646 397.866364,380.385071 
	C399.236481,378.780304 400.824493,377.049011 402.270691,375.206451 
	C415.641357,358.170868 433.153412,346.011780 451.357819,335.065247 
	C469.680328,324.047668 488.550354,313.843079 507.691528,304.308075 
	C534.216492,291.095032 562.323303,281.892120 590.853943,274.003723 
	C596.605286,272.413544 602.316040,270.676758 608.554138,269.343445 
	C609.192078,270.402344 609.321472,271.125305 609.038208,271.916077 
	C580.096924,280.592499 551.278015,288.344391 523.461609,300.610870 
	C538.712341,301.623474 550.216553,314.197266 547.027100,330.067932 
	C544.387939,343.200592 530.694214,351.614990 516.929443,347.961243 
	C510.749512,346.320862 505.671661,342.738800 502.733704,337.006348 
	C498.218872,328.197327 498.780548,319.280151 504.310303,309.664032 
	C500.331085,311.324341 497.285889,312.183014 494.667023,313.752991 
	C474.188934,326.029236 453.460449,337.932404 433.470581,350.965118 
	C415.742493,362.523224 401.063660,377.377899 392.434875,397.214142 
	C386.199493,411.548218 384.601410,426.346863 390.169312,441.254883 
	C397.688995,461.388885 413.046112,473.675323 432.174286,481.909302 
	C449.689606,489.449036 468.360016,490.964081 487.061157,491.916840 
	C496.362549,492.390747 505.707825,492.002625 515.144531,492.368774 
	C515.195129,493.485931 515.134338,494.238770 515.073608,494.991638 
z"/>
<path fill="#403E57" opacity="1.000000" stroke="none" 
	d="
M286.421692,503.875488 
	C284.737732,502.866089 283.545624,501.747162 282.151550,501.010437 
	C270.310089,494.753113 258.431061,488.566803 246.564941,482.356140 
	C241.086731,479.488892 240.546158,477.757446 243.418365,472.134125 
	C245.223190,468.600555 247.068649,465.087738 249.396973,461.174011 
	C253.208786,460.132965 257.097229,460.365601 259.711670,458.653198 
	C265.407349,454.922729 264.829865,448.584747 258.946045,442.035858 
	C263.295227,433.818878 267.624146,425.591095 272.000824,417.388794 
	C274.808502,412.126984 276.727417,411.503265 281.961029,414.143158 
	C286.407318,416.385895 290.813049,418.709045 295.594421,421.038635 
	C304.872528,425.867096 313.799103,430.642151 322.711121,435.444214 
	C328.007660,438.298126 328.547333,440.051422 325.810120,445.398132 
	C321.568237,453.683899 317.307617,461.960114 312.675171,470.770447 
	C308.912415,477.840637 305.529510,484.380798 302.146606,490.920959 
	C300.685211,493.649536 299.205627,496.368561 297.766052,499.108582 
	C294.294098,505.716766 293.646484,506.010254 286.421692,503.875488 
z"/>
<path fill="#313043" opacity="1.000000" stroke="none" 
	d="
M720.160095,328.884033 
	C718.176880,327.914459 716.193604,326.944885 713.292480,325.526581 
	C713.614563,320.721405 713.221741,314.765503 714.539185,309.215546 
	C718.034119,294.492676 733.919128,286.331360 748.220276,291.412170 
	C753.207214,293.183868 758.099548,295.221832 763.453796,297.300812 
	C767.018799,291.616241 771.916382,289.154297 778.398315,292.151062 
	C787.154297,279.181824 801.688049,281.033417 808.777954,295.484406 
	C811.898438,301.844604 813.264954,309.047607 816.153870,315.545135 
	C818.202759,320.153503 820.858521,324.816711 824.341553,328.382843 
	C828.979614,333.131622 835.119812,333.907715 841.395874,330.949921 
	C841.836487,339.747559 831.943115,347.980530 821.726562,347.461060 
	C812.848083,347.009613 805.549500,341.446167 803.151978,332.648102 
	C801.671204,327.214233 801.130676,321.530975 799.842102,316.036102 
	C798.258850,309.284241 795.363281,303.442841 787.748169,301.660492 
	C785.246460,301.074982 783.457642,301.276245 782.123657,304.102539 
	C780.977844,306.530304 778.796631,308.469421 776.884827,310.860229 
	C783.415894,332.953552 774.627686,349.414948 753.450195,353.307495 
	C765.989197,345.579712 770.524475,338.051392 768.431030,326.926392 
	C757.549316,326.926392 746.517761,326.926392 735.627258,326.926392 
	C734.816406,323.358124 734.156006,320.451904 733.287048,316.627960 
	C729.772644,321.940399 728.198547,328.104340 721.075867,327.766266 
	C720.788940,327.752625 720.466187,328.494263 720.160095,328.884033 
z"/>
<path fill="#EFEFEF" opacity="1.000000" stroke="none" 
	d="
M780.156250,508.015015 
	C779.897278,506.891510 779.638306,505.767975 779.412231,504.300507 
	C789.595825,505.303436 799.743347,506.674652 809.897888,507.992371 
	C835.188293,511.274139 860.656738,513.786804 883.981689,525.428833 
	C884.372314,525.623779 884.903442,525.537292 886.443726,525.685669 
	C880.218262,514.924927 878.562561,504.512421 886.881104,494.657410 
	C891.343872,489.370453 896.735229,485.940247 904.044373,485.962677 
	C920.594727,486.013489 930.515747,496.636475 928.833252,514.028076 
	C927.828491,524.413696 917.439697,536.920349 900.305176,533.643738 
	C906.376709,540.693054 914.169617,547.993286 919.828735,556.683044 
	C930.883118,573.657471 932.090393,591.998108 924.095093,610.857971 
	C915.731445,630.586731 901.183350,644.528564 882.525940,653.994202 
	C870.297668,660.198120 857.205688,664.695496 844.527344,670.021240 
	C842.946167,670.685486 841.529968,671.742676 839.592529,673.126099 
	C834.762329,673.535278 830.376892,673.436096 826.114075,673.034424 
	C839.369019,668.145569 852.624512,663.880249 865.605469,658.899231 
	C886.218323,650.989685 903.555359,638.771057 915.802368,619.853027 
	C931.215576,596.044189 928.260864,567.162292 908.528320,546.890015 
	C894.201904,532.171814 876.686768,523.527527 857.095886,519.170410 
	C841.479980,515.697388 825.573120,513.456421 809.730652,511.105682 
	C799.935303,509.652222 790.018494,509.017365 780.156250,508.015015 
z"/>
<path fill="#413F59" opacity="1.000000" stroke="none" 
	d="
M825.991516,673.336975 
	C830.376892,673.436096 834.762329,673.535278 839.540527,673.510010 
	C854.917908,673.479309 869.902222,673.627441 884.886841,673.654419 
	C909.872925,673.699341 934.859070,673.666687 959.845215,673.666748 
	C961.611633,673.666748 963.377991,673.666748 965.144409,673.666748 
	C965.215332,674.058044 965.286316,674.449341 965.357239,674.840698 
	C964.645386,675.225342 963.971680,675.763733 963.211182,675.952148 
	C962.425781,676.146790 961.556030,676.004333 960.723206,676.004272 
	C735.348511,675.997192 509.973816,675.989685 284.237427,675.329895 
	C283.885040,674.299927 283.894318,673.922119 283.903564,673.544373 
	C366.852631,673.568909 449.801636,673.594788 532.750671,673.603149 
	C533.822266,673.603271 534.893799,673.379578 537.276428,673.114441 
	C534.464417,671.657776 532.784119,670.797302 531.112549,669.920105 
	C504.203033,655.796326 497.996063,619.301575 518.839050,597.659851 
	C519.500671,596.972839 520.381653,596.497070 521.501160,595.886841 
	C518.429138,603.753052 514.908691,611.533752 514.873474,620.490723 
	C514.739868,654.483459 548.337219,676.748901 579.591736,663.239502 
	C580.807007,662.714233 582.068420,662.295654 583.688232,661.930481 
	C579.009949,665.813171 573.951721,669.592773 568.971558,673.314087 
	C569.336853,673.366272 570.217346,673.601196 571.097961,673.601807 
	C599.080566,673.621094 627.063110,673.623596 655.045715,673.591736 
	C655.993347,673.590637 656.940674,673.208740 658.477539,673.034058 
	C660.316284,673.378357 661.565002,673.962158 662.815186,673.965332 
	C674.310364,673.994080 685.805725,673.922241 697.742554,673.792297 
	C715.000671,673.694458 731.817566,673.723877 748.633484,673.609436 
	C750.243530,673.598450 751.847595,672.690247 753.735413,672.598511 
	C755.408630,673.335083 756.799622,673.957703 758.193176,673.963257 
	C769.576599,674.008423 780.960388,673.938416 792.781921,673.803589 
	C804.143677,673.581421 815.067566,673.459167 825.991516,673.336975 
z"/>
<path fill="#413F5A" opacity="1.000000" stroke="none" 
	d="
M609.450806,271.848297 
	C609.321472,271.125305 609.192078,270.402344 608.936401,269.332886 
	C598.670166,222.201324 540.206177,204.199036 504.041779,236.731613 
	C502.932739,237.729263 501.898041,238.809555 500.560486,240.022583 
	C501.520844,237.401993 502.339386,234.326736 504.042236,231.862625 
	C519.145386,210.007858 545.966919,199.540497 570.951233,205.556305 
	C597.771301,212.014160 616.392334,232.316635 620.114258,259.590942 
	C622.519897,277.219513 618.480225,293.220459 606.825439,306.853333 
	C610.526123,295.277466 612.301636,283.744720 609.450806,271.848297 
z"/>
<path fill="#413F5A" opacity="1.000000" stroke="none" 
	d="
M515.196655,495.420929 
	C515.134338,494.238770 515.195129,493.485931 515.242798,491.939148 
	C515.129150,489.098846 515.028564,487.052460 515.031067,484.546631 
	C515.024719,474.719788 514.915405,465.352295 514.879578,455.522278 
	C515.634521,442.678589 515.543945,430.190765 517.235291,417.949127 
	C518.654541,407.677246 522.907532,398.041199 529.894531,389.963989 
	C528.472595,397.251129 526.859253,404.508087 525.704102,411.837280 
	C525.062256,415.909424 524.963867,420.104004 525.000488,424.240051 
	C525.177124,444.181671 525.510193,464.121887 525.733704,484.063171 
	C525.889709,497.987732 532.185669,508.378021 544.347168,514.756531 
	C556.745483,521.259277 568.995789,520.050293 580.586060,512.174683 
	C581.202576,511.755737 582.035522,511.655365 582.952698,511.667542 
	C577.251282,527.401123 561.744324,536.995728 546.225281,534.767212 
	C529.409119,532.352356 517.295166,519.680908 515.726074,502.822632 
	C515.510437,500.505951 515.451294,498.174713 515.196655,495.420929 
z"/>
<path fill="#413F5A" opacity="1.000000" stroke="none" 
	d="
M435.601135,212.083145 
	C435.788849,213.093231 435.928925,214.342957 435.498779,215.348831 
	C427.205017,234.743439 424.934418,255.080643 425.677948,275.950378 
	C426.139984,288.919159 431.974213,298.619659 443.235382,304.741180 
	C454.722687,310.985626 466.242645,310.209930 477.400848,303.462006 
	C478.490662,302.802948 479.665405,302.284302 480.997314,301.925720 
	C475.917633,317.308380 461.200012,326.646393 445.388733,324.868591 
	C430.124695,323.152313 417.261230,310.968048 415.907196,295.585876 
	C413.283295,265.777130 419.239655,237.772125 435.601135,212.083145 
z"/>
<path fill="#313043" opacity="1.000000" stroke="none" 
	d="
M231.788483,346.610107 
	C229.690735,349.399933 228.220245,347.520081 226.691528,345.936829 
	C219.011353,337.982788 217.226532,325.379761 222.307098,314.924469 
	C227.787140,303.647095 241.984436,295.599396 254.524445,296.019379 
	C267.287964,296.446808 275.595947,310.871979 272.487610,321.153320 
	C266.790955,320.643524 261.752014,319.486053 256.656097,319.119141 
	C247.114746,318.432220 241.746765,323.367889 241.760941,332.849304 
	C241.767075,336.946259 242.899612,341.031860 243.300232,345.144104 
	C243.409973,346.270630 243.031067,347.783020 242.285934,348.526947 
	C241.843307,348.968842 240.103394,348.511444 239.206024,348.001862 
	C237.931183,347.277893 237.010971,345.610321 235.722260,345.324615 
	C234.562973,345.067627 233.111221,346.129791 231.788483,346.610107 
z"/>
<path fill="#9F616B" opacity="1.000000" stroke="none" 
	d="
M720.076538,329.291412 
	C720.466187,328.494263 720.788940,327.752625 721.075867,327.766266 
	C728.198547,328.104340 729.772644,321.940399 733.287048,316.627960 
	C734.156006,320.451904 734.816406,323.358124 735.627258,326.926392 
	C746.517761,326.926392 757.549316,326.926392 768.431030,326.926392 
	C770.524475,338.051392 765.989197,345.579712 753.018555,353.364380 
	C733.702209,355.834198 722.907776,347.942780 720.076538,329.291412 
z"/>
<path fill="#FDB8B8" opacity="1.000000" stroke="none" 
	d="
M231.928619,346.951172 
	C233.111221,346.129791 234.562973,345.067627 235.722260,345.324615 
	C237.010971,345.610321 237.931183,347.277893 239.206024,348.001862 
	C240.103394,348.511444 241.843307,348.968842 242.285934,348.526947 
	C243.031067,347.783020 243.409973,346.270630 243.300232,345.144104 
	C242.899612,341.031860 241.767075,336.946259 241.760941,332.849304 
	C241.746765,323.367889 247.114746,318.432220 256.656097,319.119141 
	C261.752014,319.486053 266.790955,320.643524 272.230835,321.431915 
	C277.832245,332.464264 272.513702,345.246552 264.175964,350.810913 
	C253.585800,357.878479 241.112762,356.415100 231.928619,346.951172 
z"/>
<path fill="#E4E4E4" opacity="1.000000" stroke="none" 
	d="
M760.037476,369.358276 
	C754.553223,378.244019 749.185547,386.853516 743.493896,395.243317 
	C742.358704,396.916656 739.854004,398.854034 738.220947,398.658997 
	C736.607605,398.466278 734.657471,395.960724 733.966248,394.064667 
	C730.896484,385.645264 728.225830,377.080322 725.209656,368.255493 
	C725.495972,361.687469 731.195801,362.263184 734.806946,361.497894 
	C741.636719,360.050385 748.812073,360.295258 755.207031,363.791077 
	C757.178833,364.869019 758.448792,367.230865 760.037476,369.358276 
z"/>
<path fill="#313043" opacity="1.000000" stroke="none" 
	d="
M239.979813,675.811157 
	C227.302505,675.854980 214.625214,675.898804 201.484482,675.564453 
	C201.049500,674.563782 201.077942,673.941284 201.106384,673.318726 
	C201.116745,669.703186 201.000870,666.079834 201.225250,662.477661 
	C201.282135,661.564636 202.422913,660.719116 203.949402,659.838379 
	C208.884689,659.790649 212.936234,659.747131 217.447693,659.777100 
	C233.315186,659.959900 235.951675,661.609680 240.066559,674.086426 
	C240.009293,674.890320 239.994553,675.350769 239.979813,675.811157 
z"/>
<path fill="#313043" opacity="1.000000" stroke="none" 
	d="
M283.822327,673.227600 
	C283.894318,673.922119 283.885040,674.299927 283.824646,675.242432 
	C271.164520,675.852417 258.555481,675.897583 245.473190,675.527100 
	C244.952698,674.646423 244.905502,674.181396 244.939087,673.276001 
	C245.054901,669.405884 244.877090,665.952576 245.251678,662.560181 
	C245.367661,661.509644 246.985138,660.624939 248.377045,659.749695 
	C252.888412,659.789795 256.937927,659.744507 260.987427,659.699219 
	C262.813751,659.755615 264.639801,659.850281 266.466400,659.862061 
	C276.498199,659.927002 280.935791,663.270447 283.822327,673.227600 
z"/>
<path fill="#313042" opacity="1.000000" stroke="none" 
	d="
M697.301086,673.879761 
	C685.805725,673.922241 674.310364,673.994080 662.815186,673.965332 
	C661.565002,673.962158 660.316284,673.378357 658.780151,672.676331 
	C660.356873,663.851624 665.429626,659.565857 673.885315,659.325439 
	C676.016479,659.264771 678.150208,659.295593 681.188416,659.234009 
	C686.069092,659.125427 690.044189,659.067200 694.400635,659.132507 
	C695.462524,660.500671 696.590271,661.694885 696.737732,662.999878 
	C697.144592,666.601746 697.141846,670.249878 697.301086,673.879761 
z"/>
<path fill="#9F616B" opacity="1.000000" stroke="none" 
	d="
M678.040039,366.525208 
	C674.154053,369.249420 670.175537,371.630524 665.693420,373.690094 
	C663.852478,370.155090 662.650391,366.874481 661.106323,363.763611 
	C660.544556,362.631805 659.267212,361.750183 658.142029,361.024933 
	C655.825806,359.531952 653.392090,358.221222 651.006714,356.835480 
	C647.796448,346.820740 651.458801,341.189941 661.727356,340.990173 
	C666.144165,342.722717 668.372986,345.746521 669.976501,349.857330 
	C672.169617,355.479889 675.248352,360.756989 678.040039,366.525208 
z"/>
<path fill="#FDB8B8" opacity="1.000000" stroke="none" 
	d="
M302.402130,491.137268 
	C305.529510,484.380798 308.912415,477.840637 312.576721,471.112823 
	C315.591125,474.834869 318.347687,478.728424 321.050629,482.658813 
	C323.884125,486.778961 323.246246,491.500793 319.422119,495.158295 
	C315.760925,498.659912 310.584686,499.209045 306.825226,496.185577 
	C305.195068,494.874512 304.032562,492.981995 302.402130,491.137268 
z"/>
<path fill="#F2F2F2" opacity="1.000000" stroke="none" 
	d="
M685.093262,496.010223 
	C685.015564,496.853180 684.937866,497.696106 684.701294,498.815735 
	C669.671448,498.391479 654.803040,497.625549 639.928589,497.006378 
	C622.234436,496.269867 604.535095,495.659363 586.358887,494.988464 
	C585.828918,494.245697 585.778076,493.508698 586.274048,492.393616 
	C596.756775,492.338074 606.695984,492.581818 616.627869,492.999084 
	C639.451599,493.957916 662.271667,495.001190 685.093262,496.010223 
z"/>
<path fill="#413F59" opacity="1.000000" stroke="none" 
	d="
M200.644165,673.445862 
	C201.077942,673.941284 201.049500,674.563782 201.021439,675.498169 
	C174.581619,675.809937 148.141403,675.809937 121.701202,675.809937 
	C121.696663,675.064270 121.692131,674.318665 121.687592,673.572998 
	C147.852371,673.572998 174.017151,673.572998 200.644165,673.445862 
z"/>
<path fill="#9F616B" opacity="1.000000" stroke="none" 
	d="
M694.019226,659.009033 
	C690.044189,659.067200 686.069092,659.125427 681.645996,659.141907 
	C680.515015,653.707153 679.832092,648.314087 679.057007,642.529297 
	C683.759216,642.793762 688.553528,643.450073 693.746826,644.631653 
	C694.103699,649.774231 694.061462,654.391663 694.019226,659.009033 
z"/>
<path fill="#FDB8B8" opacity="1.000000" stroke="none" 
	d="
M260.992554,659.275879 
	C256.937927,659.744507 252.888412,659.789795 248.377609,659.306702 
	C247.933487,654.502380 247.950653,650.226501 247.967819,645.950623 
	C252.343887,645.614319 256.719940,645.277954 261.562347,644.939941 
	C261.685028,649.576355 261.341339,654.214478 260.992554,659.275879 
z"/>
<path fill="#FDB8B8" opacity="1.000000" stroke="none" 
	d="
M216.987793,659.703613 
	C212.936234,659.747131 208.884689,659.790649 204.371033,659.747437 
	C203.907700,656.184326 203.906448,652.707947 203.903656,648.799683 
	C208.315643,648.270630 212.729187,648.173462 217.545715,648.409119 
	C217.628403,652.395813 217.308105,656.049683 216.987793,659.703613 
z"/>
<path fill="#413F59" opacity="1.000000" stroke="none" 
	d="
M244.858307,673.716309 
	C244.905502,674.181396 244.952698,674.646423 245.010071,675.461304 
	C243.616348,675.869446 242.212479,675.927734 240.394196,675.898621 
	C239.994553,675.350769 240.009293,674.890320 240.461517,674.056396 
	C242.218750,673.694031 243.538528,673.705200 244.858307,673.716309 
z"/>
<path fill="#413F59" opacity="1.000000" stroke="none" 
	d="
M584.325317,662.011841 
	C584.276672,661.743286 584.554565,661.412415 585.187744,661.023560 
	C585.245972,661.293518 584.948975,661.621582 584.325317,662.011841 
z"/>
<path fill="#FFFFFF" opacity="1.000000" stroke="none" 
	d="
M530.006226,389.684570 
	C522.907532,398.041199 518.654541,407.677246 517.235291,417.949127 
	C515.543945,430.190765 515.634521,442.678589 514.547852,455.589722 
	C507.540253,462.298004 508.328583,470.204742 509.710388,477.851288 
	C510.182739,480.465118 513.118042,482.633911 514.928040,485.006042 
	C515.028564,487.052460 515.129150,489.098846 515.131470,491.574860 
	C505.707825,492.002625 496.362549,492.390747 487.061157,491.916840 
	C468.360016,490.964081 449.689606,489.449036 432.174286,481.909302 
	C413.046112,473.675323 397.688995,461.388885 390.169312,441.254883 
	C384.601410,426.346863 386.199493,411.548218 392.434875,397.214142 
	C401.063660,377.377899 415.742493,362.523224 433.470581,350.965118 
	C453.460449,337.932404 474.188934,326.029236 494.667023,313.752991 
	C497.285889,312.183014 500.331085,311.324341 504.310303,309.664032 
	C498.780548,319.280151 498.218872,328.197327 502.733704,337.006348 
	C505.671661,342.738800 510.749512,346.320862 516.929443,347.961243 
	C530.694214,351.614990 544.387939,343.200592 547.027100,330.067932 
	C550.216553,314.197266 538.712341,301.623474 523.461609,300.610870 
	C551.278015,288.344391 580.096924,280.592499 609.038208,271.916077 
	C612.301636,283.744720 610.526123,295.277466 606.502075,307.077454 
	C602.085205,320.179016 593.652222,329.539001 582.909607,336.991821 
	C567.272217,347.840485 552.851379,360.045776 540.737305,374.784485 
	C536.919434,379.429504 533.642456,384.519073 530.006226,389.684570 
z"/>
<path fill="#FEFEFF" opacity="1.000000" stroke="none" 
	d="
M685.332092,495.713257 
	C662.271667,495.001190 639.451599,493.957916 616.627869,492.999084 
	C606.695984,492.581818 596.756775,492.338074 586.341187,492.028625 
	C585.664246,484.413239 585.436157,476.785431 585.282166,469.156128 
	C585.198120,464.994629 585.551514,460.802063 585.172913,456.672516 
	C583.122437,434.305298 591.937561,415.972382 606.587830,400.100739 
	C614.355042,391.686066 623.108887,384.186798 631.334595,376.189240 
	C637.769226,369.933167 644.076660,363.546204 650.723633,357.026428 
	C653.392090,358.221222 655.825806,359.531952 658.142029,361.024933 
	C659.267212,361.750183 660.544556,362.631805 661.106323,363.763611 
	C662.650391,366.874481 663.852478,370.155090 665.364380,373.713623 
	C659.578491,379.193604 659.606445,379.580261 664.733948,386.000458 
	C670.951599,393.785492 677.126648,401.606506 683.197937,409.505890 
	C688.400146,416.274597 696.089478,417.584839 706.501343,413.243866 
	C706.212952,424.789124 703.252197,435.709015 699.701904,446.662659 
	C694.487549,462.750519 690.233887,479.149719 685.332092,495.713257 
z"/>
<path fill="#FFFFFF" opacity="1.000000" stroke="none" 
	d="
M826.114075,673.034424 
	C815.067566,673.459167 804.143677,673.581421 792.613281,673.370239 
	C791.934570,669.576904 792.106689,666.085388 791.666382,662.672791 
	C791.497131,661.360840 789.932983,660.228943 789.016724,658.555481 
	C789.060669,654.452759 789.092285,650.809509 789.123962,647.166260 
	C795.994080,645.626465 796.676636,645.134521 795.895752,638.621033 
	C790.707336,595.343872 785.370483,552.084534 780.119019,508.417175 
	C790.018494,509.017365 799.935303,509.652222 809.730652,511.105682 
	C825.573120,513.456421 841.479980,515.697388 857.095886,519.170410 
	C876.686768,523.527527 894.201904,532.171814 908.528320,546.890015 
	C928.260864,567.162292 931.215576,596.044189 915.802368,619.853027 
	C903.555359,638.771057 886.218323,650.989685 865.605469,658.899231 
	C852.624512,663.880249 839.369019,668.145569 826.114075,673.034424 
z"/>
<path fill="#FDFDFD" opacity="1.000000" stroke="none" 
	d="
M694.400635,659.132507 
	C694.061462,654.391663 694.103699,649.774231 694.182373,644.710571 
	C698.121216,644.327515 699.172791,641.638672 699.825195,638.511414 
	C705.208008,612.711914 710.595764,586.913330 715.998352,561.117920 
	C717.629333,553.330811 719.311707,545.554565 721.423218,537.330322 
	C728.452637,530.867981 728.367310,522.982422 728.001892,515.018433 
	C732.124878,514.207642 732.112854,517.670166 732.769592,519.971069 
	C738.918152,541.513184 744.928589,563.094727 751.002808,584.658142 
	C756.627258,604.624512 762.320801,624.571472 767.883545,644.554932 
	C768.827820,647.947021 770.100769,650.512573 774.713867,650.392334 
	C775.528503,653.563721 775.852722,656.323364 775.721008,659.183350 
	C773.266785,659.296082 771.268005,659.285950 769.270203,659.324768 
	C760.488892,659.495239 755.477661,663.580750 753.454407,672.198608 
	C751.847595,672.690247 750.243530,673.598450 748.633484,673.609436 
	C731.817566,673.723877 715.000671,673.694458 697.742554,673.792358 
	C697.141846,670.249878 697.144592,666.601746 696.737732,662.999878 
	C696.590271,661.694885 695.462524,660.500671 694.400635,659.132507 
z"/>
<path fill="#9F616B" opacity="1.000000" stroke="none" 
	d="
M759.286621,448.162903 
	C755.185181,451.182922 751.354065,453.422150 751.619141,459.543396 
	C751.772644,463.088837 748.107178,465.716309 743.952332,466.109711 
	C739.219482,466.557831 735.505615,465.236908 733.229736,460.662720 
	C731.132080,456.446838 732.000488,452.501343 735.079895,449.684906 
	C740.184082,445.016571 745.888550,441.004486 752.278198,435.977936 
	C754.842163,440.184998 757.194336,444.044556 759.286621,448.162903 
z"/>
<path fill="#9F616B" opacity="1.000000" stroke="none" 
	d="
M776.176941,659.083008 
	C775.852722,656.323364 775.528503,653.563721 775.112671,650.412231 
	C779.455994,649.076111 783.890930,648.131836 788.724854,647.176880 
	C789.092285,650.809509 789.060669,654.452759 788.555786,658.597046 
	C784.113953,659.093079 780.145447,659.088013 776.176941,659.083008 
z"/>
<path fill="#EFEFEF" opacity="1.000000" stroke="none" 
	d="
M727.629761,515.010315 
	C728.367310,522.982422 728.452637,530.867981 721.548767,536.953125 
	C722.463867,530.859802 723.620728,524.681152 725.017822,518.557373 
	C725.311707,517.269043 726.487915,516.182007 727.629761,515.010315 
z"/>
<path fill="#EFEFEF" opacity="1.000000" stroke="none" 
	d="
M766.885010,418.891663 
	C767.602905,415.685181 768.681335,412.385223 770.041382,408.223633 
	C771.925903,410.398529 773.213257,411.884247 774.823608,413.742706 
	C772.091675,415.565247 769.668640,417.181732 766.885010,418.891663 
z"/>
<path fill="#FDFDFD" opacity="1.000000" stroke="none" 
	d="
M244.939072,673.276001 
	C243.538528,673.705200 242.218750,673.694031 240.504028,673.712891 
	C235.951675,661.609680 233.315186,659.959900 217.447693,659.777100 
	C217.308105,656.049683 217.628403,652.395813 217.925278,648.310791 
	C220.529572,638.633667 223.339111,629.434570 225.747620,620.131714 
	C230.956299,600.013184 235.946960,579.838196 241.070297,559.697327 
	C241.484070,558.070679 242.231506,556.528870 242.823914,554.947632 
	C243.333801,555.004333 243.843704,555.060974 244.353592,555.117676 
	C244.550735,556.903076 244.958740,558.693909 244.913361,560.473145 
	C244.250397,586.462097 243.527313,612.449585 242.817352,638.437378 
	C242.725220,641.809387 242.609253,645.191589 247.586182,645.849854 
	C247.950653,650.226501 247.933487,654.502380 247.915771,659.221252 
	C246.985138,660.624939 245.367661,661.509644 245.251678,662.560181 
	C244.877090,665.952576 245.054901,669.405884 244.939072,673.276001 
z"/>
<path fill="#FDB8B8" opacity="1.000000" stroke="none" 
	d="
M258.547668,441.974121 
	C264.829865,448.584747 265.407349,454.922729 259.711670,458.653198 
	C257.097229,460.365601 253.208786,460.132965 249.466263,460.819641 
	C243.815125,457.180206 238.595810,453.503479 232.950699,449.526794 
	C234.640015,446.683594 236.305496,443.484009 238.404617,440.600067 
	C239.000031,439.782043 241.401794,439.183258 242.048813,439.683075 
	C245.309982,442.202423 248.578949,442.114777 252.343597,441.147675 
	C254.097565,440.697083 256.203094,441.614868 258.547668,441.974121 
z"/>
<path fill="#313043" opacity="1.000000" stroke="none" 
	d="
M775.721008,659.183350 
	C780.145447,659.088013 784.113953,659.093079 788.543457,659.056519 
	C789.932983,660.228943 791.497131,661.360840 791.666382,662.672791 
	C792.106689,666.085388 791.934570,669.576904 792.175476,673.470215 
	C780.960388,673.938416 769.576599,674.008423 758.193176,673.963257 
	C756.799622,673.957703 755.408630,673.335083 753.735413,672.598511 
	C755.477661,663.580750 760.488892,659.495239 769.270203,659.324768 
	C771.268005,659.285950 773.266785,659.296082 775.721008,659.183350 
z"/>
<path fill="#F2F2F2" opacity="1.000000" stroke="none" 
	d="
M515.031067,484.546631 
	C513.118042,482.633911 510.182739,480.465118 509.710388,477.851288 
	C508.328583,470.204742 507.540253,462.298004 514.474365,456.052246 
	C514.915405,465.352295 515.024719,474.719788 515.031067,484.546631 
z"/>
</svg>