<svg version="1.1" id="Layer_1" xmlns="http://www.w3.org/2000/svg" xmlns:xlink="http://www.w3.org/1999/xlink" x="0px" y="0px"
	 width="100%" viewBox="0 0 459 110" enable-background="new 0 0 459 110" xml:space="preserve">
<path fill="#000000" opacity="1.000000" stroke="none" 
	d="
M63.000000,111.000000 
	C57.977909,111.000000 52.955814,111.000000 47.112835,110.746391 
	C47.503754,108.228554 49.645061,106.010712 49.760780,103.691780 
	C50.182381,95.243019 50.359234,86.731285 49.789497,78.299965 
	C49.338707,71.628937 43.785328,69.129684 37.627598,72.201248 
	C34.724731,73.649239 31.941050,75.346863 29.158369,77.022720 
	C24.300947,79.948105 19.318863,82.709679 14.713128,85.994354 
	C11.727291,88.123764 11.079936,91.359596 13.336205,94.642242 
	C15.577917,97.903709 18.492544,99.141983 22.245312,97.220779 
	C24.409897,96.112640 26.504868,94.868103 28.673338,93.768074 
	C30.869440,92.654022 33.117504,91.642403 35.452164,90.533989 
	C36.013355,97.954262 36.506680,104.477127 37.000000,111.000000 
	C25.073397,111.000000 13.146791,111.000000 1.000000,111.000000 
	C1.000000,99.313362 1.000000,87.625336 1.252276,75.109444 
	C4.228585,76.102180 6.758979,78.302681 10.434700,76.113937 
	C18.262587,71.452705 26.319616,67.164986 34.029736,62.321449 
	C38.802177,59.323376 39.138062,54.319901 34.520798,51.293667 
	C26.655226,46.138439 18.466858,41.390141 10.036070,37.238579 
	C7.712470,36.094368 4.048790,37.671532 1.000000,38.000000 
	C1.000000,25.739063 1.000000,13.478125 1.000000,1.000000 
	C13.353380,1.000000 25.708031,1.000000 38.892448,1.245278 
	C36.285069,4.254308 35.554173,7.896074 35.927559,12.102811 
	C36.175198,14.892781 36.112316,17.781036 35.614498,20.521021 
	C35.474979,21.288942 32.883301,22.497120 32.135193,22.110952 
	C29.326633,20.661205 26.986795,18.264650 24.136555,16.947041 
	C21.971548,15.946198 18.946478,15.133194 16.950293,15.905925 
	C14.916906,16.693054 12.107221,19.837027 12.419913,21.388111 
	C13.017575,24.352768 14.992839,27.791035 17.459505,29.480362 
	C23.730543,33.775166 30.569216,37.247181 37.216259,40.985268 
	C44.117229,44.866158 49.794609,41.576988 49.935333,33.586315 
	C50.031895,28.103289 49.906910,22.616714 49.956890,17.132418 
	C50.010597,11.238715 50.691113,5.152077 44.345768,1.581070 
	C44.563843,1.387380 44.781921,1.193689 45.000000,1.000000 
	C51.354397,1.000000 57.708797,1.000000 64.890976,1.240719 
	C62.731659,3.703982 60.533913,6.202597 60.935795,10.402029 
	C61.267227,13.865306 61.094440,17.393000 60.936993,20.882759 
	C60.745075,25.136494 59.690323,29.453165 60.159496,33.612823 
	C61.030857,41.338264 64.521416,45.922207 73.310600,40.848778 
	C79.922005,37.032444 86.569252,33.271442 93.075211,29.281460 
	C97.770981,26.401630 99.095818,21.780809 96.611313,18.228041 
	C93.979156,14.464164 90.141342,14.131841 85.401756,17.130089 
	C81.934288,19.323599 78.385971,21.389305 75.466301,23.153824 
	C73.888954,15.329841 72.444473,8.164921 71.000000,1.000000 
	C200.666672,1.000000 330.333344,1.000000 460.000000,1.000000 
	C460.000000,16.092876 460.000000,31.077780 459.782227,46.885456 
	C458.624420,46.637440 457.616669,45.618240 456.755341,44.487499 
	C451.116669,37.085381 443.221466,33.104679 431.629974,37.975739 
	C430.179108,39.006393 429.060272,39.993614 427.706757,41.044170 
	C427.173889,41.291451 427.005615,41.557545 426.707520,41.986683 
	C426.262634,42.368382 426.077454,42.669182 425.929382,42.968979 
	C425.966522,42.967979 425.963287,42.893799 425.711975,42.984383 
	C425.292877,43.374607 425.125061,43.674248 424.979706,43.985771 
	C425.002167,43.997650 424.971771,43.956741 424.730713,44.031868 
	C424.325714,44.387447 424.161774,44.667900 423.969971,44.946770 
	C423.942047,44.945183 423.942719,45.001045 423.622864,45.149956 
	C422.857544,46.854652 422.412079,48.410431 421.982727,49.982201 
	C421.998779,49.998184 421.962616,49.972012 421.658936,50.132233 
	C421.297546,51.186440 421.239807,52.080429 421.098999,53.217430 
	C420.989227,53.629551 420.962494,53.798660 420.602905,54.180092 
	C421.486176,58.946800 422.702332,63.501183 423.956940,68.040543 
	C423.995422,68.025520 423.913391,68.029831 424.000427,68.281960 
	C424.386078,68.703110 424.684631,68.872131 424.992249,69.019333 
	C425.001312,68.997513 424.959137,69.018715 425.032837,69.270760 
	C425.396332,69.701508 425.686127,69.880211 425.987854,70.032425 
	C425.999817,70.005936 425.945129,70.025528 426.014893,70.283745 
	C426.380981,70.721046 426.677307,70.900131 426.979065,71.047424 
	C426.984497,71.015625 426.921265,71.028381 427.005981,71.279297 
	C427.385162,71.704544 427.679626,71.878868 427.985962,72.027283 
	C427.997833,72.001373 427.947235,72.027710 428.026917,72.277420 
	C428.396851,72.703796 428.687103,72.880447 428.988831,73.030838 
	C429.000336,73.004578 428.948181,73.028458 429.021667,73.275101 
	C429.392242,73.623894 429.689362,73.726051 430.204041,73.909470 
	C430.421600,73.990723 430.882812,74.045776 430.983429,74.284760 
	C431.384766,74.615997 431.685486,74.708237 432.220490,74.876907 
	C432.454773,74.953339 432.943207,75.019180 433.149292,75.363426 
	C439.470398,77.354370 445.546173,78.588585 451.308716,73.992020 
	C451.547668,73.962433 452.002167,73.803467 452.254578,73.839333 
	C452.678375,73.598122 452.849731,73.321053 453.018738,73.031952 
	C453.016327,73.019920 453.040527,73.023056 453.290222,72.955696 
	C453.711700,72.600891 453.883484,72.313446 454.029602,72.013153 
	C454.003967,72.000305 454.027222,72.052689 454.283264,71.981735 
	C454.716156,71.615944 454.892975,71.321106 455.040009,71.017410 
	C455.010223,71.008553 455.028168,71.068054 455.283081,70.990891 
	C455.712830,70.617493 455.887665,70.321251 456.034058,70.015213 
	C456.005554,70.005417 456.027466,70.061539 456.276794,69.984932 
	C456.695526,69.618156 456.864929,69.327988 457.030884,69.023087 
	C457.027374,69.008354 457.055298,69.022278 457.406982,68.866745 
	C458.505768,68.474136 459.252869,68.237068 460.000000,68.000000 
	C460.000000,82.318771 460.000000,96.637550 460.000000,111.000000 
	C330.979095,111.000000 201.958206,111.000000 72.112350,110.728104 
	C72.654121,103.781212 74.020851,97.106216 75.392113,90.409073 
	C79.195839,92.588036 82.953888,94.827003 86.793335,96.916389 
	C90.758347,99.074104 94.214363,98.033524 96.699516,94.513000 
	C99.356041,90.749710 97.742043,87.271805 94.437172,85.193260 
	C86.736313,80.349915 78.910759,75.634193 70.788948,71.557632 
	C66.017235,69.162582 60.423367,72.153473 60.945007,77.813301 
	C61.325924,81.946289 61.675041,86.273361 60.875919,90.282204 
	C59.431252,97.529449 59.807182,104.346054 63.000000,111.000000 
M392.994293,63.995628 
	C392.994293,63.995628 393.009949,64.034340 393.528809,63.886990 
	C393.708649,63.587067 393.888489,63.287144 394.523529,62.848461 
	C394.818573,62.662773 394.965576,62.395645 395.455841,61.907852 
	C395.646912,61.637383 395.837982,61.366913 396.556274,60.939873 
	C396.736084,60.632885 396.915924,60.325897 397.017120,60.018368 
	C397.017120,60.018368 397.017242,60.097019 397.540955,59.929550 
	C397.744965,59.634167 397.948975,59.338783 398.804474,59.034134 
	C399.850281,59.734432 400.896118,60.434731 401.980957,61.806145 
	C403.306641,63.221424 404.632324,64.636703 405.994965,66.003181 
	C405.994965,66.003181 405.936279,66.020630 406.090363,66.536858 
	C406.382050,66.732986 406.673737,66.929123 407.006104,67.712746 
	C407.310883,68.152802 407.615662,68.592865 408.114349,69.518456 
	C408.405121,69.693130 408.695892,69.867798 409.258484,70.663765 
	C410.725830,72.387199 412.193176,74.110634 414.012054,76.430534 
	C415.370361,75.967316 416.728638,75.504097 418.660767,74.690483 
	C418.448700,73.986549 418.424500,73.130127 417.995819,72.602005 
	C413.075928,66.540619 408.094543,60.529106 402.368347,53.580692 
	C407.966705,48.375072 413.511932,43.218845 419.269257,37.865376 
	C417.984131,36.716366 416.947968,35.789974 415.600525,34.585258 
	C407.612976,42.199780 399.877075,49.574421 392.017273,56.024899 
	C392.003876,45.029633 392.097473,34.031872 391.841156,23.042259 
	C391.809296,21.675173 389.921875,20.351358 388.894226,19.007509 
	C387.936096,20.085991 386.154175,21.156015 386.143005,22.244213 
	C385.966858,39.401836 385.967010,56.562317 386.139130,73.720016 
	C386.150055,74.805443 387.907318,75.873352 388.852173,76.949402 
	C389.896973,75.804962 391.621552,74.779152 391.846222,73.491600 
	C392.326416,70.739952 392.030121,67.852783 391.998627,65.006042 
	C391.998627,65.006042 392.011505,65.059532 392.527283,64.910721 
	C392.696167,64.610085 392.865021,64.309448 392.994293,63.995628 
M251.978653,67.717430 
	C252.307419,68.513512 252.636185,69.309593 253.001556,70.771889 
	C253.299973,71.530342 253.598389,72.288788 253.986389,73.669693 
	C254.318573,74.136276 254.650757,74.602852 255.047424,75.494324 
	C255.047424,75.494324 255.199844,75.896133 255.302536,76.639709 
	C257.647369,77.155380 259.922302,77.552788 259.994965,73.505539 
	C259.994965,73.505539 260.096527,73.036690 260.578339,72.868919 
	C260.652405,72.566833 260.726471,72.264748 260.949615,71.520775 
	C260.949615,71.520775 261.020996,71.059921 261.520050,70.892845 
	C261.605133,70.586967 261.690247,70.281097 261.929199,69.534882 
	C261.929199,69.534882 262.017426,69.076866 262.659363,68.726166 
	C263.378479,66.472054 264.097565,64.217941 264.967926,61.546520 
	C264.967926,61.546520 265.026611,61.106544 265.605713,60.828678 
	C265.681763,60.220634 265.757812,59.612591 266.149200,58.346867 
	C266.767731,57.535187 267.386230,56.723507 268.142242,55.731426 
	C271.035675,62.385681 273.695557,68.611862 276.452698,74.794662 
	C277.717560,77.631096 280.419342,78.263824 281.481598,75.493362 
	C285.062836,66.153183 287.953644,56.548290 291.764252,46.660755 
	C292.598236,43.565151 293.432251,40.469547 294.266266,37.373943 
	C293.866608,37.126171 293.466949,36.878403 293.067291,36.630630 
	C292.034515,37.392323 291.001740,38.154015 289.346771,39.268810 
	C288.876068,40.834236 288.405396,42.399658 287.989960,43.982895 
	C287.989960,43.982895 287.938629,43.950939 287.282715,44.313721 
	C284.711121,51.571434 282.139557,58.829147 279.158539,67.242470 
	C276.360046,60.501991 274.240540,54.933212 271.695190,49.566372 
	C270.989166,48.077686 269.093567,46.427246 267.604248,46.282047 
	C266.548218,46.179092 264.803070,48.280399 264.156189,49.746643 
	C262.128845,54.342033 260.560120,59.138596 258.586700,63.760258 
	C258.292236,64.449837 256.777496,64.618347 255.959793,64.393730 
	C255.635590,63.908310 255.311386,63.422894 254.928833,62.496082 
	C254.928833,62.496082 254.796234,62.071045 254.953033,61.424698 
	C254.630997,60.917492 254.308960,60.410282 253.922775,59.510674 
	C253.922775,59.510674 253.785934,59.137352 253.945358,58.435158 
	C253.302444,57.250725 252.659531,56.066292 251.956223,54.481106 
	C251.956223,54.481106 251.820740,54.099148 251.953232,53.328171 
	C250.653793,50.190559 249.354370,47.052944 248.019867,43.981033 
	C248.019867,43.981033 248.087265,43.949364 248.019821,43.169384 
	C247.520844,41.481663 247.355133,39.567707 246.413406,38.180561 
	C245.709000,37.142941 244.004074,36.784554 242.744675,36.123714 
	C242.181396,37.356102 240.866104,38.847561 241.185883,39.775726 
	C242.523300,43.657795 244.351364,47.370838 246.042160,51.499454 
	C246.042160,51.499454 246.174332,51.830215 246.043198,52.615314 
	C248.007065,57.441032 249.970917,62.266750 251.945404,67.022697 
	C251.945404,67.022697 251.875122,67.016373 251.978653,67.717430 
M108.026146,65.628021 
	C103.392677,62.626659 98.759209,59.625298 93.961739,56.517696 
	C97.962021,54.177349 101.948853,52.234867 105.470459,49.656853 
	C108.121559,47.716099 111.233345,45.516079 109.043144,41.136654 
	C107.003075,37.057411 102.629524,35.198311 98.047020,37.675457 
	C90.452309,41.780888 82.951775,46.133476 75.792816,50.948750 
	C70.156090,54.740128 70.853683,59.890026 76.801254,63.338398 
	C83.420349,67.176125 90.101906,70.926117 96.528725,75.067436 
	C99.975731,77.288620 103.283920,77.842163 106.588806,75.633827 
	C110.111038,73.280266 110.101395,69.779984 108.026146,65.628021 
M351.576508,75.103951 
	C359.297760,79.500702 366.045044,76.373222 371.566956,72.825844 
	C373.524323,74.439529 375.041107,75.690010 376.557922,76.940498 
	C377.360565,75.225983 378.820465,73.525604 378.857727,71.794624 
	C379.075928,61.651043 379.070831,51.497993 378.856018,41.354172 
	C378.818604,39.588577 377.423492,37.851734 376.655457,36.101624 
	C375.112946,37.308247 373.570404,38.514866 371.482056,40.148460 
	C371.341278,40.059208 370.175934,39.231964 368.932037,38.547417 
	C364.139008,35.909691 359.119446,35.136616 353.784302,36.694267 
	C346.001526,38.966518 341.580322,44.707817 340.226501,52.072445 
	C338.446075,61.757576 341.578583,69.962257 351.576508,75.103951 
M217.640259,77.000496 
	C231.350586,77.091003 241.005661,65.804863 237.643723,51.222836 
	C234.870346,39.193600 223.682114,33.289272 213.018600,36.684414 
	C202.462540,40.045338 198.466248,48.003803 200.136978,61.611736 
	C200.970184,68.398216 206.392548,75.596657 217.640259,77.000496 
M173.074051,36.087078 
	C170.463135,37.186298 167.852203,38.285515 166.270065,38.951607 
	C164.506485,37.798336 163.214767,36.953632 161.923050,36.108925 
	C161.274673,37.466488 160.083481,38.816269 160.063889,40.182846 
	C159.908813,50.997658 159.891769,61.817139 160.078537,72.630943 
	C160.103333,74.067276 161.512329,75.479706 162.280304,76.903214 
	C163.174271,75.448395 164.775314,74.024452 164.840408,72.533432 
	C165.130569,65.889015 164.838959,59.221233 165.034790,52.570053 
	C165.203110,46.852402 171.217438,40.997787 176.519531,41.018661 
	C182.140701,41.040791 187.977509,47.065498 188.012543,52.954266 
	C188.051163,59.444221 187.866684,65.941307 188.142685,72.419815 
	C188.208557,73.965988 189.717056,75.450699 190.562027,76.963684 
	C191.688766,75.486237 193.673538,74.071686 193.787292,72.519966 
	C194.187775,67.057426 193.937729,61.547775 193.949356,56.056034 
	C193.976883,43.056652 186.884247,35.968327 173.074051,36.087078 
M146.972046,65.513634 
	C145.780411,67.073334 144.882278,69.063599 143.342804,70.113068 
	C138.466156,73.437508 133.811401,71.193367 129.101242,69.175728 
	C127.792229,68.614998 125.972084,69.247528 124.386429,69.332626 
	C125.101753,70.601608 125.554398,72.159317 126.577431,73.090088 
	C131.249481,77.340767 137.120789,77.490074 142.847519,76.827835 
	C147.879486,76.245934 152.760239,70.572861 152.984863,66.130348 
	C153.300201,59.893784 151.322815,57.287247 144.424561,54.831333 
	C141.208420,53.686325 137.838806,52.832958 134.838562,51.271420 
	C132.936584,50.281498 131.586914,48.230415 129.989548,46.655239 
	C132.081009,44.777245 133.910324,41.978851 136.339584,41.286983 
	C138.646454,40.629974 141.672821,41.923119 144.209320,42.839157 
	C146.084045,43.516201 147.680145,44.964718 149.400391,46.069527 
	C149.857712,45.830662 150.315033,45.591801 150.772354,45.352936 
	C150.382843,43.939445 150.381104,42.215141 149.538925,41.164505 
	C145.121521,35.653614 135.823837,34.158428 129.780899,37.771797 
	C122.511658,42.118423 121.909454,50.058540 128.761383,55.042450 
	C130.895432,56.594700 133.873856,56.947289 136.396332,58.013279 
	C140.282486,59.655552 145.323013,59.532864 146.972046,65.513634 
M315.754852,19.010317 
	C306.101318,20.398409 307.459564,28.384995 305.597168,33.887379 
	C303.745209,35.211823 301.893250,36.536263 300.041290,37.860695 
	C302.111694,39.355820 304.182098,40.850945 307.004517,42.889145 
	C307.004517,46.822655 307.002777,51.971966 307.005005,57.121281 
	C307.007385,62.620041 306.889465,68.124031 307.120728,73.613235 
	C307.168091,74.736740 308.530518,75.804825 309.286743,76.898445 
	C310.187286,75.784470 311.456909,74.795349 311.887512,73.522408 
	C312.343414,72.174850 312.006439,70.557304 312.006714,69.057686 
	C312.008423,59.768726 312.007568,50.479763 312.007568,41.319511 
	C315.501892,40.483253 320.188416,42.194942 319.814819,35.796761 
	C316.944946,35.796761 314.535797,35.796761 311.648071,35.796761 
	C312.107727,33.326859 312.653290,31.430725 312.772705,29.508123 
	C312.946014,26.717358 313.452240,24.941656 316.995056,24.788673 
	C318.667542,24.716454 320.247314,22.496363 321.869110,21.249483 
	C320.108429,20.505135 318.347717,19.760786 315.754852,19.010317 
M63.001099,63.470978 
	C63.698002,62.761559 64.391693,62.048950 65.092331,61.343243 
	C69.307556,57.097553 69.306480,55.908859 65.060326,51.637089 
	C63.074696,49.639484 61.122234,47.606201 59.077267,45.670952 
	C56.356232,43.095905 53.544838,43.113304 50.848804,45.716942 
	C48.346737,48.133255 45.423832,50.320061 43.645504,53.200222 
	C42.620312,54.860619 43.022717,57.841423 43.674740,59.952316 
	C44.151497,61.495811 46.072884,62.599529 47.366184,63.883312 
	C55.655746,72.111893 54.268204,72.219460 63.001099,63.470978 
M328.011139,63.480240 
	C328.016541,66.967575 327.824677,70.473137 328.144226,73.931450 
	C328.243652,75.007774 329.684601,76.709663 330.589020,76.761131 
	C331.586395,76.817886 332.970154,75.489006 333.627930,74.420403 
	C334.164856,73.548103 333.949463,72.170647 333.950745,71.017036 
	C333.968262,55.407112 333.984161,39.797115 333.945801,24.187271 
	C333.940430,22.005564 334.701294,19.103333 331.028870,19.077381 
	C327.385712,19.051640 328.030396,21.903831 328.024750,24.124990 
	C327.992218,36.911816 328.009949,49.698765 328.011139,63.480240 
z"/>
<path fill="#2DB2E3" opacity="1.000000" stroke="none" 
	d="
M44.571537,1.000000 
	C44.781921,1.193689 44.563843,1.387380 44.345768,1.581070 
	C50.691113,5.152077 50.010597,11.238715 49.956890,17.132418 
	C49.906910,22.616714 50.031895,28.103289 49.935333,33.586315 
	C49.794609,41.576988 44.117229,44.866158 37.216259,40.985268 
	C30.569216,37.247181 23.730543,33.775166 17.459505,29.480362 
	C14.992839,27.791035 13.017575,24.352768 12.419913,21.388111 
	C12.107221,19.837027 14.916906,16.693054 16.950293,15.905925 
	C18.946478,15.133194 21.971548,15.946198 24.136555,16.947041 
	C26.986795,18.264650 29.326633,20.661205 32.135193,22.110952 
	C32.883301,22.497120 35.474979,21.288942 35.614498,20.521021 
	C36.112316,17.781036 36.175198,14.892781 35.927559,12.102811 
	C35.554173,7.896074 36.285069,4.254308 39.361107,1.245278 
	C40.714359,1.000000 42.428715,1.000000 44.571537,1.000000 
z"/>
<path fill="#2CB3E3" opacity="1.000000" stroke="none" 
	d="
M37.454109,111.000000 
	C36.506680,104.477127 36.013355,97.954262 35.452164,90.533989 
	C33.117504,91.642403 30.869440,92.654022 28.673338,93.768074 
	C26.504868,94.868103 24.409897,96.112640 22.245312,97.220779 
	C18.492544,99.141983 15.577917,97.903709 13.336205,94.642242 
	C11.079936,91.359596 11.727291,88.123764 14.713128,85.994354 
	C19.318863,82.709679 24.300947,79.948105 29.158369,77.022720 
	C31.941050,75.346863 34.724731,73.649239 37.627598,72.201248 
	C43.785328,69.129684 49.338707,71.628937 49.789497,78.299965 
	C50.359234,86.731285 50.182381,95.243019 49.760780,103.691780 
	C49.645061,106.010712 47.503754,108.228554 46.645973,110.746391 
	C43.969406,111.000000 40.938812,111.000000 37.454109,111.000000 
z"/>
<path fill="#2CB3E3" opacity="1.000000" stroke="none" 
	d="
M70.571533,1.000000 
	C72.444473,8.164921 73.888954,15.329841 75.466301,23.153824 
	C78.385971,21.389305 81.934288,19.323599 85.401756,17.130089 
	C90.141342,14.131841 93.979156,14.464164 96.611313,18.228041 
	C99.095818,21.780809 97.770981,26.401630 93.075211,29.281460 
	C86.569252,33.271442 79.922005,37.032444 73.310600,40.848778 
	C64.521416,45.922207 61.030857,41.338264 60.159496,33.612823 
	C59.690323,29.453165 60.745075,25.136494 60.936993,20.882759 
	C61.094440,17.393000 61.267227,13.865306 60.935795,10.402029 
	C60.533913,6.202597 62.731659,3.703982 65.359383,1.240719 
	C66.714355,1.000000 68.428719,1.000000 70.571533,1.000000 
z"/>
<path fill="#2DB2E3" opacity="1.000000" stroke="none" 
	d="
M1.000000,38.454109 
	C4.048790,37.671532 7.712470,36.094368 10.036070,37.238579 
	C18.466858,41.390141 26.655226,46.138439 34.520798,51.293667 
	C39.138062,54.319901 38.802177,59.323376 34.029736,62.321449 
	C26.319616,67.164986 18.262587,71.452705 10.434700,76.113937 
	C6.758979,78.302681 4.228585,76.102180 1.252276,74.640785 
	C1.000000,71.969406 1.000000,68.938812 1.235605,65.800079 
	C6.271272,62.730328 11.071334,59.768719 16.404913,56.477932 
	C10.945457,53.473377 5.972729,50.736691 1.000000,48.000000 
	C1.000000,44.969406 1.000000,41.938812 1.000000,38.454109 
z"/>
<path fill="#2CB3E3" opacity="1.000000" stroke="none" 
	d="
M63.449982,111.000000 
	C59.807182,104.346054 59.431252,97.529449 60.875919,90.282204 
	C61.675041,86.273361 61.325924,81.946289 60.945007,77.813301 
	C60.423367,72.153473 66.017235,69.162582 70.788948,71.557632 
	C78.910759,75.634193 86.736313,80.349915 94.437172,85.193260 
	C97.742043,87.271805 99.356041,90.749710 96.699516,94.513000 
	C94.214363,98.033524 90.758347,99.074104 86.793335,96.916389 
	C82.953888,94.827003 79.195839,92.588036 75.392113,90.409073 
	C74.020851,97.106216 72.654121,103.781212 71.643692,110.728104 
	C69.299988,111.000000 66.599976,111.000000 63.449982,111.000000 
z"/>
<path fill="#2FB0E0" opacity="1.000000" stroke="none" 
	d="
M452.002167,73.803467 
	C452.002167,73.803467 451.547668,73.962433 450.903625,73.996475 
	C444.615601,76.604919 438.779327,75.810654 432.943207,75.019180 
	C432.943207,75.019180 432.454773,74.953339 432.053589,74.726974 
	C431.419159,74.309639 431.162628,74.158028 430.882812,74.045776 
	C430.882812,74.045776 430.421600,73.990723 430.048828,73.753738 
	C429.458221,73.317039 429.215607,73.154274 428.948181,73.028458 
	C428.948181,73.028458 429.000336,73.004578 428.846375,72.831467 
	C428.478821,72.407051 428.230408,72.196838 427.947235,72.027710 
	C427.947235,72.027710 427.997833,72.001373 427.838379,71.829346 
	C427.459381,71.407875 427.206848,71.198235 426.921265,71.028381 
	C426.921265,71.028381 426.984497,71.015625 426.835449,70.845718 
	C426.473206,70.420403 426.226105,70.203644 425.945129,70.025528 
	C425.945129,70.025528 425.999817,70.005936 425.847412,69.832008 
	C425.484650,69.404785 425.239349,69.191658 424.959137,69.018715 
	C424.959137,69.018715 425.001312,68.997513 424.840942,68.824051 
	C424.455505,68.405800 424.199768,68.198875 423.913391,68.029831 
	C423.913391,68.029831 423.995422,68.025520 424.061432,67.748550 
	C423.063568,62.970306 421.999664,58.469036 420.935760,53.967766 
	C420.962494,53.798660 420.989227,53.629551 421.265747,52.948517 
	C421.664581,51.615063 421.813599,50.793537 421.962616,49.972012 
	C421.962616,49.972012 421.998779,49.998184 422.309937,49.842964 
	C423.061646,48.125507 423.502167,46.563274 423.942688,45.001041 
	C423.942719,45.001045 423.942047,44.945183 424.161041,44.811844 
	C424.619965,44.472916 424.817200,44.232327 424.971771,43.956741 
	C424.971771,43.956741 425.002167,43.997650 425.174805,43.832855 
	C425.592926,43.441986 425.798218,43.183899 425.963287,42.893799 
	C425.963287,42.893799 425.966522,42.967979 426.134888,42.818974 
	C426.524597,42.415234 426.745880,42.160500 426.967163,41.905773 
	C427.005615,41.557545 427.173889,41.291451 428.063965,41.023544 
	C429.757935,39.937160 430.859985,38.934738 431.962036,37.932312 
	C443.221466,33.104679 451.116669,37.085381 456.755341,44.487499 
	C457.616669,45.618240 458.624420,46.637440 459.782227,47.354115 
	C460.000000,50.030594 460.000000,53.061188 459.758667,56.548328 
	C459.517303,57.004875 459.036438,57.047050 458.720428,56.833889 
	C448.487976,56.349529 438.572144,56.019302 428.653931,55.911301 
	C427.795013,55.901951 426.920135,57.360100 426.037476,58.488678 
	C426.056580,59.543797 426.090912,60.246826 425.952942,61.191921 
	C426.564392,62.632748 427.348175,63.831505 428.369446,65.118134 
	C428.681488,65.357544 428.756012,65.509071 428.628540,65.846321 
	C429.291626,66.669991 430.156708,67.307938 431.016418,67.960281 
	C431.011108,67.974686 431.040863,67.969955 431.180054,68.163712 
	C431.529816,68.600815 431.774628,68.802605 432.028259,68.981247 
	C432.002808,68.999641 432.035797,68.946358 432.179443,69.143639 
	C432.536896,69.590279 432.784454,69.799782 433.033997,69.980888 
	C433.002228,69.992340 433.046539,69.941353 433.160706,70.250816 
	C435.194336,71.001175 437.113800,71.442070 439.434021,71.928589 
	C440.905884,72.035263 441.977020,72.096321 443.168762,72.215782 
	C443.582336,72.301979 443.799225,72.181862 443.971191,71.949829 
	C444.002258,71.985840 443.925140,71.931320 444.257202,71.924759 
	C445.386658,71.590004 446.184052,71.261818 446.986206,70.964767 
	C446.990906,70.995895 446.939972,70.958862 447.135254,70.860710 
	C447.579620,70.607117 447.800110,70.418297 448.223022,70.121284 
	C448.454010,70.046471 448.932709,69.964455 449.131470,69.830452 
	C449.581116,69.492966 449.791779,69.254005 449.975647,68.983925 
	C449.989075,68.988281 449.980316,68.961418 450.171448,68.825562 
	C450.602386,68.483208 450.799957,68.242119 450.975769,67.980362 
	C450.996216,67.994316 450.965149,67.955154 451.157806,67.817879 
	C451.593018,67.473602 451.794891,67.232544 451.978027,66.978714 
	C452.000000,67.000000 451.957092,66.957703 452.151428,66.817902 
	C452.591064,66.469429 452.791565,66.224144 453.025085,65.706680 
	C453.293762,65.167542 453.567871,65.000595 454.238892,64.944839 
	C455.386810,66.287025 456.221069,67.654648 457.055298,69.022278 
	C457.055298,69.022278 457.027374,69.008354 456.835754,69.165306 
	C456.398224,69.535027 456.192688,69.781456 456.027466,70.061539 
	C456.027466,70.061539 456.005554,70.005417 455.834595,70.160835 
	C455.411957,70.533180 455.200134,70.783783 455.028168,71.068054 
	C455.028168,71.068054 455.010223,71.008553 454.839508,71.160187 
	C454.415405,71.524544 454.201538,71.771492 454.027222,72.052689 
	C454.027222,72.052689 454.003967,72.000305 453.833252,72.150299 
	C453.414795,72.506454 453.207458,72.747375 453.040527,73.023056 
	C453.040527,73.023056 453.016327,73.019920 452.828735,73.129471 
	C452.399109,73.394287 452.186127,73.582436 452.002167,73.803467 
M448.690857,43.616699 
	C448.485321,43.376141 448.244781,43.178104 448.000000,43.000153 
	C448.000000,43.000153 447.973083,43.027626 447.760925,42.426056 
	C446.161926,41.976147 444.562897,41.526237 442.138519,41.012753 
	C434.068146,41.289711 429.230682,44.766785 427.299194,52.506935 
	C427.817810,52.865864 428.328583,53.524609 428.856201,53.538361 
	C435.806183,53.719532 442.760071,53.923889 449.708984,53.828724 
	C451.135712,53.809189 452.545959,52.584446 454.019928,51.288395 
	C454.004517,50.869465 453.989105,50.450531 454.291901,49.534199 
	C453.260712,48.347878 452.229523,47.161552 450.950897,45.443390 
	C450.634430,45.223240 450.317932,45.003094 449.704041,44.486561 
	C449.493500,44.298523 449.258484,44.149033 448.962646,44.036118 
	C448.962646,44.036118 448.961304,43.999775 448.690857,43.616699 
z"/>
<path fill="#000000" opacity="1.000000" stroke="none" 
	d="
M428.830505,65.660599 
	C428.756012,65.509071 428.681488,65.357544 428.296783,64.782166 
	C427.366150,63.222172 426.745728,62.086010 426.125275,60.949852 
	C426.090912,60.246826 426.056580,59.543797 426.499146,58.425854 
	C435.799805,57.996078 444.624237,58.032505 453.446930,57.925060 
	C455.313385,57.902328 457.173431,57.353481 459.036438,57.047047 
	C459.036438,57.047050 459.517303,57.004875 459.758667,57.002438 
	C460.000000,58.714100 460.000000,60.428200 459.750641,62.934319 
	C457.642578,64.140976 455.783905,64.555626 453.925201,64.970276 
	C453.567871,65.000595 453.293762,65.167542 452.780334,65.782990 
	C452.290894,66.382477 452.123993,66.670090 451.957092,66.957703 
	C451.957092,66.957703 452.000000,67.000000 451.728943,67.045921 
	C451.293640,67.379616 451.129395,67.667381 450.965149,67.955154 
	C450.965149,67.955154 450.996216,67.994316 450.732239,68.052689 
	C450.305603,68.394508 450.142944,68.677963 449.980316,68.961418 
	C449.980316,68.961418 449.989075,68.988281 449.726929,69.051117 
	C449.287445,69.397453 449.110077,69.680954 448.932709,69.964462 
	C448.932709,69.964455 448.454010,70.046471 447.966736,70.081047 
	C447.299622,70.396706 447.119812,70.677788 446.940002,70.958870 
	C446.939972,70.958862 446.990906,70.995895 446.636993,70.990585 
	C445.497101,71.300621 444.711121,71.615967 443.925140,71.931320 
	C443.925140,71.931320 444.002258,71.985840 443.744507,71.996643 
	C443.486755,72.007454 443.048126,72.157387 443.048126,72.157387 
	C441.977020,72.096321 440.905884,72.035263 439.253174,71.607040 
	C436.796570,70.807045 434.921570,70.374199 433.046539,69.941353 
	C433.046539,69.941353 433.002228,69.992340 432.957733,69.728737 
	C432.620758,69.292206 432.328278,69.119286 432.035797,68.946358 
	C432.035797,68.946358 432.002808,68.999641 431.955139,68.732574 
	C431.618622,68.300323 431.329742,68.135132 431.040863,67.969955 
	C431.040863,67.969955 431.011108,67.974686 430.940979,67.699760 
	C430.190765,66.836754 429.510620,66.248672 428.830505,65.660599 
z"/>
<path fill="#000000" opacity="1.000000" stroke="none" 
	d="
M1.000000,48.467606 
	C5.972729,50.736691 10.945457,53.473377 16.404913,56.477932 
	C11.071334,59.768719 6.271272,62.730328 1.235605,65.345970 
	C1.000000,59.645069 1.000000,54.290142 1.000000,48.467606 
z"/>
<path fill="#34ADD8" opacity="1.000000" stroke="none" 
	d="
M454.238892,64.944839 
	C455.783905,64.555626 457.642578,64.140976 459.750641,63.363167 
	C460.000000,64.388893 460.000000,65.777779 460.000000,67.583336 
	C459.252869,68.237068 458.505768,68.474136 457.406982,68.866737 
	C456.221069,67.654648 455.386810,66.287025 454.238892,64.944839 
z"/>
<path fill="#2CB2E3" opacity="1.000000" stroke="none" 
	d="
M108.296204,65.893021 
	C110.101395,69.779984 110.111038,73.280266 106.588806,75.633827 
	C103.283920,77.842163 99.975731,77.288620 96.528725,75.067436 
	C90.101906,70.926117 83.420349,67.176125 76.801254,63.338398 
	C70.853683,59.890026 70.156090,54.740128 75.792816,50.948750 
	C82.951775,46.133476 90.452309,41.780888 98.047020,37.675457 
	C102.629524,35.198311 107.003075,37.057411 109.043144,41.136654 
	C111.233345,45.516079 108.121559,47.716099 105.470459,49.656853 
	C101.948853,52.234867 97.962021,54.177349 93.961739,56.517696 
	C98.759209,59.625298 103.392677,62.626659 108.296204,65.893021 
z"/>
<path fill="#2FAEDC" opacity="1.000000" stroke="none" 
	d="
M351.195435,75.022751 
	C341.578583,69.962257 338.446075,61.757576 340.226501,52.072445 
	C341.580322,44.707817 346.001526,38.966518 353.784302,36.694267 
	C359.119446,35.136616 364.139008,35.909691 368.932037,38.547417 
	C370.175934,39.231964 371.341278,40.059208 371.482056,40.148460 
	C373.570404,38.514866 375.112946,37.308247 376.655457,36.101616 
	C377.423492,37.851734 378.818604,39.588577 378.856018,41.354172 
	C379.070831,51.497993 379.075928,61.651043 378.857727,71.794624 
	C378.820465,73.525604 377.360565,75.225983 376.557922,76.940498 
	C375.041107,75.690010 373.524323,74.439529 371.566956,72.825844 
	C366.045044,76.373222 359.297760,79.500702 351.195435,75.022751 
M366.870697,43.338135 
	C363.478851,42.787563 359.962738,41.387039 356.720673,41.861012 
	C349.684204,42.889717 345.517639,48.777897 345.138123,55.699444 
	C344.630676,64.954094 352.259766,72.421196 360.695099,71.228653 
	C367.055542,70.329483 371.265808,66.765518 372.660522,61.256100 
	C374.262543,54.927612 373.349976,48.400608 366.870697,43.338135 
z"/>
<path fill="#30AEDB" opacity="1.000000" stroke="none" 
	d="
M217.207474,76.998169 
	C206.392548,75.596657 200.970184,68.398216 200.136978,61.611736 
	C198.466248,48.003803 202.462540,40.045338 213.018600,36.684414 
	C223.682114,33.289272 234.870346,39.193600 237.643723,51.222836 
	C241.005661,65.804863 231.350586,77.091003 217.207474,76.998169 
M229.636017,47.053612 
	C225.908051,43.119987 221.811401,39.879353 215.931488,41.545319 
	C207.251541,44.004616 202.714996,52.424641 205.102219,61.281654 
	C206.799149,67.577576 214.499252,72.192650 220.275574,71.430626 
	C230.638351,70.063515 236.586792,57.337090 229.636017,47.053612 
z"/>
<path fill="#31AEDB" opacity="1.000000" stroke="none" 
	d="
M173.499649,36.071220 
	C186.884247,35.968327 193.976883,43.056652 193.949356,56.056034 
	C193.937729,61.547775 194.187775,67.057426 193.787292,72.519966 
	C193.673538,74.071686 191.688766,75.486237 190.562027,76.963684 
	C189.717056,75.450699 188.208557,73.965988 188.142685,72.419815 
	C187.866684,65.941307 188.051163,59.444221 188.012543,52.954266 
	C187.977509,47.065498 182.140701,41.040791 176.519531,41.018661 
	C171.217438,40.997787 165.203110,46.852402 165.034790,52.570053 
	C164.838959,59.221233 165.130569,65.889015 164.840408,72.533432 
	C164.775314,74.024452 163.174271,75.448395 162.280304,76.903214 
	C161.512329,75.479706 160.103333,74.067276 160.078537,72.630943 
	C159.891769,61.817139 159.908813,50.997658 160.063889,40.182846 
	C160.083481,38.816269 161.274673,37.466488 161.923050,36.108925 
	C163.214767,36.953632 164.506485,37.798336 166.270065,38.951607 
	C167.852203,38.285515 170.463135,37.186298 173.499649,36.071220 
z"/>
<path fill="#31AEDB" opacity="1.000000" stroke="none" 
	d="
M146.970642,65.116623 
	C145.323013,59.532864 140.282486,59.655552 136.396332,58.013279 
	C133.873856,56.947289 130.895432,56.594700 128.761383,55.042450 
	C121.909454,50.058540 122.511658,42.118423 129.780899,37.771797 
	C135.823837,34.158428 145.121521,35.653614 149.538925,41.164505 
	C150.381104,42.215141 150.382843,43.939445 150.772354,45.352936 
	C150.315033,45.591801 149.857712,45.830662 149.400391,46.069527 
	C147.680145,44.964718 146.084045,43.516201 144.209320,42.839157 
	C141.672821,41.923119 138.646454,40.629974 136.339584,41.286983 
	C133.910324,41.978851 132.081009,44.777245 129.989548,46.655235 
	C131.586914,48.230415 132.936584,50.281498 134.838562,51.271420 
	C137.838806,52.832958 141.208420,53.686325 144.424561,54.831333 
	C151.322815,57.287247 153.300201,59.893784 152.984863,66.130348 
	C152.760239,70.572861 147.879486,76.245934 142.847519,76.827835 
	C137.120789,77.490074 131.249481,77.340767 126.577431,73.090088 
	C125.554398,72.159317 125.101753,70.601608 124.386429,69.332626 
	C125.972084,69.247528 127.792229,68.614998 129.101242,69.175728 
	C133.811401,71.193367 138.466156,73.437508 143.342804,70.113068 
	C144.882278,69.063599 145.780411,67.073334 146.970642,65.116623 
z"/>
<path fill="#30B0DE" opacity="1.000000" stroke="none" 
	d="
M261.020996,71.059921 
	C261.020996,71.059921 260.949615,71.520775 260.710571,71.783310 
	C260.346558,72.376129 260.221558,72.706413 260.096527,73.036697 
	C260.096527,73.036690 259.994965,73.505539 259.620148,73.853210 
	C257.896851,74.765968 256.548340,75.331055 255.199844,75.896133 
	C255.199844,75.896133 255.047424,75.494324 254.960449,74.990677 
	C254.547928,74.007095 254.222382,73.527161 253.896820,73.047226 
	C253.598389,72.288788 253.299973,71.530342 252.971786,70.100052 
	C252.586380,68.624268 252.230759,67.820320 251.875122,67.016373 
	C251.875122,67.016373 251.945404,67.022697 251.960312,66.781281 
	C251.988220,66.355637 252.001205,66.171402 252.296539,65.861176 
	C253.361526,65.488022 254.144165,65.240868 255.151917,65.002754 
	C255.377029,65.011795 255.827301,65.027924 255.827301,65.027924 
	C256.777496,64.618347 258.292236,64.449837 258.586700,63.760258 
	C260.560120,59.138596 262.128845,54.342033 264.156189,49.746643 
	C264.803070,48.280399 266.548218,46.179092 267.604248,46.282047 
	C269.093567,46.427246 270.989166,48.077686 271.695190,49.566372 
	C274.240540,54.933212 276.360046,60.501991 279.158539,67.242470 
	C282.139557,58.829147 284.711121,51.571434 287.626770,44.523552 
	C288.131165,46.427258 288.291534,48.121140 288.559235,50.948505 
	C289.894104,48.904320 290.501312,47.974476 291.108521,47.044636 
	C287.953644,56.548290 285.062836,66.153183 281.481598,75.493362 
	C280.419342,78.263824 277.717560,77.631096 276.452698,74.794662 
	C273.695557,68.611862 271.035675,62.385681 268.142242,55.731426 
	C267.386230,56.723507 266.767731,57.535187 265.826538,58.909924 
	C265.344757,60.017502 265.185699,60.562023 265.026611,61.106544 
	C265.026611,61.106544 264.967926,61.546520 264.576050,61.906796 
	C263.461945,64.537003 262.739685,66.806938 262.017426,69.076866 
	C262.017426,69.076866 261.929199,69.534882 261.691406,69.910355 
	C261.252655,70.512161 261.108459,70.770195 261.020996,71.059921 
z"/>
<path fill="#2FAFDE" opacity="1.000000" stroke="none" 
	d="
M316.170959,19.013378 
	C318.347717,19.760786 320.108429,20.505135 321.869110,21.249477 
	C320.247314,22.496363 318.667542,24.716454 316.995056,24.788673 
	C313.452240,24.941656 312.946014,26.717358 312.772705,29.508123 
	C312.653290,31.430725 312.107727,33.326859 311.648071,35.796761 
	C314.535797,35.796761 316.944946,35.796761 319.814819,35.796761 
	C320.188416,42.194942 315.501892,40.483253 312.007568,41.319511 
	C312.007568,50.479763 312.008423,59.768726 312.006714,69.057686 
	C312.006439,70.557304 312.343414,72.174850 311.887512,73.522408 
	C311.456909,74.795349 310.187286,75.784470 309.286743,76.898453 
	C308.530518,75.804825 307.168091,74.736740 307.120728,73.613235 
	C306.889465,68.124031 307.007385,62.620041 307.005005,57.121281 
	C307.002777,51.971966 307.004517,46.822655 307.004517,42.889145 
	C304.182098,40.850945 302.111694,39.355820 300.041290,37.860699 
	C301.893250,36.536263 303.745209,35.211823 305.597168,33.887379 
	C307.459564,28.384995 306.101318,20.398409 316.170959,19.013378 
z"/>
<path fill="#2DB1E0" opacity="1.000000" stroke="none" 
	d="
M62.750404,63.728073 
	C54.268204,72.219460 55.655746,72.111893 47.366184,63.883312 
	C46.072884,62.599529 44.151497,61.495811 43.674740,59.952316 
	C43.022717,57.841423 42.620312,54.860619 43.645504,53.200222 
	C45.423832,50.320061 48.346737,48.133255 50.848804,45.716942 
	C53.544838,43.113304 56.356232,43.095905 59.077267,45.670952 
	C61.122234,47.606201 63.074696,49.639484 65.060326,51.637089 
	C69.306480,55.908859 69.307556,57.097553 65.092331,61.343243 
	C64.391693,62.048950 63.698002,62.761559 62.750404,63.728073 
M51.200123,56.613819 
	C53.985470,61.425716 54.274170,61.421646 58.938606,56.349140 
	C57.648319,55.163319 56.359356,53.978710 54.258190,52.047661 
	C53.212757,53.541615 52.361847,54.757584 51.200123,56.613819 
z"/>
<path fill="#33ACD6" opacity="1.000000" stroke="none" 
	d="
M328.010895,62.982956 
	C328.009949,49.698765 327.992218,36.911816 328.024750,24.124990 
	C328.030396,21.903831 327.385712,19.051640 331.028870,19.077381 
	C334.701294,19.103333 333.940430,22.005564 333.945801,24.187271 
	C333.984161,39.797115 333.968262,55.407112 333.950745,71.017036 
	C333.949463,72.170647 334.164856,73.548103 333.627930,74.420403 
	C332.970154,75.489006 331.586395,76.817886 330.589020,76.761131 
	C329.684601,76.709663 328.243652,75.007774 328.144226,73.931450 
	C327.824677,70.473137 328.016541,66.967575 328.010895,62.982956 
z"/>
<path fill="#30AEDD" opacity="1.000000" stroke="none" 
	d="
M392.141174,56.949066 
	C399.877075,49.574421 407.612976,42.199780 415.600525,34.585258 
	C416.947968,35.789974 417.984131,36.716366 419.269257,37.865376 
	C413.511932,43.218845 407.966705,48.375072 402.368347,53.580692 
	C408.094543,60.529106 413.075928,66.540619 417.995819,72.602005 
	C418.424500,73.130127 418.448700,73.986549 418.025543,74.853012 
	C416.147034,75.288399 414.903778,75.561241 413.660492,75.834076 
	C412.193176,74.110634 410.725830,72.387199 408.983612,70.146790 
	C408.490356,69.372269 408.227570,69.173302 407.920441,69.032921 
	C407.615662,68.592865 407.310883,68.152802 406.853333,67.201035 
	C406.445801,66.466431 406.191040,66.243530 405.936279,66.020630 
	C405.936279,66.020630 405.994965,66.003181 405.965332,65.683380 
	C404.604431,63.954067 403.273193,62.544544 401.941925,61.135025 
	C400.896118,60.434731 399.850281,59.734432 398.255066,59.174072 
	C397.476166,59.575012 397.246704,59.836014 397.017242,60.097015 
	C397.017242,60.097019 397.017120,60.018368 396.847290,60.166199 
	C396.461334,60.574821 396.245178,60.835617 396.029053,61.096428 
	C395.837982,61.366913 395.646912,61.637383 394.991089,61.745865 
	C393.049438,60.045399 391.572540,58.506924 390.436523,56.964233 
	C391.231964,56.956367 391.686584,56.952717 392.141174,56.949066 
z"/>
<path fill="#39A6CD" opacity="1.000000" stroke="none" 
	d="
M392.079224,56.486984 
	C391.686584,56.952717 391.231964,56.956367 390.417358,56.499607 
	C390.057312,44.433186 390.057312,32.827175 390.057312,21.221165 
	C389.551544,21.235287 389.045746,21.249407 388.539978,21.263527 
	C388.539978,38.768566 388.539978,56.273602 388.539978,74.886841 
	C389.990662,70.811516 391.021271,67.916321 392.051880,65.021133 
	C392.030121,67.852783 392.326416,70.739952 391.846222,73.491600 
	C391.621552,74.779152 389.896973,75.804962 388.852173,76.949402 
	C387.907318,75.873352 386.150055,74.805443 386.139130,73.720016 
	C385.967010,56.562317 385.966858,39.401836 386.143005,22.244213 
	C386.154175,21.156015 387.936096,20.085991 388.894226,19.007500 
	C389.921875,20.351358 391.809296,21.675173 391.841156,23.042259 
	C392.097473,34.031872 392.003876,45.029633 392.079224,56.486984 
z"/>
<path fill="#24B6ED" opacity="1.000000" stroke="none" 
	d="
M392.025269,65.013580 
	C391.021271,67.916321 389.990662,70.811516 388.539978,74.886841 
	C388.539978,56.273602 388.539978,38.768566 388.539978,21.263527 
	C389.045746,21.249407 389.551544,21.235287 390.057312,21.221165 
	C390.057312,32.827175 390.057312,44.433186 390.076477,56.503822 
	C391.572540,58.506924 393.049438,60.045399 394.745483,61.815475 
	C394.965576,62.395645 394.818573,62.662773 394.066071,63.032837 
	C393.409058,63.489582 393.209503,63.761955 393.009949,64.034332 
	C393.009949,64.034340 392.994293,63.995628 392.794373,64.124451 
	C392.400116,64.522026 392.205811,64.790771 392.011475,65.059525 
	C392.011505,65.059532 391.998627,65.006042 392.025269,65.013580 
z"/>
<path fill="#24B5E7" opacity="1.000000" stroke="none" 
	d="
M254.926819,64.993721 
	C254.144165,65.240868 253.361526,65.488022 252.258484,65.477791 
	C250.016830,60.757015 248.095581,56.293617 246.174332,51.830215 
	C246.174332,51.830215 246.042160,51.499454 246.023071,50.872746 
	C246.002441,48.164253 246.000916,46.082466 245.999695,44.000343 
	C246.000000,44.000000 246.000610,43.999260 246.348297,43.988926 
	C247.159744,43.968849 247.623505,43.959106 248.087265,43.949364 
	C248.087265,43.949364 248.019867,43.981033 248.030090,44.356346 
	C249.300446,47.854153 250.560593,50.976646 251.820740,54.099144 
	C251.820740,54.099148 251.956223,54.481106 251.985794,55.041351 
	C252.605560,56.780182 253.195740,57.958767 253.785934,59.137352 
	C253.785934,59.137352 253.922775,59.510674 253.984924,60.000595 
	C254.296783,61.017361 254.546509,61.544205 254.796234,62.071045 
	C254.796234,62.071045 254.928833,62.496082 254.937683,63.059761 
	C254.939972,64.080208 254.933395,64.536964 254.926819,64.993721 
z"/>
<path fill="#3AA8CE" opacity="1.000000" stroke="none" 
	d="
M245.999390,44.000679 
	C246.000916,46.082466 246.002441,48.164253 246.001801,50.695930 
	C244.351364,47.370838 242.523300,43.657795 241.185883,39.775726 
	C240.866104,38.847561 242.181396,37.356102 242.744675,36.123718 
	C244.004074,36.784554 245.709000,37.142941 246.413406,38.180561 
	C247.355133,39.567707 247.520844,41.481663 248.053543,43.559372 
	C247.623505,43.959106 247.159744,43.968849 246.310974,43.797417 
	C245.604477,43.483902 245.282990,43.351562 244.961487,43.219223 
	C245.307449,43.479710 245.653427,43.740192 245.999390,44.000679 
z"/>
<path fill="#2AB2E1" opacity="1.000000" stroke="none" 
	d="
M291.436401,46.852695 
	C290.501312,47.974476 289.894104,48.904320 288.559235,50.948505 
	C288.291534,48.121140 288.131165,46.427258 287.954712,44.342159 
	C287.938629,43.950939 287.989960,43.982895 288.256500,43.772457 
	C289.005005,42.013248 289.487000,40.464478 289.968994,38.915710 
	C291.001740,38.154015 292.034515,37.392323 293.067291,36.630630 
	C293.466949,36.878403 293.866608,37.126171 294.266266,37.373943 
	C293.432251,40.469547 292.598236,43.565151 291.436401,46.852695 
z"/>
<path fill="#3AA8CE" opacity="1.000000" stroke="none" 
	d="
M246.108765,52.222767 
	C248.095581,56.293617 250.016830,60.757015 251.976135,65.603790 
	C252.001205,66.171402 251.988220,66.355637 251.954987,66.816162 
	C249.970917,62.266750 248.007065,57.441032 246.108765,52.222767 
z"/>
<path fill="#34ADD8" opacity="1.000000" stroke="none" 
	d="
M420.602905,54.180092 
	C421.999664,58.469036 423.063568,62.970306 424.022949,67.763573 
	C422.702332,63.501183 421.486176,58.946800 420.602905,54.180092 
z"/>
<path fill="#34ADD8" opacity="1.000000" stroke="none" 
	d="
M433.149292,75.363426 
	C438.779327,75.810654 444.615601,76.604919 450.664673,74.026062 
	C445.546173,78.588585 439.470398,77.354370 433.149292,75.363426 
z"/>
<path fill="#3AA8CE" opacity="1.000000" stroke="none" 
	d="
M251.886993,53.713657 
	C250.560593,50.976646 249.300446,47.854153 248.047607,44.323494 
	C249.354370,47.052944 250.653793,50.190559 251.886993,53.713657 
z"/>
<path fill="#39A6CD" opacity="1.000000" stroke="none" 
	d="
M401.961426,61.470581 
	C403.273193,62.544544 404.604431,63.954067 405.946838,65.707779 
	C404.632324,64.636703 403.306641,63.221424 401.961426,61.470581 
z"/>
<path fill="#3AA8CE" opacity="1.000000" stroke="none" 
	d="
M262.338379,68.901520 
	C262.739685,66.806938 263.461945,64.537003 264.500427,62.115448 
	C264.097565,64.217941 263.378479,66.472054 262.338379,68.901520 
z"/>
<path fill="#39A6CD" opacity="1.000000" stroke="none" 
	d="
M413.836273,76.132309 
	C414.903778,75.561241 416.147034,75.288399 417.738647,75.028214 
	C416.728638,75.504097 415.370361,75.967316 413.836273,76.132309 
z"/>
<path fill="#34ADD8" opacity="1.000000" stroke="none" 
	d="
M431.629974,37.975742 
	C430.859985,38.934738 429.757935,39.937160 428.298645,40.960213 
	C429.060272,39.993614 430.179108,39.006393 431.629974,37.975742 
z"/>
<path fill="#3AA8CE" opacity="1.000000" stroke="none" 
	d="
M255.251190,76.267921 
	C256.548340,75.331055 257.896851,74.765968 259.541656,74.079865 
	C259.922302,77.552788 257.647369,77.155380 255.251190,76.267921 
z"/>
<path fill="#34ADD8" opacity="1.000000" stroke="none" 
	d="
M423.622833,45.149956 
	C423.502167,46.563274 423.061646,48.125507 422.293884,49.826977 
	C422.412079,48.410431 422.857544,46.854652 423.622833,45.149956 
z"/>
<path fill="#30B0DE" opacity="1.000000" stroke="none" 
	d="
M289.657898,39.092262 
	C289.487000,40.464478 289.005005,42.013248 288.228882,43.763550 
	C288.405396,42.399658 288.876068,40.834236 289.657898,39.092262 
z"/>
<path fill="#3AA8CE" opacity="1.000000" stroke="none" 
	d="
M253.865646,58.786255 
	C253.195740,57.958767 252.605560,56.780182 252.015991,55.241730 
	C252.659531,56.066292 253.302444,57.250725 253.865646,58.786255 
z"/>
<path fill="#3AA8CE" opacity="1.000000" stroke="none" 
	d="
M251.926880,67.366898 
	C252.230759,67.820320 252.586380,68.624268 252.953491,69.766945 
	C252.636185,69.309593 252.307419,68.513512 251.926880,67.366898 
z"/>
<path fill="#34ADD8" opacity="1.000000" stroke="none" 
	d="
M421.658936,50.132233 
	C421.813599,50.793537 421.664581,51.615063 421.348816,52.705505 
	C421.239807,52.080429 421.297546,51.186440 421.658936,50.132233 
z"/>
<path fill="#3AA8CE" opacity="1.000000" stroke="none" 
	d="
M255.151917,65.002762 
	C254.933395,64.536964 254.939972,64.080208 254.966858,63.280457 
	C255.311386,63.422894 255.635590,63.908310 255.893555,64.710831 
	C255.827301,65.027924 255.377029,65.011795 255.151917,65.002762 
z"/>
<path fill="#3AA8CE" opacity="1.000000" stroke="none" 
	d="
M265.316162,60.967613 
	C265.185699,60.562023 265.344757,60.017502 265.668884,59.238766 
	C265.757812,59.612591 265.681763,60.220634 265.316162,60.967613 
z"/>
<path fill="#3AA8CE" opacity="1.000000" stroke="none" 
	d="
M260.337433,72.952805 
	C260.221558,72.706413 260.346558,72.376129 260.636047,72.004257 
	C260.726471,72.264748 260.652405,72.566833 260.337433,72.952805 
z"/>
<path fill="#3AA8CE" opacity="1.000000" stroke="none" 
	d="
M253.941620,73.358459 
	C254.222382,73.527161 254.547928,74.007095 254.928207,74.778229 
	C254.650757,74.602852 254.318573,74.136276 253.941620,73.358459 
z"/>
<path fill="#3AA8CE" opacity="1.000000" stroke="none" 
	d="
M254.874634,61.747871 
	C254.546509,61.544205 254.296783,61.017361 254.016998,60.196796 
	C254.308960,60.410282 254.630997,60.917492 254.874634,61.747871 
z"/>
<path fill="#34ADD8" opacity="1.000000" stroke="none" 
	d="
M452.254578,73.839333 
	C452.186127,73.582436 452.399109,73.394287 452.831116,73.141495 
	C452.849731,73.321053 452.678375,73.598122 452.254578,73.839333 
z"/>
<path fill="#34ADD8" opacity="1.000000" stroke="none" 
	d="
M429.021667,73.275101 
	C429.215607,73.154274 429.458221,73.317039 429.831268,73.672485 
	C429.689362,73.726051 429.392242,73.623894 429.021667,73.275101 
z"/>
<path fill="#34ADD8" opacity="1.000000" stroke="none" 
	d="
M430.983429,74.284760 
	C431.162628,74.158028 431.419159,74.309639 431.819305,74.650551 
	C431.685486,74.708237 431.384766,74.615997 430.983429,74.284760 
z"/>
<path fill="#34ADD8" opacity="1.000000" stroke="none" 
	d="
M453.290222,72.955696 
	C453.207458,72.747375 453.414795,72.506454 453.858887,72.163147 
	C453.883484,72.313446 453.711700,72.600891 453.290222,72.955696 
z"/>
<path fill="#34ADD8" opacity="1.000000" stroke="none" 
	d="
M428.026917,72.277420 
	C428.230408,72.196838 428.478821,72.407051 428.834900,72.857727 
	C428.687103,72.880447 428.396851,72.703796 428.026917,72.277420 
z"/>
<path fill="#34ADD8" opacity="1.000000" stroke="none" 
	d="
M424.730713,44.031868 
	C424.817200,44.232327 424.619965,44.472916 424.188965,44.813431 
	C424.161774,44.667900 424.325714,44.387447 424.730713,44.031868 
z"/>
<path fill="#34ADD8" opacity="1.000000" stroke="none" 
	d="
M454.283264,71.981735 
	C454.201538,71.771492 454.415405,71.524544 454.869293,71.169052 
	C454.892975,71.321106 454.716156,71.615944 454.283264,71.981735 
z"/>
<path fill="#34ADD8" opacity="1.000000" stroke="none" 
	d="
M427.005981,71.279297 
	C427.206848,71.198235 427.459381,71.407875 427.826477,71.855255 
	C427.679626,71.878868 427.385162,71.704544 427.005981,71.279297 
z"/>
<path fill="#39A6CD" opacity="1.000000" stroke="none" 
	d="
M396.292664,61.018143 
	C396.245178,60.835617 396.461334,60.574821 396.886627,60.166470 
	C396.915924,60.325897 396.736084,60.632885 396.292664,61.018143 
z"/>
<path fill="#34ADD8" opacity="1.000000" stroke="none" 
	d="
M426.707489,41.986675 
	C426.745880,42.160500 426.524597,42.415234 426.097778,42.819977 
	C426.077454,42.669182 426.262634,42.368382 426.707489,41.986675 
z"/>
<path fill="#34ADD8" opacity="1.000000" stroke="none" 
	d="
M455.283081,70.990891 
	C455.200134,70.783783 455.411957,70.533180 455.863068,70.170639 
	C455.887665,70.321251 455.712830,70.617493 455.283081,70.990891 
z"/>
<path fill="#39A6CD" opacity="1.000000" stroke="none" 
	d="
M393.269348,63.960655 
	C393.209503,63.761955 393.409058,63.489582 393.838470,63.102215 
	C393.888489,63.287144 393.708649,63.587067 393.269348,63.960655 
z"/>
<path fill="#39A6CD" opacity="1.000000" stroke="none" 
	d="
M392.269379,64.985123 
	C392.205811,64.790771 392.400116,64.522026 392.814148,64.131042 
	C392.865021,64.309448 392.696167,64.610085 392.269379,64.985123 
z"/>
<path fill="#39A6CD" opacity="1.000000" stroke="none" 
	d="
M397.279114,60.013283 
	C397.246704,59.836014 397.476166,59.575012 397.929321,59.178711 
	C397.948975,59.338783 397.744965,59.634167 397.279114,60.013283 
z"/>
<path fill="#39A6CD" opacity="1.000000" stroke="none" 
	d="
M406.013306,66.278740 
	C406.191040,66.243530 406.445801,66.466431 406.833008,66.907295 
	C406.673737,66.929123 406.382050,66.732986 406.013306,66.278740 
z"/>
<path fill="#34ADD8" opacity="1.000000" stroke="none" 
	d="
M425.711975,42.984383 
	C425.798218,43.183899 425.592926,43.441986 425.152344,43.820976 
	C425.125061,43.674248 425.292877,43.374607 425.711975,42.984383 
z"/>
<path fill="#34ADD8" opacity="1.000000" stroke="none" 
	d="
M424.000427,68.281960 
	C424.199768,68.198875 424.455505,68.405800 424.831909,68.845871 
	C424.684631,68.872131 424.386078,68.703110 424.000427,68.281960 
z"/>
<path fill="#39A6CD" opacity="1.000000" stroke="none" 
	d="
M408.017395,69.275688 
	C408.227570,69.173302 408.490356,69.372269 408.847717,69.836151 
	C408.695892,69.867798 408.405121,69.693130 408.017395,69.275688 
z"/>
<path fill="#34ADD8" opacity="1.000000" stroke="none" 
	d="
M425.032837,69.270760 
	C425.239349,69.191658 425.484650,69.404785 425.835480,69.858498 
	C425.686127,69.880211 425.396332,69.701508 425.032837,69.270760 
z"/>
<path fill="#34ADD8" opacity="1.000000" stroke="none" 
	d="
M456.276794,69.984932 
	C456.192688,69.781456 456.398224,69.535027 456.839233,69.180038 
	C456.864929,69.327988 456.695526,69.618156 456.276794,69.984932 
z"/>
<path fill="#3AA8CE" opacity="1.000000" stroke="none" 
	d="
M261.270508,70.976379 
	C261.108459,70.770195 261.252655,70.512161 261.614471,70.130524 
	C261.690247,70.281097 261.605133,70.586967 261.270508,70.976379 
z"/>
<path fill="#34ADD8" opacity="1.000000" stroke="none" 
	d="
M426.014893,70.283745 
	C426.226105,70.203644 426.473206,70.420403 426.830017,70.877510 
	C426.677307,70.900131 426.380981,70.721046 426.014893,70.283745 
z"/>
<path fill="#000000" opacity="1.000000" stroke="none" 
	d="
M450.001434,44.782948 
	C450.317932,45.003094 450.634430,45.223240 451.083038,46.034355 
	C452.134705,47.760750 453.054199,48.896172 453.973694,50.031593 
	C453.989105,50.450531 454.004517,50.869465 453.527252,51.639359 
	C444.377136,51.943295 435.719727,51.896267 427.062286,51.849243 
	C429.230682,44.766785 434.068146,41.289711 442.722412,41.356728 
	C444.861908,42.143013 446.417511,42.585320 447.973083,43.027626 
	C447.973083,43.027626 448.000000,43.000153 448.058502,43.253563 
	C448.398438,43.671238 448.679871,43.835503 448.961304,43.999771 
	C448.961304,43.999775 448.962646,44.036118 449.045959,44.278790 
	C449.420013,44.608624 449.710724,44.695786 450.001434,44.782948 
z"/>
<path fill="#34ADD8" opacity="1.000000" stroke="none" 
	d="
M458.720428,56.833885 
	C457.173431,57.353481 455.313385,57.902328 453.446930,57.925060 
	C444.624237,58.032505 435.799805,57.996078 426.514343,58.073761 
	C426.920135,57.360100 427.795013,55.901951 428.653931,55.911301 
	C438.572144,56.019302 448.487976,56.349529 458.720428,56.833885 
z"/>
<path fill="#34ADD8" opacity="1.000000" stroke="none" 
	d="
M427.180725,52.178089 
	C435.719727,51.896267 444.377136,51.943295 453.499207,51.952774 
	C452.545959,52.584446 451.135712,53.809189 449.708984,53.828724 
	C442.760071,53.923889 435.806183,53.719532 428.856201,53.538361 
	C428.328583,53.524609 427.817810,52.865864 427.180725,52.178089 
z"/>
<path fill="#34ADD8" opacity="1.000000" stroke="none" 
	d="
M454.132812,49.782898 
	C453.054199,48.896172 452.134705,47.760750 451.206757,46.300278 
	C452.229523,47.161552 453.260712,48.347878 454.132812,49.782898 
z"/>
<path fill="#34ADD8" opacity="1.000000" stroke="none" 
	d="
M447.867004,42.726841 
	C446.417511,42.585320 444.861908,42.143013 443.135132,41.388519 
	C444.562897,41.526237 446.161926,41.976147 447.867004,42.726841 
z"/>
<path fill="#34ADD8" opacity="1.000000" stroke="none" 
	d="
M433.160706,70.250816 
	C434.921570,70.374199 436.796570,70.807045 438.852417,71.561432 
	C437.113800,71.442070 435.194336,71.001175 433.160706,70.250816 
z"/>
<path fill="#34ADD8" opacity="1.000000" stroke="none" 
	d="
M425.952942,61.191917 
	C426.745728,62.086010 427.366150,63.222172 428.059265,64.694298 
	C427.348175,63.831505 426.564392,62.632748 425.952942,61.191917 
z"/>
<path fill="#34ADD8" opacity="1.000000" stroke="none" 
	d="
M428.628540,65.846329 
	C429.510620,66.248672 430.190765,66.836754 430.946320,67.685356 
	C430.156708,67.307938 429.291626,66.669991 428.628540,65.846329 
z"/>
<path fill="#34ADD8" opacity="1.000000" stroke="none" 
	d="
M444.257202,71.924759 
	C444.711121,71.615967 445.497101,71.300621 446.632263,70.959457 
	C446.184052,71.261818 445.386658,71.590004 444.257202,71.924759 
z"/>
<path fill="#34ADD8" opacity="1.000000" stroke="none" 
	d="
M449.852722,44.634754 
	C449.710724,44.695786 449.420013,44.608624 449.064148,44.279774 
	C449.258484,44.149033 449.493500,44.298523 449.852722,44.634754 
z"/>
<path fill="#34ADD8" opacity="1.000000" stroke="none" 
	d="
M443.168762,72.215782 
	C443.048126,72.157387 443.486755,72.007454 443.713440,71.960632 
	C443.799225,72.181862 443.582336,72.301979 443.168762,72.215782 
z"/>
<path fill="#34ADD8" opacity="1.000000" stroke="none" 
	d="
M448.826080,43.808235 
	C448.679871,43.835503 448.398438,43.671238 448.043091,43.264782 
	C448.244781,43.178104 448.485321,43.376141 448.826080,43.808235 
z"/>
<path fill="#34ADD8" opacity="1.000000" stroke="none" 
	d="
M431.180054,68.163712 
	C431.329742,68.135132 431.618622,68.300323 431.980591,68.714180 
	C431.774628,68.802605 431.529816,68.600815 431.180054,68.163712 
z"/>
<path fill="#34ADD8" opacity="1.000000" stroke="none" 
	d="
M452.151428,66.817894 
	C452.123993,66.670090 452.290894,66.382477 452.702545,66.018555 
	C452.791565,66.224144 452.591064,66.469429 452.151428,66.817894 
z"/>
<path fill="#34ADD8" opacity="1.000000" stroke="none" 
	d="
M451.157806,67.817871 
	C451.129395,67.667381 451.293640,67.379616 451.706970,67.024635 
	C451.794891,67.232544 451.593018,67.473602 451.157806,67.817871 
z"/>
<path fill="#34ADD8" opacity="1.000000" stroke="none" 
	d="
M447.135254,70.860718 
	C447.119812,70.677788 447.299622,70.396706 447.735718,70.155861 
	C447.800110,70.418297 447.579620,70.607117 447.135254,70.860718 
z"/>
<path fill="#34ADD8" opacity="1.000000" stroke="none" 
	d="
M450.171448,68.825562 
	C450.142944,68.677963 450.305603,68.394508 450.711761,68.038734 
	C450.799957,68.242119 450.602386,68.483208 450.171448,68.825562 
z"/>
<path fill="#34ADD8" opacity="1.000000" stroke="none" 
	d="
M432.179443,69.143639 
	C432.328278,69.119286 432.620758,69.292206 432.989502,69.717285 
	C432.784454,69.799782 432.536896,69.590279 432.179443,69.143639 
z"/>
<path fill="#34ADD8" opacity="1.000000" stroke="none" 
	d="
M449.131470,69.830460 
	C449.110077,69.680954 449.287445,69.397453 449.713501,69.046753 
	C449.791779,69.254005 449.581116,69.492966 449.131470,69.830460 
z"/>
<path fill="#000000" opacity="1.000000" stroke="none" 
	d="
M367.138306,43.612373 
	C373.349976,48.400608 374.262543,54.927612 372.660522,61.256100 
	C371.265808,66.765518 367.055542,70.329483 360.695099,71.228653 
	C352.259766,72.421196 344.630676,64.954094 345.138123,55.699444 
	C345.517639,48.777897 349.684204,42.889717 356.720673,41.861012 
	C359.962738,41.387039 363.478851,42.787563 367.138306,43.612373 
z"/>
<path fill="#000000" opacity="1.000000" stroke="none" 
	d="
M229.884125,47.341473 
	C236.586792,57.337090 230.638351,70.063515 220.275574,71.430626 
	C214.499252,72.192650 206.799149,67.577576 205.102219,61.281654 
	C202.714996,52.424641 207.251541,44.004616 215.931488,41.545319 
	C221.811401,39.879353 225.908051,43.119987 229.884125,47.341473 
z"/>
<path fill="#000000" opacity="1.000000" stroke="none" 
	d="
M51.355530,56.293686 
	C52.361847,54.757584 53.212757,53.541615 54.258190,52.047661 
	C56.359356,53.978710 57.648319,55.163319 58.938606,56.349140 
	C54.274170,61.421646 53.985470,61.425716 51.355530,56.293686 
z"/>
<path fill="#24B5E7" opacity="1.000000" stroke="none" 
	d="
M245.999695,44.000340 
	C245.653427,43.740192 245.307449,43.479710 244.961487,43.219223 
	C245.282990,43.351562 245.604477,43.483902 245.963287,43.807747 
	C246.000610,43.999260 246.000000,44.000000 245.999695,44.000340 
z"/>
</svg>