<?xml version="1.0" standalone="no"?>
<!DOCTYPE svg PUBLIC "-//W3C//DTD SVG 20010904//EN"
 "http://www.w3.org/TR/2001/REC-SVG-20010904/DTD/svg10.dtd">
<svg version="1.0" xmlns="http://www.w3.org/2000/svg"
 width="419.000000pt" height="419.000000pt" viewBox="0 0 419.000000 419.000000"
 preserveAspectRatio="xMidYMid meet">

<g transform="translate(0.000000,419.000000) scale(0.100000,-0.100000)"
fill="#000000" stroke="none">
<path d="M3260 2370 c-8 -14 -10 -123 -8 -338 3 -289 5 -320 22 -356 11 -21
33 -47 50 -57 57 -35 146 -19 146 26 0 23 -30 45 -60 45 -21 0 -35 8 -47 27
-16 24 -18 60 -21 337 -2 199 -7 315 -14 323 -16 20 -56 16 -68 -7z"/>
<path d="M2742 2318 c-9 -9 -12 -89 -12 -297 0 -268 1 -287 21 -328 28 -58 69
-86 136 -91 55 -5 93 13 93 44 0 23 -31 44 -65 44 -21 0 -44 9 -62 24 l-28 24
0 154 0 153 60 5 c53 4 60 8 63 28 6 38 -15 52 -74 52 l-54 0 0 84 c0 64 -4
88 -16 100 -18 19 -45 21 -62 4z"/>
<path d="M881 2144 c-20 -15 -21 -22 -21 -268 0 -191 3 -256 13 -263 27 -21
48 -22 67 -3 18 18 20 34 20 201 l0 181 33 33 c60 60 142 59 184 -4 22 -32 23
-43 23 -211 0 -181 4 -200 41 -213 9 -3 26 1 38 9 20 14 21 23 21 192 0 158 2
180 20 209 57 94 196 76 219 -28 4 -19 8 -107 9 -197 0 -89 4 -167 7 -172 9
-14 58 -13 73 2 16 16 16 347 1 403 -16 56 -44 92 -92 117 -40 21 -57 22 -338
24 -249 2 -300 0 -318 -12z"/>
<path d="M2071 2148 c-21 -7 -21 -10 -19 -275 l3 -268 34 -3 c20 -2 37 2 42
10 5 7 9 87 9 178 0 194 8 220 81 258 83 43 185 16 227 -61 13 -26 17 -63 20
-187 3 -203 3 -202 50 -198 l37 3 0 196 0 196 -30 49 c-23 36 -45 56 -86 77
-52 27 -63 28 -201 31 -80 1 -155 -1 -167 -6z"/>
<path d="M1806 2134 c-14 -13 -16 -51 -16 -263 0 -266 1 -271 52 -271 21 0 31
6 38 25 16 41 9 482 -7 505 -17 24 -46 26 -67 4z"/>
<path d="M3466 2129 c-17 -25 -20 -19 136 -313 l90 -168 -56 -126 c-34 -75
-54 -132 -51 -143 8 -25 53 -36 70 -18 20 21 336 740 333 758 -5 24 -55 38
-73 20 -8 -7 -50 -95 -94 -194 -43 -99 -83 -181 -89 -183 -5 -1 -51 80 -102
180 -50 101 -97 189 -102 196 -16 19 -45 14 -62 -9z"/>
<path d="M536 2083 c-14 -21 -32 -58 -41 -82 -35 -100 -8 -165 79 -187 45 -11
28 17 -19 30 -55 16 -60 39 -6 30 34 -5 41 -4 41 10 0 11 -9 16 -29 16 -43 0
-61 10 -61 31 0 17 3 18 21 9 22 -12 64 -10 64 4 0 4 -15 13 -34 20 -49 16
-54 39 -7 31 42 -8 48 6 11 23 -14 6 -25 18 -25 27 0 18 12 19 28 3 9 -9 12
-3 12 30 0 23 -2 42 -5 42 -3 0 -16 -17 -29 -37z"/>
<path d="M590 2093 c0 -33 14 -51 25 -33 9 15 25 12 25 -5 0 -8 -9 -20 -20
-27 -19 -12 -28 -38 -12 -38 4 0 18 7 30 16 13 9 26 14 29 10 11 -10 -7 -36
-32 -46 -14 -5 -25 -14 -25 -20 0 -15 32 -12 57 5 16 11 24 12 29 3 8 -13 -39
-58 -62 -58 -8 0 -14 -5 -14 -11 0 -11 28 -9 64 6 36 15 11 -19 -28 -39 -25
-12 -34 -22 -27 -29 18 -18 75 25 85 65 8 32 5 46 -22 100 -17 35 -47 79 -66
97 l-36 35 0 -31z"/>
<path d="M380 1963 c-86 -13 -200 -49 -200 -64 0 -6 95 -39 114 -39 12 0 6 28
-9 40 -19 16 -19 30 0 30 9 0 24 -20 35 -45 14 -33 25 -45 41 -45 18 0 21 5
17 33 -3 17 -8 40 -13 50 -5 12 -3 17 8 17 19 0 40 -50 35 -85 -2 -21 2 -30
19 -36 12 -4 25 -5 27 0 3 4 2 40 -1 79 -6 78 -4 76 -73 65z"/>
<path d="M180 1830 c30 -59 114 -146 175 -181 86 -49 166 -36 221 37 23 29 25
37 13 45 -27 17 -45 9 -58 -26 -12 -35 -56 -74 -68 -62 -3 4 8 22 26 42 29 34
42 75 22 75 -5 0 -16 3 -25 6 -11 4 -16 0 -16 -15 0 -27 -57 -91 -81 -91 -22
0 -25 18 -4 26 16 7 55 65 55 83 0 6 -10 15 -22 20 -19 7 -26 3 -39 -18 -25
-41 -56 -64 -75 -57 -15 6 -12 12 19 37 20 17 37 37 37 44 0 18 -43 32 -48 16
-4 -12 -54 -41 -72 -41 -5 0 -10 7 -10 15 0 8 8 15 19 15 10 0 24 7 31 15 10
13 7 17 -24 30 -21 9 -51 18 -67 22 l-31 6 22 -43z"/>
<path d="M490 1810 c0 -5 5 -10 11 -10 5 0 7 5 4 10 -3 6 -8 10 -11 10 -2 0
-4 -4 -4 -10z"/>
<path d="M3046 1688 c-33 -46 -4 -108 49 -108 55 0 87 77 47 113 -27 25 -78
22 -96 -5z"/>
</g>
</svg>
