<?xml version="1.0" standalone="no"?>
<!DOCTYPE svg PUBLIC "-//W3C//DTD SVG 20010904//EN"
 "http://www.w3.org/TR/2001/REC-SVG-20010904/DTD/svg10.dtd">
<svg version="1.0" xmlns="http://www.w3.org/2000/svg"
 width="547.000000pt" height="456.000000pt" viewBox="0 0 547.000000 456.000000"
 preserveAspectRatio="xMidYMid meet">

<g transform="translate(0.000000,456.000000) scale(0.100000,-0.100000)"
fill="#000000" stroke="none">
<path d="M2950 3294 c-8 -3 -22 -8 -30 -11 -8 -3 -21 -7 -29 -9 -18 -3 -201
-92 -201 -97 0 -3 46 12 110 36 59 22 174 40 285 45 l130 5 -55 13 c-65 15
-189 26 -210 18z"/>
<path d="M2860 3171 c-37 -5 -25 -8 70 -14 121 -7 268 -40 375 -83 206 -83
450 -280 552 -446 20 -32 39 -58 42 -58 4 0 47 38 97 84 l89 84 -55 57 c-151
155 -386 284 -640 350 -94 25 -126 28 -295 30 -104 2 -210 0 -235 -4z"/>
<path d="M1905 3118 c-33 -17 -61 -31 -62 -32 -5 -4 38 -89 70 -141 109 -177
297 -361 462 -454 l40 -22 -35 27 c-167 132 -311 346 -376 562 -16 50 -31 92
-34 92 -3 -1 -32 -15 -65 -32z"/>
<path d="M2955 3103 c238 -69 470 -246 627 -481 31 -45 66 -107 78 -137 12
-30 27 -55 32 -55 11 0 158 99 158 106 0 23 -122 167 -206 244 -187 172 -401
276 -672 330 -71 14 -78 11 -17 -7z"/>
<path d="M1693 3002 c-40 -26 -73 -50 -73 -54 0 -16 102 -140 174 -211 164
-161 387 -286 600 -338 106 -25 125 -23 50 5 -251 93 -531 353 -632 586 -14
33 -30 60 -36 60 -6 0 -44 -22 -83 -48z"/>
<path d="M2602 3019 c-113 -56 -175 -157 -174 -284 1 -231 248 -370 454 -258
144 78 197 254 123 406 -73 148 -256 210 -403 136z m116 -96 c2 -20 -1 -24 -9
-16 -7 7 -9 19 -6 27 9 23 12 20 15 -11z m33 -16 c-8 -8 -11 -5 -11 9 0 27 14
41 18 19 2 -9 -1 -22 -7 -28z m41 18 c-4 -26 -22 -35 -22 -12 0 10 18 37 26
37 1 0 -1 -11 -4 -25z m-102 -10 c0 -8 -4 -15 -8 -15 -5 0 -9 7 -9 15 0 8 4
15 9 15 4 0 8 -7 8 -15z m-38 -10 c4 -5 8 -13 8 -17 0 -15 -15 -8 -28 12 -10
16 -10 20 0 18 7 -2 16 -7 20 -13z m168 -5 c-11 -20 3 -30 15 -10 9 14 25 12
23 -2 -2 -7 3 -12 10 -10 8 1 16 -7 19 -18 3 -11 12 -20 21 -20 8 0 -2 -13
-23 -30 -44 -35 -52 -36 -77 -13 -19 17 -24 58 -8 68 6 4 8 11 4 16 -8 13 3
39 16 39 8 0 8 -6 0 -20z m-192 -29 c3 -10 0 -10 -17 -2 -25 14 -27 20 -4 17
9 -2 19 -8 21 -15z m-28 -16 c7 -8 8 -15 2 -15 -5 0 -15 7 -22 15 -7 8 -8 15
-2 15 5 0 15 -7 22 -15z m-10 -36 c0 -14 -16 -11 -29 5 -10 12 -8 13 8 9 12
-3 21 -9 21 -14z m320 -31 c-13 -5 -25 -6 -29 -3 -9 10 21 24 37 17 12 -4 10
-7 -8 -14z m-335 2 c3 -5 -1 -10 -9 -10 -8 0 -18 5 -21 10 -3 6 1 10 9 10 8 0
18 -4 21 -10z m5 -36 c0 -2 -12 -4 -27 -4 -21 0 -24 3 -14 9 13 8 41 5 41 -5z
m350 6 c12 -8 9 -10 -12 -10 -16 0 -28 5 -28 10 0 13 20 13 40 0z m-365 -40
c-3 -5 -11 -10 -16 -10 -6 0 -7 5 -4 10 3 6 11 10 16 10 6 0 7 -4 4 -10z m365
0 c18 -12 2 -12 -25 0 -13 6 -15 9 -5 9 8 0 22 -4 30 -9z m-350 -30 c0 -5 -9
-10 -21 -10 -11 0 -17 5 -14 10 3 6 13 10 21 10 8 0 14 -4 14 -10z m345 0 c-3
-5 -15 -10 -26 -10 -10 0 -19 5 -19 10 0 6 12 10 26 10 14 0 23 -4 19 -10z
m-335 -29 c0 -5 -7 -11 -15 -15 -15 -5 -20 5 -8 17 9 10 23 9 23 -2z m310 -1
c8 -5 11 -12 7 -16 -4 -4 -15 0 -24 9 -18 18 -8 23 17 7z m-300 -35 c-7 -8
-17 -15 -22 -15 -6 0 -5 7 2 15 7 8 17 15 22 15 6 0 5 -7 -2 -15z m280 0 c7
-8 8 -15 2 -15 -5 0 -15 7 -22 15 -7 8 -8 15 -2 15 5 0 15 -7 22 -15z m-250
-20 c-7 -9 -15 -13 -17 -11 -7 7 7 26 19 26 6 0 6 -6 -2 -15z m230 -5 c8 -16
8 -20 -2 -18 -23 5 -39 38 -18 38 5 0 14 -9 20 -20z m-209 -23 c-8 -8 -11 -7
-11 4 0 20 13 34 18 19 3 -7 -1 -17 -7 -23z m179 3 c0 -5 -5 -12 -12 -16 -7
-4 -8 -3 -4 4 4 7 2 12 -3 12 -6 0 -11 4 -11 10 0 5 7 7 15 4 8 -4 15 -10 15
-14z m-143 -10 c-1 -12 -5 -16 -10 -11 -5 5 -6 14 -3 20 11 16 15 13 13 -9z
m29 -27 c-10 -26 -18 -8 -9 23 5 21 8 24 11 11 2 -10 1 -25 -2 -34z m44 22 c0
-8 -4 -17 -10 -20 -6 -4 -10 5 -10 20 0 15 4 24 10 20 6 -3 10 -12 10 -20z
m30 4 c0 -11 -4 -17 -10 -14 -5 3 -10 13 -10 21 0 8 5 14 10 14 6 0 10 -9 10
-21z"/>
<path d="M3040 3023 c142 -104 248 -225 334 -385 42 -78 106 -240 106 -271 1
-37 17 -38 83 -6 37 17 67 36 67 41 0 13 -46 101 -84 161 -104 163 -283 336
-446 432 -75 44 -96 54 -60 28z"/>
<path d="M1535 2888 c-62 -48 -145 -131 -145 -143 0 -26 186 -182 295 -247 98
-58 155 -84 266 -121 197 -66 399 -89 595 -66 l119 14 -120 6 c-66 3 -150 14
-187 22 -222 54 -444 176 -603 333 -63 62 -142 161 -166 206 l-15 28 -39 -32z"/>
<path d="M3120 2893 c0 -7 4 -14 9 -18 14 -8 87 -143 106 -195 34 -92 63 -211
70 -277 3 -37 8 -84 11 -104 l5 -36 52 17 c28 9 52 21 54 27 7 20 -37 163 -76
248 -56 120 -231 377 -231 338z"/>
<path d="M3185 2570 c2 -51 10 -99 16 -107 10 -11 10 -13 -1 -11 -8 2 -14 -10
-16 -34 -2 -25 1 -38 9 -38 8 0 7 -4 -3 -11 -12 -9 -13 -12 -1 -16 9 -4 10 -7
2 -13 -8 -5 -9 -14 -2 -33 8 -21 7 -25 -4 -20 -10 3 -15 -2 -15 -16 0 -24 10
-27 28 -9 8 8 12 8 12 1 0 -11 -29 -28 -43 -24 -5 1 -6 -3 -3 -8 4 -6 18 -6
36 -1 44 13 55 21 39 31 -10 6 -11 9 -1 9 14 0 16 36 2 45 -5 3 -10 12 -10 18
0 7 4 6 10 -3 8 -12 10 -9 10 11 0 15 -3 41 -6 59 -6 26 -11 31 -29 28 -12 -3
-22 0 -22 7 0 7 8 10 19 7 21 -5 25 17 6 37 -11 11 -10 12 1 6 11 -6 13 -2 7
21 -3 16 -8 40 -11 54 -3 14 -8 36 -12 50 -3 14 -7 28 -7 32 -1 3 -4 10 -9 14
-4 4 -5 -34 -2 -86z m35 -65 c0 -5 -5 -3 -10 5 -5 8 -10 20 -10 25 0 6 5 3 10
-5 5 -8 10 -19 10 -25z"/>
<path d="M3122 2559 c-3 -62 -39 -182 -80 -274 -23 -49 -39 -91 -37 -93 2 -3
20 -1 40 2 27 5 39 14 46 34 20 51 40 209 36 288 -1 43 -4 63 -5 43z"/>
<path d="M3021 2403 c-21 -42 -75 -113 -135 -177 -20 -21 -36 -40 -36 -42 0
-2 15 -4 34 -4 30 0 38 6 70 55 39 58 101 194 92 202 -2 3 -14 -13 -25 -34z"/>
<path d="M2913 2352 c-28 -26 -93 -73 -145 -104 -51 -32 -100 -62 -108 -67
-11 -7 0 -10 37 -10 51 -1 55 1 121 62 62 56 102 99 141 150 21 27 10 20 -46
-31z"/>
<path d="M2765 2316 c-127 -52 -236 -71 -413 -71 -165 0 -164 -2 23 -40 l109
-22 81 27 c84 29 271 116 281 131 7 12 12 13 -81 -25z"/>
<path d="M2353 1880 c-80 -36 -109 -131 -57 -184 27 -26 44 -33 162 -60 35 -8
72 -22 82 -31 22 -20 15 -51 -16 -72 -32 -20 -135 -14 -162 10 -25 22 -55 21
-76 -2 -22 -24 -16 -34 39 -67 76 -44 204 -43 260 4 58 48 72 118 34 166 -26
33 -51 43 -149 62 -84 16 -120 35 -120 64 0 53 116 73 183 31 34 -21 37 -21
62 -5 33 22 32 36 -7 59 -80 49 -164 58 -235 25z"/>
<path d="M3218 1885 c-57 -21 -94 -53 -124 -108 -95 -175 69 -381 260 -327 57
16 123 72 147 124 82 181 -99 379 -283 311z m152 -94 c68 -48 88 -127 49 -191
-27 -44 -44 -57 -92 -70 -100 -28 -193 66 -173 175 8 39 65 101 99 108 36 8
90 -3 117 -22z"/>
<path d="M1390 1878 c0 -7 39 -106 87 -220 l86 -208 52 0 52 0 86 208 c48 114
87 213 87 220 0 13 -44 15 -74 3 -12 -5 -39 -59 -81 -167 -34 -87 -66 -159
-70 -159 -4 0 -37 75 -74 168 l-65 167 -43 0 c-28 0 -43 -4 -43 -12z"/>
<path d="M2004 1877 c-2 -7 -3 -105 -2 -217 l3 -205 40 0 40 0 3 202 c2 173 0
203 -14 217 -19 19 -63 21 -70 3z"/>
<path d="M2810 1823 c0 -38 -3 -120 -7 -184 -3 -64 -3 -133 1 -153 7 -34 9
-36 46 -36 l40 0 0 214 c0 232 1 226 -56 226 -23 0 -24 -3 -24 -67z"/>
<path d="M3700 1671 l0 -221 40 0 40 0 0 140 c0 77 3 140 8 140 4 0 30 -31 57
-67 28 -37 76 -100 108 -140 54 -69 60 -73 97 -73 l40 0 0 220 0 220 -40 0
-40 0 0 -140 c0 -77 -4 -140 -8 -140 -5 0 -24 21 -43 48 -18 26 -41 56 -51 67
-9 11 -41 52 -70 90 -50 65 -57 70 -96 73 l-42 3 0 -220z"/>
</g>
</svg>
