<?xml version="1.0" standalone="no"?>
<!DOCTYPE svg PUBLIC "-//W3C//DTD SVG 20010904//EN"
 "http://www.w3.org/TR/2001/REC-SVG-20010904/DTD/svg10.dtd">
<svg version="1.0" xmlns="http://www.w3.org/2000/svg"
 width="632.000000pt" height="395.000000pt" viewBox="0 0 632.000000 395.000000"
 preserveAspectRatio="xMidYMid meet">

<g transform="translate(0.000000,395.000000) scale(0.100000,-0.100000)"
fill="#000000" stroke="none">
<path d="M5798 2620 c-84 -21 -173 -92 -213 -171 -40 -77 -50 -162 -32 -250
26 -128 64 -194 183 -319 59 -62 94 -122 94 -161 0 -33 -38 -69 -74 -69 -46 0
-120 44 -174 102 -14 15 -29 25 -33 22 -5 -3 -9 -84 -9 -179 l0 -175 38 -25
c48 -32 133 -62 199 -71 126 -16 271 70 327 195 63 140 49 351 -31 457 -13 17
-23 33 -23 36 0 11 -67 78 -77 78 -15 0 -92 86 -103 116 -26 68 -3 108 62 107
53 -1 75 -11 129 -60 21 -19 43 -32 49 -28 13 8 13 280 0 306 -12 21 -111 75
-156 84 -55 12 -119 14 -156 5z"/>
<path d="M4200 2614 c-18 -6 -55 -22 -90 -38 -45 -20 -113 -99 -146 -171 -62
-132 -85 -341 -65 -580 21 -249 91 -387 233 -462 48 -25 63 -28 153 -28 87 0
107 3 155 26 103 48 178 151 215 294 29 108 40 291 27 443 -13 158 -30 231
-73 321 -64 129 -162 193 -309 198 -47 1 -92 0 -100 -3z m132 -334 c65 -88 65
-523 -1 -610 -26 -36 -60 -32 -88 8 -12 18 -19 40 -17 47 3 8 2 20 -2 27 -5 7
-10 47 -12 88 -2 41 -8 82 -12 90 -4 8 -4 40 1 70 5 30 9 71 8 90 -1 19 2 43
6 53 4 9 5 26 2 37 -3 11 -1 23 4 26 5 3 9 11 8 17 -3 23 1 35 22 61 26 33 55
31 81 -4z"/>
<path d="M4756 2587 c-16 -12 -17 -44 -14 -482 4 -449 5 -473 25 -533 53 -159
166 -235 348 -235 160 0 271 65 331 196 l29 62 3 496 3 496 -23 7 c-30 8 -242
8 -262 0 -14 -5 -16 -53 -16 -434 0 -256 -4 -439 -10 -454 -5 -15 -21 -31 -35
-38 -21 -10 -30 -8 -51 8 l-25 19 1 430 c0 376 -2 433 -15 453 -15 21 -23 22
-144 22 -88 0 -133 -4 -145 -13z"/>
<path d="M180 2564 c-16 -41 -13 -1176 3 -1197 11 -16 36 -17 262 -15 l250 3
0 150 0 150 -107 3 -108 3 0 458 c0 409 -2 460 -16 465 -9 3 -74 6 -145 6
l-129 0 -10 -26z"/>
<path d="M760 2571 c-13 -26 -13 -831 0 -925 19 -127 85 -232 176 -279 51 -26
139 -40 223 -35 156 9 267 94 311 238 19 62 20 90 18 540 l-3 475 -145 0 -145
0 -5 -448 c-5 -429 -6 -449 -24 -463 -11 -8 -32 -14 -48 -14 -55 0 -56 5 -53
465 2 343 0 424 -12 443 -13 21 -19 22 -148 22 -123 0 -135 -2 -145 -19z"/>
<path d="M1623 2575 c-8 -8 -13 -42 -13 -82 0 -37 -9 -210 -20 -383 -35 -562
-42 -710 -36 -735 6 -25 6 -25 132 -25 130 0 130 0 139 47 2 10 4 18 5 18 2 0
12 328 13 477 1 75 5 140 10 144 4 4 7 -1 7 -12 1 -58 90 -647 100 -659 16
-20 202 -21 218 -2 5 6 28 149 51 317 23 168 45 319 49 335 5 17 11 -109 15
-303 6 -269 10 -336 21 -348 11 -10 43 -14 129 -14 155 0 149 -8 137 185 -5
83 -21 347 -35 589 -15 278 -29 444 -36 452 -9 11 -48 14 -174 14 -142 0 -164
-2 -177 -17 -15 -17 -41 -161 -40 -222 0 -14 -4 -30 -8 -36 -4 -5 -10 -40 -13
-77 -3 -37 -8 -72 -11 -77 -4 -5 -7 -32 -7 -60 -1 -28 -5 -51 -9 -51 -10 0
-14 24 -55 294 -20 125 -38 232 -41 237 -3 5 -80 9 -172 9 -131 -1 -170 -4
-179 -15z"/>
<path d="M2677 2584 c-4 -4 -7 -281 -7 -615 0 -544 2 -607 16 -613 23 -9 257
-7 272 2 10 7 12 137 10 618 l-3 609 -141 3 c-77 1 -143 -1 -147 -4z"/>
<path d="M3086 2574 c-3 -9 -6 -280 -6 -602 1 -472 3 -590 14 -604 11 -15 31
-18 133 -18 103 0 122 3 136 18 14 16 17 52 19 251 l3 234 64 -241 c35 -132
69 -246 74 -251 17 -17 272 -14 286 3 8 9 10 179 9 617 l-3 604 -137 3 -138 3
0 -256 c0 -140 -4 -255 -8 -255 -8 0 -52 140 -58 185 -1 11 -3 20 -4 20 -2 0
-7 22 -13 50 -2 8 -6 17 -9 21 -4 3 -4 12 -2 19 3 7 0 16 -5 20 -6 3 -9 11 -5
16 3 5 1 15 -4 22 -5 7 -9 19 -9 27 0 24 -24 104 -35 118 -8 8 -51 12 -153 12
-121 0 -144 -2 -149 -16z"/>
</g>
</svg>
