<?xml version="1.0" encoding="UTF-8"?>
<svg version="1.1" xmlns="http://www.w3.org/2000/svg" width="200" height="94">
<path d="M0 0 C2.40262054 1.28139762 2.82167409 2.42413224 3.61328125 4.98046875 C4.13174211 6.97319247 4.57082082 8.98615921 5 11 C5.556875 10.34 6.11375 9.68 6.6875 9 C9 7 9 7 11.5 6.4375 C15.08356245 7.24380155 16.06591288 8.96072024 18 12 C18.2475 13.0828125 18.2475 13.0828125 18.5 14.1875 C18.7475 15.0846875 18.7475 15.0846875 19 16 C19.60585937 16.27714844 20.21171875 16.55429687 20.8359375 16.83984375 C23.52371925 18.28076646 24.50002968 19.81418291 26.125 22.375 C26.62257813 23.14585938 27.12015625 23.91671875 27.6328125 24.7109375 C33.96270177 35.30898068 33.79705481 46.09451187 32 58 C34.64 58.33 37.28 58.66 40 59 C40 59.33 40 59.66 40 60 C29.21628422 61.79626825 18.74007974 62.2857223 7.82226562 62.20581055 C5.26682387 62.18761976 2.71174976 62.18530153 0.15625 62.18554688 C-8.38310225 62.16925666 -16.92025898 62.01233854 -25.453125 61.67578125 C-26.23919128 61.65404343 -27.02525757 61.6323056 -27.83514404 61.60990906 C-32.3241277 61.39919452 -35.47768144 60.87689609 -39 58 C-42.84065132 47.94115131 -41.65498151 36.93245172 -37.875 27.0625 C-30.99652101 15.82765099 -30.99652101 15.82765099 -25.2421875 14.23828125 C-24.50226563 14.15964844 -23.76234375 14.08101562 -23 14 C-23 13.34 -23 12.68 -23 12 C-19.27034861 9.96564469 -17.33094958 9 -13 9 C-12.731875 8.071875 -12.46375 7.14375 -12.1875 6.1875 C-9.77660248 -0.2838565 -6.57274539 -0.96253594 0 0 Z " fill="#5C8D38" transform="translate(105,32)"/>
<path d="M0 0 C1.32411006 2.64822012 1.01892401 4.48938194 0.87890625 7.4453125 C0.83056641 8.52167969 0.78222656 9.59804688 0.73242188 10.70703125 C0.67634766 11.83496094 0.62027344 12.96289062 0.5625 14.125 C0.51029297 15.26066406 0.45808594 16.39632812 0.40429688 17.56640625 C0.27435544 20.37786631 0.13938086 23.18899465 0 26 C-0.33 25.34 -0.66 24.68 -1 24 C-1.99 24 -2.98 24 -4 24 C-4.66 21.36 -5.32 18.72 -6 16 C-9.79547921 16.96776098 -9.79547921 16.96776098 -13 19 C-13.23678716 21.69235776 -13.42198025 24.36498156 -13.5625 27.0625 C-13.60568359 27.82111328 -13.64886719 28.57972656 -13.69335938 29.36132812 C-13.79973633 31.24065438 -13.90039934 33.12030244 -14 35 C-14.66 34.01 -15.32 33.02 -16 32 C-16 35.03028259 -15.21150009 37.23085693 -14 40 C-11.7970198 41.38249718 -11.7970198 41.38249718 -9 42 C-7.741875 42.37125 -6.48375 42.7425 -5.1875 43.125 C-4.135625 43.41375 -3.08375 43.7025 -2 44 C-2.01160156 44.78246094 -2.02320312 45.56492188 -2.03515625 46.37109375 C-2.04417969 47.38300781 -2.05320312 48.39492187 -2.0625 49.4375 C-2.07410156 50.44683594 -2.08570312 51.45617187 -2.09765625 52.49609375 C-2.28612676 54.94021067 -2.28612676 54.94021067 -1 56 C-1 51.38 -1 46.76 -1 42 C-0.67 42 -0.34 42 0 42 C0 47.28 0 52.56 0 58 C6.93 58 13.86 58 21 58 C21 58.33 21 58.66 21 59 C9.08322972 59.09486712 -2.84068133 59.18188504 -14.75 58.6875 C-15.89915894 58.65378296 -15.89915894 58.65378296 -17.0715332 58.61938477 C-21.47576045 58.40014284 -24.53712977 57.80171731 -28 55 C-31.84065132 44.94115131 -30.65498151 33.93245172 -26.875 24.0625 C-19.99652101 12.82765099 -19.99652101 12.82765099 -14.2421875 11.23828125 C-13.50226563 11.15964844 -12.76234375 11.08101562 -12 11 C-12 10.34 -12 9.68 -12 9 C-8.27034861 6.96564469 -6.33094958 6 -2 6 C-1.34 4.02 -0.68 2.04 0 0 Z " fill="#E6CA5D" transform="translate(94,35)"/>
<path d="M0 0 C2.77687284 0.35462229 3.79131005 0.75386568 5.6328125 2.92578125 C6.12523437 3.71339844 6.61765625 4.50101563 7.125 5.3125 C7.87136719 6.48232422 7.87136719 6.48232422 8.6328125 7.67578125 C14.90768994 18.34307289 14.80501686 29.04176333 13 41 C15.64 41.33 18.28 41.66 21 42 C21 42.33 21 42.66 21 43 C16.05 43.495 16.05 43.495 11 44 C10.67 43.01 10.34 42.02 10 41 C2.08 41 -5.84 41 -14 41 C-14.33 39.02 -14.66 37.04 -15 35 C-6.09 35 2.82 35 12 35 C12 34.34 12 33.68 12 33 C3.42 33 -5.16 33 -14 33 C-14 28.71 -14 24.42 -14 20 C-10.535 19.505 -10.535 19.505 -7 19 C-7 18.34 -7 17.68 -7 17 C-6.236875 16.46375 -5.47375 15.9275 -4.6875 15.375 C-1.26040373 12.3464033 0.04237193 9.4367172 1 5 C0.81440052 2.12482102 0.81440052 2.12482102 0 0 Z " fill="#C7BB8A" transform="translate(124,49)"/>
<path d="M0 0 C0.33 0 0.66 0 1 0 C1.495 14.355 1.495 14.355 2 29 C2.33 26.69 2.66 24.38 3 22 C3.33 22 3.66 22 4 22 C4 32.56 4 43.12 4 54 C6.97 53.505 6.97 53.505 10 53 C9.505 53.99 9.505 53.99 9 55 C6.03 55 3.06 55 0 55 C-0.33 54.34 -0.66 53.68 -1 53 C-5.29 53 -9.58 53 -14 53 C-14 52.67 -14 52.34 -14 52 C-10.04 52 -6.08 52 -2 52 C-2.33 48.37 -2.66 44.74 -3 41 C-11.58047602 38.65987018 -20.16022918 38.38566164 -29 38 C-29 37.67 -29 37.34 -29 37 C-24.05 37 -19.1 37 -14 37 C-14.66 35.02 -15.32 33.04 -16 31 C-19.96 31 -23.92 31 -28 31 C-28 30.67 -28 30.34 -28 30 C-27.22914062 29.96261719 -26.45828125 29.92523438 -25.6640625 29.88671875 C-24.15972656 29.78810547 -24.15972656 29.78810547 -22.625 29.6875 C-21.62726563 29.62949219 -20.62953125 29.57148437 -19.6015625 29.51171875 C-18.74304688 29.34285156 -17.88453125 29.17398438 -17 29 C-14.52724392 25.29086588 -14.64214157 22.72642364 -14.44140625 18.375 C-13.92094304 15.57463156 -13.26902867 14.67780289 -11 13 C-7.8125 12.3125 -7.8125 12.3125 -5 12 C-4.67 14.97 -4.34 17.94 -4 21 C-3.01 21 -2.02 21 -1 21 C-0.67 14.07 -0.34 7.14 0 0 Z " fill="#59883B" transform="translate(94,38)"/>
<path d="M0 0 C1.32411006 2.64822012 1.01892401 4.48938194 0.87890625 7.4453125 C0.83056641 8.52167969 0.78222656 9.59804688 0.73242188 10.70703125 C0.67634766 11.83496094 0.62027344 12.96289062 0.5625 14.125 C0.51029297 15.26066406 0.45808594 16.39632812 0.40429688 17.56640625 C0.27435544 20.37786631 0.13938086 23.18899465 0 26 C-0.33 25.34 -0.66 24.68 -1 24 C-1.99 24 -2.98 24 -4 24 C-4.66 21.36 -5.32 18.72 -6 16 C-9.79547921 16.96776098 -9.79547921 16.96776098 -13 19 C-13.23678716 21.69235776 -13.42198025 24.36498156 -13.5625 27.0625 C-13.60568359 27.82111328 -13.64886719 28.57972656 -13.69335938 29.36132812 C-13.79973633 31.24065438 -13.90039934 33.12030244 -14 35 C-16.9765625 32.3359375 -16.9765625 32.3359375 -17.1875 29.3125 C-17.125625 28.549375 -17.06375 27.78625 -17 27 C-19.97 27 -22.94 27 -26 27 C-26.41158166 23.58448656 -26.17214696 22.25353235 -24.20703125 19.359375 C-23.41683594 18.49828125 -22.62664062 17.6371875 -21.8125 16.75 C-21.03519531 15.87859375 -20.25789063 15.0071875 -19.45703125 14.109375 C-16.8529721 11.87377573 -15.36930749 11.31119714 -12 11 C-12 10.34 -12 9.68 -12 9 C-8.27034861 6.96564469 -6.33094958 6 -2 6 C-1.34 4.02 -0.68 2.04 0 0 Z " fill="#DDCF95" transform="translate(94,35)"/>
<path d="M0 0 C0.33 0 0.66 0 1 0 C1 5.28 1 10.56 1 16 C7.93 16 14.86 16 22 16 C22 16.33 22 16.66 22 17 C10.08322972 17.09486712 -1.84068133 17.18188504 -13.75 16.6875 C-14.51610596 16.66502197 -15.28221191 16.64254395 -16.0715332 16.61938477 C-20.44970732 16.40143976 -23.76933616 16.0888599 -27 13 C-27.33 10.36 -27.66 7.72 -28 5 C-19.09 5 -10.18 5 -1 5 C-1 7.64 -1 10.28 -1 13 C-0.67 13.33 -0.34 13.66 0 14 C0 9.38 0 4.76 0 0 Z " fill="#DEBD43" transform="translate(93,77)"/>
<path d="M0 0 C2.31 0.66 4.62 1.32 7 2 C6.01 2.66 5.02 3.32 4 4 C3.10427341 5.85085782 3.10427341 5.85085782 2.5 7.9375 C1.52597669 11.03930043 0.5509232 12.92412118 -2 15 C-2.66 15 -3.32 15 -4 15 C-4 15.66 -4 16.32 -4 17 C1.61 17 7.22 17 13 17 C13 17.33 13 17.66 13 18 C5.08 18 -2.84 18 -11 18 C-11 19.98 -11 21.96 -11 24 C-2.42 24 6.16 24 15 24 C15 24.33 15 24.66 15 25 C6.42 25 -2.16 25 -11 25 C-11 26.98 -11 28.96 -11 31 C-2.42 31 6.16 31 15 31 C15 31.66 15 32.32 15 33 C6.42 33.33 -2.16 33.66 -11 34 C-11 35.65 -11 37.3 -11 39 C-3.41 39 4.18 39 12 39 C12 39.33 12 39.66 12 40 C3.42 40 -5.16 40 -14 40 C-14 31.42 -14 22.84 -14 14 C-11.03 13.34 -8.06 12.68 -5 12 C-2.27984634 10.23190012 -1.25178697 9.13304139 -0.546875 5.9609375 C-0.28133483 3.983362 -0.13272695 1.99090432 0 0 Z " fill="#58594B" transform="translate(121,51)"/>
<path d="M0 0 C4.34613514 3.86323124 4.62598545 7.48328541 5 13 C4.01 12.67 3.02 12.34 2 12 C2.103125 13.216875 2.20625 14.43375 2.3125 15.6875 C2.28835757 19.09158213 2.03346812 19.94925801 0.0625 22.9375 C-3.9247382 25.62278287 -7.27712767 25.8868157 -12 26 C-12 24.68 -12 23.36 -12 22 C-10.02 21.34 -8.04 20.68 -6 20 C-7.98 20 -9.96 20 -12 20 C-12 18.68 -12 17.36 -12 16 C-10.68 15.67 -9.36 15.34 -8 15 C-7.83273455 13.35422741 -7.66620388 11.70838013 -7.5 10.0625 C-7.4071875 9.14597656 -7.314375 8.22945312 -7.21875 7.28515625 C-7.05708522 5.64507518 -7.05708522 5.64507518 -7 4 C-7 3.01 -7 2.02 -7 1 C-4.37869511 -0.31065245 -2.90828303 -0.415469 0 0 Z " fill="#5E9136" transform="translate(119,39)"/>
<path d="M0 0 C2.45391569 3.68087353 2.22802759 6.44355588 2.125 10.6875 C2.11597656 11.38939453 2.10695313 12.09128906 2.09765625 12.81445312 C2.07413704 14.54311525 2.03826713 16.27160145 2 18 C2.66 16.35 3.32 14.7 4 13 C5.98 13 7.96 13 10 13 C9.67 13.66 9.34 14.32 9 15 C7.35 15 5.7 15 4 15 C4 24.9 4 34.8 4 45 C8.24875 44.855625 12.4975 44.71125 16.875 44.5625 C18.2141748 44.51939697 19.55334961 44.47629395 20.93310547 44.43188477 C22.50922607 44.3747229 22.50922607 44.3747229 24.1171875 44.31640625 C25.73536377 44.26141968 25.73536377 44.26141968 27.38623047 44.20532227 C29.98069536 44.16623357 29.98069536 44.16623357 32 43 C32 44.32 32 45.64 32 47 C24.76448744 47.93217652 17.78015009 48.04562059 10.5 47.6875 C9.51257813 47.65205078 8.52515625 47.61660156 7.5078125 47.58007812 C6.56679687 47.53689453 5.62578125 47.49371094 4.65625 47.44921875 C3.80869141 47.41143311 2.96113281 47.37364746 2.08789062 47.3347168 C0 47 0 47 -2 45 C-2.14517744 42.0906442 -2.18630796 39.280054 -2.125 36.375 C-2.11597656 35.57320312 -2.10695313 34.77140625 -2.09765625 33.9453125 C-2.07406223 31.96341477 -2.03819065 29.98167019 -2 28 C-1.67 28 -1.34 28 -1 28 C-0.67 18.76 -0.34 9.52 0 0 Z " fill="#6D915B" transform="translate(103,46)"/>
<path d="M0 0 C0.66 0.33 1.32 0.66 2 1 C2.59355614 3.64860427 2.74209269 6.29197322 3 9 C3.33 9 3.66 9 4 9 C4.33 12.3 4.66 15.6 5 19 C5.33 19 5.66 19 6 19 C7.20568053 23.67201205 7.09382426 28.21496292 7 33 C6.34 33 5.68 33 5 33 C4.67 41.25 4.34 49.5 4 58 C3.67 58 3.34 58 3 58 C2.67 50.08 2.34 42.16 2 34 C1.01 34.495 1.01 34.495 0 35 C-0.16800236 30.65860566 -0.32851981 26.31701785 -0.48217773 21.97509766 C-0.53547011 20.49878539 -0.59078903 19.02254481 -0.64819336 17.54638672 C-0.73046212 15.42170666 -0.80538335 13.29687349 -0.87890625 11.171875 C-0.9260376 9.8940918 -0.97316895 8.61630859 -1.02172852 7.29980469 C-1.00390727 4.59337842 -0.83306311 2.54687307 0 0 Z " fill="#83A171" transform="translate(95,33)"/>
<path d="M0 0 C8.58 0 17.16 0 26 0 C25.67 1.98 25.34 3.96 25 6 C17.08 6 9.16 6 1 6 C0.67 4.02 0.34 2.04 0 0 Z " fill="#F7CF3B" transform="translate(109,84)"/>
<path d="M0 0 C8.58 0 17.16 0 26 0 C26 1.65 26 3.3 26 5 C17.42 5 8.84 5 0 5 C0 3.35 0 1.7 0 0 Z " fill="#F8CB20" transform="translate(110,77)"/>
<path d="M0 0 C8.58 0 17.16 0 26 0 C26 1.65 26 3.3 26 5 C17.42 5 8.84 5 0 5 C0 3.35 0 1.7 0 0 Z " fill="#F7CA29" transform="translate(110,70)"/>
<path d="M0 0 C3.18742115 -0.05865035 6.37470118 -0.09381259 9.5625 -0.125 C10.45775391 -0.14175781 11.35300781 -0.15851563 12.27539062 -0.17578125 C17.60089905 -0.21479596 21.96370689 0.24524218 27 2 C27 2.99 27 3.98 27 5 C18.09 5 9.18 5 0 5 C0 3.35 0 1.7 0 0 Z " fill="#F3C82B" transform="translate(65,77)"/>
<path d="M0 0 C1.7957176 2.33443288 3.25813181 4.49640733 4.625 7.125 C8.02315436 11.23855528 10.80462761 11.23597465 16 12 C15.67 16.95 15.34 21.9 15 27 C10.71 27 6.42 27 2 27 C2 26.67 2 26.34 2 26 C5.96 26 9.92 26 14 26 C13.67 22.37 13.34 18.74 13 15 C4.41952398 12.65987018 -4.16022918 12.38566164 -13 12 C-13 11.67 -13 11.34 -13 11 C-8.05 11 -3.1 11 2 11 C1.34 9.02 0.68 7.04 0 5 C-3.96 5 -7.92 5 -12 5 C-12 4.67 -12 4.34 -12 4 C-6.555 3.505 -6.555 3.505 -1 3 C-0.67 2.01 -0.34 1.02 0 0 Z " fill="#262B23" transform="translate(78,64)"/>
<path d="M0 0 C2.31 0.66 4.62 1.32 7 2 C6.01 2.66 5.02 3.32 4 4 C3.10427341 5.85085782 3.10427341 5.85085782 2.5 7.9375 C1.52597669 11.03930043 0.5509232 12.92412118 -2 15 C-2.66 15 -3.32 15 -4 15 C-4 15.66 -4 16.32 -4 17 C1.61 17 7.22 17 13 17 C13 17.33 13 17.66 13 18 C-0.365 18.495 -0.365 18.495 -14 19 C-14 17.35 -14 15.7 -14 14 C-13.09507813 13.85304688 -13.09507813 13.85304688 -12.171875 13.703125 C-8.53162192 13.02204539 -5.62915393 12.40895006 -2.5 10.375 C-0.33145688 6.94147339 -0.26907439 4.0361158 0 0 Z " fill="#1B2F25" transform="translate(121,51)"/>
<path d="M0 0 C0.33 0 0.66 0 1 0 C1 5.28 1 10.56 1 16 C7.93 16 14.86 16 22 16 C22 16.33 22 16.66 22 17 C10.08322972 17.09486712 -1.84068133 17.18188504 -13.75 16.6875 C-14.51610596 16.66502197 -15.28221191 16.64254395 -16.0715332 16.61938477 C-20.45661454 16.40109592 -23.59963603 15.87170854 -27 13 C-27.94230308 10.27721265 -27.85651142 7.91760113 -28 5 C-26.79371992 7.33214148 -25.8345262 9.49642139 -25 12 C-16.75 12.66 -8.5 13.32 0 14 C0 9.38 0 4.76 0 0 Z " fill="#C7CCC9" transform="translate(93,77)"/>
<path d="M0 0 C0 0.66 0 1.32 0 2 C-1.2065625 2.4640625 -1.2065625 2.4640625 -2.4375 2.9375 C-4.89080405 3.76335345 -4.89080405 3.76335345 -6 5 C-6.23678716 7.69235776 -6.42198025 10.36498156 -6.5625 13.0625 C-6.60568359 13.82111328 -6.64886719 14.57972656 -6.69335938 15.36132812 C-6.79973633 17.24065438 -6.90039934 19.12030244 -7 21 C-9.9765625 18.3359375 -9.9765625 18.3359375 -10.1875 15.3125 C-10.125625 14.549375 -10.06375 13.78625 -10 13 C-12.97 13 -15.94 13 -19 13 C-19 11.35 -19 9.7 -19 8 C-18.34 7.67 -17.68 7.34 -17 7 C-17 7.66 -17 8.32 -17 9 C-14.69 9.33 -12.38 9.66 -10 10 C-10 8.35 -10 6.7 -10 5 C-11.32 4.67 -12.64 4.34 -14 4 C-13.0925 3.71125 -12.185 3.4225 -11.25 3.125 C-8.1278968 2.1371082 -8.1278968 2.1371082 -5.875 0.875 C-4 0 -4 0 0 0 Z " fill="#CDC6A6" transform="translate(87,49)"/>
<path d="M0 0 C0.66 0.66 1.32 1.32 2 2 C1.98251781 4.91952568 1.86055367 7.72297885 1.625 10.625 C1.56828125 11.42679688 1.5115625 12.22859375 1.453125 13.0546875 C1.31152018 15.03715498 1.15697741 17.01869051 1 19 C1.99 18.67 2.98 18.34 4 18 C5.89444223 17.86215779 7.79279474 17.77519642 9.69140625 17.71875 C10.80064453 17.68136719 11.90988281 17.64398438 13.05273438 17.60546875 C15.39648085 17.53503897 17.74023087 17.46472686 20.08398438 17.39453125 C21.19193359 17.35714844 22.29988281 17.31976563 23.44140625 17.28125 C24.45920166 17.25095703 25.47699707 17.22066406 26.52563477 17.18945312 C29.00165418 17.15651678 29.00165418 17.15651678 31 16 C31 17.32 31 18.64 31 20 C23.70541526 20.96012994 16.71100191 20.98855619 9.375 20.5625 C8.37082031 20.51029297 7.36664063 20.45808594 6.33203125 20.40429688 C3.88765918 20.27625834 1.44376792 20.13909362 -1 20 C-0.67 13.4 -0.34 6.8 0 0 Z " fill="#8A9C8D" transform="translate(104,73)"/>
<path d="M0 0 C0.66 0.33 1.32 0.66 2 1 C2 6.94 2 12.88 2 19 C1.67 18.34 1.34 17.68 1 17 C0.01 17 -0.98 17 -2 17 C-2.66 14.36 -3.32 11.72 -4 9 C-3.01 9 -2.02 9 -1 9 C-1 7.68 -1 6.36 -1 5 C-3.64 5 -6.28 5 -9 5 C-9 4.34 -9 3.68 -9 3 C-5.92382812 2.70703125 -5.92382812 2.70703125 -2.84765625 2.4140625 C-2.23792969 2.27742188 -1.62820312 2.14078125 -1 2 C-0.67 1.34 -0.34 0.68 0 0 Z " fill="#B9BAB2" transform="translate(92,42)"/>
<path d="M0 0 C2 2 2 2 2.23046875 4.3203125 C2.14403514 9.96206989 1.84244468 15.41880402 1 21 C3.64 21.33 6.28 21.66 9 22 C9 22.33 9 22.66 9 23 C4.05 23.495 4.05 23.495 -1 24 C-2 19 -2 19 0 8 C-8.58 8 -17.16 8 -26 8 C-26 7.67 -26 7.34 -26 7 C-17.42 7 -8.84 7 0 7 C0 4.69 0 2.38 0 0 Z " fill="#E1DCBA" transform="translate(136,69)"/>
<path d="M0 0 C1.41732422 0.05994141 1.41732422 0.05994141 2.86328125 0.12109375 C3.81589844 0.14300781 4.76851562 0.16492187 5.75 0.1875 C8.17578125 0.55859375 8.17578125 0.55859375 10.17578125 2.55859375 C10.17578125 3.54859375 10.17578125 4.53859375 10.17578125 5.55859375 C4.23578125 5.55859375 -1.70421875 5.55859375 -7.82421875 5.55859375 C-2.82421875 0.55859375 -2.82421875 0.55859375 0 0 Z " fill="#F5CC35" transform="translate(124.82421875,61.44140625)"/>
<path d="M0 0 C1.20628008 2.33214148 2.1654738 4.49642139 3 7 C3.7734375 7.04898438 4.546875 7.09796875 5.34375 7.1484375 C11.46001367 7.58747623 17.10692791 8.30007536 23 10 C23 10.33 23 10.66 23 11 C20.27022936 11.08126109 17.5428983 11.14061663 14.8125 11.1875 C14.04357422 11.21263672 13.27464844 11.23777344 12.48242188 11.26367188 C7.87976598 11.32293354 4.62961725 11.1759151 1 8 C0.05769692 5.27721265 0.14348858 2.91760113 0 0 Z " fill="#D1D2CD" transform="translate(65,82)"/>
<path d="M0 0 C3.63 0.66 7.26 1.32 11 2 C10.67 6.95 10.34 11.9 10 17 C5.71 17 1.42 17 -3 17 C-3 16.67 -3 16.34 -3 16 C0.96 16 4.92 16 9 16 C8.67 12.37 8.34 8.74 8 5 C5.03 4.505 5.03 4.505 2 4 C2 3.34 2 2.68 2 2 C1.34 2 0.68 2 0 2 C0 1.34 0 0.68 0 0 Z " fill="#313B34" transform="translate(83,74)"/>
<path d="M0 0 C4.23830976 2.82553984 3.97715348 5.12180888 5 10 C5.33 10 5.66 10 6 10 C6 13.3 6 16.6 6 20 C4.68 20 3.36 20 2 20 C1.93941406 18.80761719 1.87882812 17.61523438 1.81640625 16.38671875 C1.73198851 14.82030075 1.64734113 13.25389512 1.5625 11.6875 C1.52318359 10.90181641 1.48386719 10.11613281 1.44335938 9.30664062 C1.40146484 8.54931641 1.35957031 7.79199219 1.31640625 7.01171875 C1.26141968 5.96697388 1.26141968 5.96697388 1.20532227 4.90112305 C1.04418847 2.7783428 1.04418847 2.7783428 0 0 Z " fill="#9EA8A4" transform="translate(105,33)"/>
<path d="M0 0 C0.33 0 0.66 0 1 0 C1.33 5.28 1.66 10.56 2 16 C2.66 16 3.32 16 4 16 C4.04898438 15.37351562 4.09796875 14.74703125 4.1484375 14.1015625 C4.22320312 13.28429688 4.29796875 12.46703125 4.375 11.625 C4.44460937 10.81289063 4.51421875 10.00078125 4.5859375 9.1640625 C5 7 5 7 7 5 C7.99 5.33 8.98 5.66 10 6 C9.01 6.66 8.02 7.32 7 8 C6.41810734 10.42521494 6.41810734 10.42521494 6.3125 13.125 C6.24675781 14.03507812 6.18101563 14.94515625 6.11328125 15.8828125 C6.07589844 16.58148438 6.03851563 17.28015625 6 18 C4.35 18.33 2.7 18.66 1 19 C0.67 20.32 0.34 21.64 0 23 C0 15.41 0 7.82 0 0 Z " fill="#4C6953" transform="translate(106,36)"/>
<path d="M0 0 C0.33 0 0.66 0 1 0 C1 9.24 1 18.48 1 28 C-0.32 28.33 -1.64 28.66 -3 29 C-4 28 -4 28 -4.0625 25.4375 C-4.041875 24.633125 -4.02125 23.82875 -4 23 C-2.68 23.33 -1.36 23.66 0 24 C0 16.08 0 8.16 0 0 Z " fill="#395447" transform="translate(94,38)"/>
<path d="M0 0 C1.98 0 3.96 0 6 0 C6 0.66 6 1.32 6 2 C11.94 2 17.88 2 24 2 C24 2.33 24 2.66 24 3 C11.625 3.495 11.625 3.495 -1 4 C-0.67 2.68 -0.34 1.36 0 0 Z " fill="#0D0D0D" transform="translate(110,66)"/>
<path d="M0 0 C0.33 0 0.66 0 1 0 C1 3.96 1 7.92 1 12 C-2 9 -2 9 -2.1875 6.3125 C-2.125625 5.549375 -2.06375 4.78625 -2 4 C-4.97 4 -7.94 4 -11 4 C-11 3.34 -11 2.68 -11 2 C-9.54176788 1.9729957 -8.08339325 1.95360213 -6.625 1.9375 C-5.81289062 1.92589844 -5.00078125 1.91429687 -4.1640625 1.90234375 C-2 2 -2 2 0 3 C0 2.01 0 1.02 0 0 Z " fill="#898B7C" transform="translate(79,58)"/>
<path d="M0 0 C0.625 2.5625 0.625 2.5625 1 5 C0.67 4.34 0.34 3.68 0 3 C-2.52733235 2.34444881 -2.52733235 2.34444881 -5 2 C-5.33 2.99 -5.66 3.98 -6 5 C-6.33 4.67 -6.66 4.34 -7 4 C-7.33 7.96 -7.66 11.92 -8 16 C-8.33 16 -8.66 16 -9 16 C-9.0810206 13.89646505 -9.13919907 11.79204048 -9.1875 9.6875 C-9.22230469 8.51574219 -9.25710937 7.34398437 -9.29296875 6.13671875 C-9 3 -9 3 -7.6171875 1.12890625 C-4.9328611 -0.74493513 -2.99269848 -1.49634924 0 0 Z " fill="#466250" transform="translate(89,51)"/>
<path d="M0 0 C2.97 0 5.94 0 9 0 C9 1.32 9 2.64 9 4 C6.03 4 3.06 4 0 4 C0 2.68 0 1.36 0 0 Z " fill="#F8CB20" transform="translate(67,63)"/>
<path d="M0 0 C0.66 0.33 1.32 0.66 2 1 C2 3.64 2 6.28 2 9 C1.34 9 0.68 9 0 9 C0 7.68 0 6.36 0 5 C-2.97 5 -5.94 5 -9 5 C-9 4.34 -9 3.68 -9 3 C-5.92382812 2.70703125 -5.92382812 2.70703125 -2.84765625 2.4140625 C-2.23792969 2.27742188 -1.62820312 2.14078125 -1 2 C-0.67 1.34 -0.34 0.68 0 0 Z " fill="#98978B" transform="translate(92,42)"/>
<path d="M0 0 C1.98 0 3.96 0 6 0 C6.66 1.65 7.32 3.3 8 5 C5.36 5 2.72 5 0 5 C0 3.35 0 1.7 0 0 Z " fill="#F2CD3C" transform="translate(124,55)"/>
<path d="M0 0 C3.16825333 3.0802463 4.49963418 5.62179908 5 10 C4.34 10 3.68 10 3 10 C2.7525 9.21625 2.505 8.4325 2.25 7.625 C1.22303452 4.95052836 1.22303452 4.95052836 -0.8125 3.625 C-3.5280149 2.8491386 -5.30798849 3.25221902 -8 4 C-7.67 3.01 -7.34 2.02 -7 1 C-4.37869511 -0.31065245 -2.90828303 -0.415469 0 0 Z " fill="#8D9B95" transform="translate(119,39)"/>
<path d="M0 0 C0 0.66 0 1.32 0 2 C-1.66666667 2.66666667 -3.33333333 3.33333333 -5 4 C-6.2684375 4.61875 -6.2684375 4.61875 -7.5625 5.25 C-10 6 -10 6 -12.3125 5.125 C-12.869375 4.75375 -13.42625 4.3825 -14 4 C-13.0925 3.71125 -12.185 3.4225 -11.25 3.125 C-8.1278968 2.1371082 -8.1278968 2.1371082 -5.875 0.875 C-4 0 -4 0 0 0 Z " fill="#8C8D86" transform="translate(87,49)"/>
<path d="M0 0 C0.66 0 1.32 0 2 0 C2 2.31 2 4.62 2 7 C1.34 7 0.68 7 0 7 C-0.33 8.65 -0.66 10.3 -1 12 C-1.33 12 -1.66 12 -2 12 C-2.05395478 10.37536158 -2.09277195 8.75021459 -2.125 7.125 C-2.14820312 6.22007813 -2.17140625 5.31515625 -2.1953125 4.3828125 C-2 2 -2 2 0 0 Z " fill="#7DA167" transform="translate(114,42)"/>
<path d="M0 0 C0 1.32 0 2.64 0 4 C-2.64 4 -5.28 4 -8 4 C-7.67 3.01 -7.34 2.02 -7 1 C-4.53721199 -0.231394 -2.7204945 -0.07159196 0 0 Z " fill="#F6CD30" transform="translate(77,55)"/>
<path d="M0 0 C2.64 0 5.28 0 8 0 C9.28317892 3.84953676 9.06643637 6.94738135 9 11 C8.67 11 8.34 11 8 11 C7.34 8.03 6.68 5.06 6 2 C3.03 1.505 3.03 1.505 0 1 C0 0.67 0 0.34 0 0 Z " fill="#77966D" transform="translate(97,32)"/>
<path d="M0 0 C0.33 0 0.66 0 1 0 C0.67 4.95 0.34 9.9 0 15 C-0.33 15 -0.66 15 -1 15 C-1.07347656 13.96939453 -1.07347656 13.96939453 -1.1484375 12.91796875 C-1.22320312 12.01691406 -1.29796875 11.11585937 -1.375 10.1875 C-1.44460937 9.29417969 -1.51421875 8.40085937 -1.5859375 7.48046875 C-1.86645036 4.75601501 -1.86645036 4.75601501 -4 2 C-2.68 2 -1.36 2 0 2 C0 1.34 0 0.68 0 0 Z " fill="#729757" transform="translate(96,71)"/>
<path d="M0 0 C2 2 2 2 2 5 C2.66 5 3.32 5 4 5 C3.67 5.99 3.34 6.98 3 8 C2.34 7.67 1.68 7.34 1 7 C1 9.64 1 12.28 1 15 C0.67 15 0.34 15 0 15 C0 10.05 0 5.1 0 0 Z " fill="#6B8C56" transform="translate(120,44)"/>
<path d="M0 0 C-0.33 1.65 -0.66 3.3 -1 5 C-2.65 5 -4.3 5 -6 5 C-6 3.68 -6 2.36 -6 1 C-3.92446352 0.4465236 -2.15634036 0 0 0 Z " fill="#628C4D" transform="translate(113,54)"/>
<path d="M0 0 C2 3 2 3 2 5 C-0.97 4.67 -3.94 4.34 -7 4 C-6.34 3.34 -5.68 2.68 -5 2 C-4.34 2.33 -3.68 2.66 -3 3 C-3 2.34 -3 1.68 -3 1 C-2.01 0.67 -1.02 0.34 0 0 Z " fill="#6D9754" transform="translate(94,66)"/>
<path d="M0 0 C0.33 0.99 0.66 1.98 1 3 C1.99 3 2.98 3 4 3 C4.33 3.99 4.66 4.98 5 6 C4.34 6 3.68 6 3 6 C2.67 6.99 2.34 7.98 2 9 C1.01 9.495 1.01 9.495 0 10 C0 6.7 0 3.4 0 0 Z " fill="#7B8F72" transform="translate(89,56)"/>
<path d="M0 0 C0.33 1.32 0.66 2.64 1 4 C-2.3 4.33 -5.6 4.66 -9 5 C-5.7895201 2.59214008 -3.64991166 1.31802365 0 0 Z " fill="#AEB4B3" transform="translate(134,89)"/>
<path d="M0 0 C1.32 0.33 2.64 0.66 4 1 C4.33 2.65 4.66 4.3 5 6 C3.68 5.67 2.36 5.34 1 5 C0.67 3.35 0.34 1.7 0 0 Z " fill="#DCCF98" transform="translate(124,49)"/>
<path d="M0 0 C0.99 0 1.98 0 3 0 C2.4140625 6.15234375 2.4140625 6.15234375 2 8 C1.01 8.495 1.01 8.495 0 9 C0 6.03 0 3.06 0 0 Z " fill="#68934A" transform="translate(86,54)"/>
<path d="M0 0 C2.31 0.66 4.62 1.32 7 2 C7 2.33 7 2.66 7 3 C5.35 3 3.7 3 2 3 C1.67 4.32 1.34 5.64 1 7 C0.67 4.69 0.34 2.38 0 0 Z " fill="#343F3A" transform="translate(121,51)"/>
<path d="M0 0 C2.1875 0.3125 2.1875 0.3125 4 1 C2.75 2.5625 2.75 2.5625 1 4 C-1.1875 3.6875 -1.1875 3.6875 -3 3 C-1.75 1.4375 -1.75 1.4375 0 0 Z " fill="#F7CB2B" transform="translate(78,48)"/>
<path d="M0 0 C1.65 0 3.3 0 5 0 C5 1.32 5 2.64 5 4 C3.02 3.34 1.04 2.68 -1 2 C-0.67 1.34 -0.34 0.68 0 0 Z " fill="#EECF58" transform="translate(86,47)"/>
<path d="M0 0 C3 4 3 4 2.8125 6.6875 C2 9 2 9 0 10 C0 6.7 0 3.4 0 0 Z " fill="#D0D2D1" transform="translate(108,39)"/>
<path d="M0 0 C3.2542015 2.83430453 4.5206753 4.68607774 5 9 C4.34 9 3.68 9 3 9 C2.71125 8.21625 2.4225 7.4325 2.125 6.625 C1.15087746 3.90328368 1.15087746 3.90328368 -1 2 C-0.67 1.34 -0.34 0.68 0 0 Z " fill="#9FADA2" transform="translate(119,40)"/>
<path d="M0 0 C1.65 0 3.3 0 5 0 C5 0.33 5 0.66 5 1 C3.35 1 1.7 1 0 1 C0 0.67 0 0.34 0 0 Z " fill="#F9FAFA" transform="translate(50,92)"/>
</svg>
